<!DOCTYPE svg PUBLIC "-//W3C//DTD SVG 1.1//EN" "http://www.w3.org/Graphics/SVG/1.1/DTD/svg11.dtd">
<!-- Uploaded to: SVG Repo, www.svgrepo.com, Transformed by: SVG Repo Mixer Tools -->
<svg version="1.0" xmlns="http://www.w3.org/2000/svg" xmlns:xlink="http://www.w3.org/1999/xlink" width="256px" height="256px" viewBox="-6.72 -6.72 37.44 37.44" xml:space="preserve" fill="#000000">
<g id="SVGRepo_bgCarrier" stroke-width="0" transform="translate(0,0), scale(1)">
<path transform="translate(-6.72, -6.72), scale(1.17)" d="M16,28.489702903798648C18.038337597277597,28.954392762663566,20.098107733739784,30.31424528904337,22.08890873538536,29.67591293262214C24.043178701049683,29.049293922869484,24.83984072563212,26.720887203097757,26.228699841321742,25.209962705034773C27.63022343037062,23.685260666228174,29.845164457379905,22.672382523255475,30.368520068199043,20.66861517587565C30.895640959738273,18.65043172899356,29.209586609841846,16.708992127731708,28.99083236507393,14.634608498804308C28.772162690548072,12.561026825175173,29.897115583878264,10.3665851246854,29.079831886162843,8.448355539568837C28.26218618163431,6.5292762957831165,26.282341291812223,5.394585967870717,24.5554549923771,4.224426427087323C22.859982437140733,3.0755532283740026,21.05061481896961,2.0891727142070025,19.049788362093054,1.651873844160077C17.044153414623796,1.2135240346398195,14.848917311861983,0.889660750218118,12.958263406590675,1.689754437544046C11.08443684168925,2.4827270707379117,10.369653637953151,4.789341867873048,8.74407861245989,6.013080985829678C7.150564195249544,7.212684754826094,4.9073517782619485,7.361560092024981,3.5201854765947562,8.794775725475372C2.0461660480864303,10.317727722224923,0.5132859959094442,12.270014404833429,0.640517657141654,14.385653354277201C0.7720966415121855,16.573580648211472,3.074962490256267,17.948748398896168,4.184377886067747,19.839128348061674C5.076088022819944,21.358551072271304,5.366655565813764,23.204071333824132,6.570637518245682,24.490236113721895C7.767804551047933,25.769120793126618,9.420535392541174,26.47146635931594,11.03325128307749,27.15550026494951C12.628869140742848,27.832282035056913,14.310143139153437,28.10445791434376,16,28.489702903798648" fill="#9e7329" strokewidth="0"/>
</g>
<g id="SVGRepo_tracerCarrier" stroke-linecap="round" stroke-linejoin="round" stroke="#CCCCCC" stroke-width="0.048"/>
<g id="SVGRepo_iconCarrier"> <g id="Guides"> <g id="_x32_0_px_2_"> </g> <g id="_x32_0px"> </g> <g id="_x34_0px"> </g> <g id="_x34_4_px"> </g> <g id="_x34_8px"> <g id="_x31_6px"> </g> <g id="square_4px"> <g id="_x32_8_px"> <g id="square_4px_2_"> </g> <g id="square_4px_3_"> </g> <g id="square_4px_1_"> </g> <g id="_x32_4_px_2_"> </g> <g id="_x31_2_px"> </g> </g> </g> </g> <g id="Icons"> </g> <g id="_x32_0_px"> </g> <g id="square_6px"> <g id="_x31_2_PX"> </g> </g> <g id="_x33_6_px"> <g id="_x33_2_px"> <g id="_x32_8_px_1_"> <g id="square_6px_1_"> </g> <g id="_x32_0_px_1_"> <g id="_x31_2_PX_2_"> </g> <g id="_x34_8_px"> <g id="_x32_4_px"> </g> <g id="_x32_4_px_1_"> </g> </g> </g> </g> </g> </g> <g id="_x32_0_px_3_"> </g> <g id="_x32_0_px_4_"> </g> <g id="New_Symbol_8"> <g id="_x32_4_px_3_"> </g> </g> </g> <g id="Artboard"> </g> <g id="Free_Icons"> <g> <line style="fill:none;stroke:#bdbdbd;stroke-linecap:round;stroke-linejoin:round;stroke-miterlimit:10;" x1="0.5" y1="9.5" x2="7.5" y2="9.5"/> <line style="fill:none;stroke:#bdbdbd;stroke-linecap:round;stroke-linejoin:round;stroke-miterlimit:10;" x1="3" y1="12.5" x2="7.5" y2="12.5"/> <line style="fill:none;stroke:#bdbdbd;stroke-linecap:round;stroke-linejoin:round;stroke-miterlimit:10;" x1="5.5" y1="15.5" x2="7.5" y2="15.5"/> <rect x="9.5" y="7.5" style="fill:none;stroke:#bdbdbd;stroke-linecap:round;stroke-linejoin:round;stroke-miterlimit:10;" width="14" height="11"/> <polyline style="fill:none;stroke:#bdbdbd;stroke-linecap:round;stroke-linejoin:round;stroke-miterlimit:10;" points="9.5,7.5 16.5,13.5 23.5,7.5 "/> </g> </g> </g>
</svg>