<?xml version="1.0" standalone="no"?>
<!DOCTYPE svg PUBLIC "-//W3C//DTD SVG 20010904//EN"
 "http://www.w3.org/TR/2001/REC-SVG-20010904/DTD/svg10.dtd">
<svg version="1.0" xmlns="http://www.w3.org/2000/svg"
 width="300.000000pt" height="300.000000pt" viewBox="0 0 300.000000 300.000000"
 preserveAspectRatio="xMidYMid meet">
<metadata>
Created by potrace 1.16, written by Peter Selinger 2001-2019
</metadata>
<g transform="translate(0.000000,300.000000) scale(0.100000,-0.100000)"
fill="#000000" stroke="none">
<path d="M1610 2975 c-5 -14 -9 -29 -9 -33 1 -4 1 -226 0 -494 l-1 -488 -65 0
-65 0 0 283 c-1 265 -5 394 -15 443 -6 28 -38 34 -180 34 -84 0 -115 -4 -124
-14 -15 -18 -21 -142 -21 -473 l0 -273 -65 0 -64 0 -3 260 c-2 195 -6 262 -16
272 -9 9 -58 14 -162 17 l-150 3 0 -275 0 -275 -140 -4 c-98 -2 -143 -7 -152
-16 -19 -19 -15 -262 7 -387 34 -195 107 -379 193 -485 21 -25 67 -77 105
-116 l67 -71 0 -435 0 -435 38 -7 c50 -8 735 -6 792 2 l45 7 -2 40 c-10 207
-2 245 73 337 l39 48 169 0 c254 0 333 20 398 101 37 46 58 156 61 328 l2 124
28 10 c29 9 30 13 27 93 l-1 52 38 7 c85 15 168 66 173 105 5 36 -4 53 -65
127 -36 43 -85 112 -109 153 -43 75 -127 259 -161 357 -12 35 -25 53 -39 57
-12 3 -90 6 -173 6 l-153 0 0 514 c0 459 -2 515 -16 520 -9 3 -78 6 -155 6
l-139 0 -10 -25z m260 -530 l0 -485 -100 0 -100 0 0 485 0 485 100 0 100 0 0
-485z m-477 18 c4 -104 7 -259 7 -345 l0 -158 -100 0 -100 0 0 345 0 345 93 0
94 0 6 -187z m-473 -263 l0 -240 -95 0 -95 0 0 240 0 240 95 0 95 0 0 -240z
m1289 -319 c20 -5 32 -24 61 -101 72 -191 148 -330 230 -424 78 -89 73 -97
-75 -137 -44 -11 -85 -25 -91 -30 -9 -7 -8 -23 4 -60 l16 -51 -33 -27 c-36
-30 -36 -30 -28 -151 2 -36 -1 -110 -8 -165 -24 -205 -42 -216 -355 -223
l-215 -4 -55 -57 c-84 -85 -103 -132 -108 -268 l-5 -113 -368 0 -369 0 0 439
0 439 -33 21 c-117 72 -248 280 -296 468 -25 97 -51 291 -51 384 l0 69 878 -1
c482 -1 888 -4 901 -8z"/>
<path d="M1420 1781 c-19 -5 -28 -18 -38 -51 -27 -89 -34 -99 -87 -130 -59
-33 -74 -35 -157 -18 -68 14 -68 14 -122 -76 l-35 -58 54 -65 c55 -64 55 -64
55 -132 l0 -68 -54 -60 -54 -59 34 -62 c48 -84 68 -97 124 -77 59 21 83 19
139 -10 62 -31 84 -60 100 -128 14 -62 23 -67 132 -67 65 0 69 4 95 89 14 50
35 74 95 109 43 26 67 27 132 7 60 -18 75 -11 114 52 49 79 48 89 -7 147 -50
53 -53 63 -51 153 1 49 5 57 51 108 44 49 49 58 40 81 -15 39 -30 66 -56 101
l-24 31 -74 -19 -75 -19 -65 41 c-57 36 -67 46 -76 83 -17 66 -28 86 -56 96
-28 11 -96 12 -134 1z m110 -81 c4 -8 14 -35 21 -60 14 -46 55 -81 156 -135
35 -19 37 -19 144 12 22 6 49 -23 49 -53 0 -14 -16 -41 -37 -65 -31 -35 -38
-51 -43 -98 -10 -106 1 -156 43 -199 41 -42 46 -70 17 -97 -18 -16 -22 -16
-66 -1 -26 9 -54 16 -62 16 -22 0 -171 -91 -188 -114 -8 -12 -17 -38 -20 -58
-8 -47 -24 -60 -66 -56 -32 3 -33 5 -45 63 -6 33 -18 64 -25 68 -180 107 -167
102 -217 87 -88 -24 -88 -24 -106 9 -18 36 -12 49 43 95 l32 28 0 113 0 114
-39 32 c-49 39 -55 53 -36 90 18 34 19 34 75 14 56 -20 86 -19 118 4 15 10 50
30 79 45 57 28 67 41 78 101 4 22 12 46 18 53 14 17 68 11 77 -8z"/>
<path d="M1431 1428 c-51 -14 -97 -54 -115 -99 -52 -130 34 -259 174 -259 122
0 187 73 178 202 -4 76 -31 118 -93 148 -44 21 -90 24 -144 8z m146 -102 c47
-51 46 -102 -3 -150 -42 -40 -78 -51 -120 -36 -72 28 -106 96 -78 155 27 57
60 78 118 72 41 -4 55 -11 83 -41z"/>
</g>
</svg>
