<?xml version="1.0" standalone="no"?>
<!DOCTYPE svg PUBLIC "-//W3C//DTD SVG 20010904//EN"
 "http://www.w3.org/TR/2001/REC-SVG-20010904/DTD/svg10.dtd">
<svg version="1.0" xmlns="http://www.w3.org/2000/svg"
 width="299.000000pt" height="300.000000pt" viewBox="0 0 299.000000 300.000000"
 preserveAspectRatio="xMidYMid meet">
<metadata>
Created by potrace 1.16, written by Peter Selinger 2001-2019
</metadata>
<g transform="translate(0.000000,300.000000) scale(0.100000,-0.100000)"
fill="#000000" stroke="none">
<path d="M1423 2989 c-53 -11 -203 -134 -203 -166 0 -9 8 -25 18 -36 13 -15
18 -44 22 -141 6 -122 6 -122 42 -167 19 -24 41 -55 48 -68 11 -22 10 -27 -9
-42 -12 -10 -59 -32 -104 -49 -195 -73 -237 -105 -245 -189 l-5 -51 503 0 502
0 -7 37 c-10 57 -41 109 -77 131 -18 11 -77 36 -131 55 -102 37 -158 65 -164
83 -2 6 8 24 22 40 14 16 25 32 25 35 0 3 11 19 25 35 26 31 27 33 30 104 1
25 8 64 16 87 11 35 11 54 1 100 -16 75 -33 97 -120 150 -76 46 -137 63 -189
52z"/>
<path d="M2200 2101 c0 -28 -9 -72 -19 -99 l-20 -49 35 -34 c20 -19 68 -77
107 -129 97 -130 126 -160 155 -160 13 0 51 -7 84 -16 33 -8 64 -14 69 -12 10
4 -86 198 -129 261 -37 52 -212 239 -253 268 l-29 20 0 -50z"/>
<path d="M665 2038 c-108 -111 -172 -194 -228 -298 -62 -115 -64 -110 48 -110
l96 0 17 31 c17 31 137 194 188 256 26 32 26 33 10 80 -8 26 -19 70 -23 96
l-8 49 -100 -104z"/>
<path d="M1087 1695 c-71 -25 -87 -74 -87 -267 0 -230 18 -282 103 -311 l41
-13 -3 -92 c-2 -56 1 -92 7 -92 13 0 110 73 185 139 l58 51 127 0 c70 0 143 5
163 10 80 22 99 82 100 315 0 217 -14 244 -141 264 -98 16 -506 13 -553 -4z
m559 -41 c75 -9 79 -19 82 -238 3 -190 3 -191 -22 -221 l-24 -30 -155 -3 -154
-3 -92 -80 -91 -80 0 76 c0 52 -4 77 -12 79 -7 2 -31 9 -54 15 -27 7 -44 19
-52 35 -9 20 -16 248 -12 398 1 39 47 53 189 58 148 5 332 3 397 -6z"/>
<path d="M1213 1513 c-13 -2 -23 -10 -23 -18 0 -19 34 -25 161 -25 149 0 239
9 239 25 0 19 -299 33 -377 18z"/>
<path d="M1197 1363 c-19 -19 4 -23 121 -22 142 0 198 11 118 22 -63 9 -231 9
-239 0z"/>
<path d="M1846 1482 c-3 -5 -8 -85 -12 -178 -4 -105 -12 -179 -20 -195 -19
-38 -78 -52 -255 -58 l-155 -6 -63 -67 -63 -68 142 0 142 0 67 -58 c82 -73
159 -132 172 -132 6 0 9 36 7 92 l-3 91 31 8 c16 5 47 23 68 41 l37 33 2 205
c2 224 -3 248 -57 284 -29 18 -33 19 -40 8z"/>
<path d="M450 1407 c0 -7 -22 -29 -50 -50 -63 -47 -81 -82 -92 -181 -5 -44
-14 -86 -20 -93 -16 -20 3 -70 64 -166 43 -65 48 -80 37 -93 -16 -19 -78 -51
-187 -94 -126 -50 -172 -92 -186 -172 l-7 -38 479 0 c264 0 494 3 511 6 27 6
30 9 24 33 -12 50 -44 102 -76 121 -18 11 -68 34 -112 50 -101 38 -159 67
-180 90 -16 17 -13 25 44 121 59 100 69 127 54 143 -5 4 -13 50 -19 103 -11
90 -13 96 -50 134 -49 51 -145 99 -196 99 -24 0 -38 -5 -38 -13z"/>
<path d="M2361 1369 c-74 -60 -96 -102 -106 -204 -4 -38 -11 -75 -16 -81 -14
-17 8 -74 61 -159 27 -43 50 -83 50 -87 0 -18 -84 -67 -167 -96 -48 -18 -106
-42 -128 -55 -40 -22 -76 -76 -89 -128 -5 -24 -2 -27 25 -33 43 -8 928 -6 959
3 32 9 30 47 -8 104 -28 42 -91 77 -229 127 -33 12 -76 34 -93 49 l-32 26 51
80 c55 86 79 149 63 168 -6 7 -14 54 -20 106 -7 65 -16 101 -29 120 -27 36
-143 102 -190 107 -34 4 -45 -1 -102 -47z"/>
<path d="M763 303 c-24 -2 -43 -7 -43 -11 1 -12 121 -98 198 -141 194 -108
359 -145 627 -139 l180 4 125 43 c69 23 163 62 209 87 90 48 211 130 211 143
0 22 -147 28 -260 11 -36 -5 -98 -23 -139 -40 -225 -92 -527 -92 -752 0 -107
44 -209 56 -356 43z"/>
</g>
</svg>
