<?xml version="1.0" standalone="no"?>
<!DOCTYPE svg PUBLIC "-//W3C//DTD SVG 20010904//EN"
 "http://www.w3.org/TR/2001/REC-SVG-20010904/DTD/svg10.dtd">
<svg version="1.0" xmlns="http://www.w3.org/2000/svg"
 width="512.000000pt" height="512.000000pt" viewBox="0 0 512.000000 512.000000"
 preserveAspectRatio="xMidYMid meet">

<g transform="translate(0.000000,512.000000) scale(0.100000,-0.100000)"
fill="#000000" stroke="none">
<path d="M2501 5004 c-19 -24 -21 -40 -21 -181 0 -150 1 -155 25 -178 15 -16
36 -25 55 -25 19 0 40 9 55 25 24 23 25 28 25 178 0 141 -2 157 -21 181 -16
20 -29 26 -59 26 -30 0 -43 -6 -59 -26z"/>
<path d="M1555 4755 c-15 -14 -25 -36 -25 -53 0 -30 131 -267 159 -289 25 -19
78 -16 101 7 35 35 26 77 -46 201 -36 63 -76 124 -90 137 -33 29 -69 28 -99
-3z"/>
<path d="M3461 4753 c-43 -44 -151 -245 -151 -281 0 -66 82 -98 128 -49 38 41
152 250 152 279 0 37 -40 78 -75 78 -16 0 -38 -11 -54 -27z"/>
<path d="M2339 4294 c-583 -105 -1028 -609 -1051 -1189 l-3 -80 213 -5 c199
-5 215 -6 228 -25 28 -37 28 -64 0 -105 -59 -89 -55 -178 10 -250 43 -47 89
-64 160 -58 139 12 210 166 134 293 -36 61 -37 88 -5 120 24 25 24 25 240 25
l215 0 0 133 0 132 -98 0 c-92 0 -101 2 -160 34 -136 74 -205 213 -181 365 19
114 95 213 202 262 53 24 74 28 150 28 l87 0 0 168 0 168 -32 -1 c-18 0 -67
-7 -109 -15z"/>
<path d="M2640 4061 c0 -236 -1 -250 -21 -275 -28 -35 -76 -35 -131 2 -59 39
-147 39 -206 -1 -109 -72 -113 -228 -9 -311 35 -28 46 -31 110 -31 62 0 77 4
112 28 49 34 88 35 120 2 25 -24 25 -24 25 -240 l0 -215 133 0 132 0 -3 83
c-3 65 1 94 18 139 29 78 96 150 177 190 58 28 75 32 147 32 67 0 92 -5 142
-28 77 -35 145 -103 181 -181 23 -51 27 -73 27 -148 l-1 -88 121 3 121 3 -3
80 c-21 519 -386 991 -890 1149 -83 26 -232 56 -278 56 l-24 0 0 -249z"/>
<path d="M855 4055 c-24 -24 -31 -57 -19 -90 6 -16 218 -146 270 -165 71 -27
133 54 89 116 -21 30 -257 164 -289 164 -15 0 -38 -11 -51 -25z"/>
<path d="M4065 4010 c-66 -38 -128 -79 -137 -91 -50 -60 13 -147 86 -119 52
19 264 149 270 165 20 53 -18 115 -71 115 -16 0 -79 -30 -148 -70z"/>
<path d="M3198 3300 c-48 -14 -85 -42 -112 -84 -24 -36 -27 -49 -24 -107 3
-52 9 -75 31 -106 35 -50 34 -77 -2 -114 l-29 -29 -211 0 -211 0 0 -134 0
-134 46 10 c142 31 319 -74 374 -220 70 -185 -26 -392 -212 -458 -42 -15 -179
-21 -198 -9 -7 4 -10 -96 -10 -289 l0 -296 339 0 340 0 6 58 c28 260 52 391
101 540 43 133 92 237 198 421 48 81 102 185 121 229 37 84 75 217 75 259 l0
23 -196 0 -196 0 -29 29 c-37 37 -36 51 3 120 70 122 21 254 -107 290 -45 12
-59 13 -97 1z"/>
<path d="M1300 2837 c0 -42 38 -175 75 -259 19 -44 73 -148 121 -229 198 -344
252 -516 299 -961 l6 -58 340 0 339 0 0 375 c0 360 1 376 20 395 35 35 64 35
125 0 43 -25 67 -31 109 -31 157 0 244 166 155 296 -58 83 -164 102 -262 46
-67 -38 -81 -39 -118 -2 l-29 29 0 211 0 211 -132 0 -133 0 0 -98 c-1 -80 -5
-105 -23 -143 -35 -71 -84 -122 -154 -160 -60 -32 -68 -34 -163 -34 -120 0
-171 20 -251 100 -70 69 -98 142 -97 253 l0 82 -113 0 c-113 0 -114 0 -114
-23z"/>
<path d="M1800 1125 c0 -83 40 -148 115 -188 40 -22 45 -22 645 -22 600 0 605
0 645 22 75 40 115 105 115 188 l0 45 -760 0 -760 0 0 -45z"/>
<path d="M2010 724 c0 -86 53 -172 124 -205 38 -17 73 -19 431 -19 359 0 393
2 430 19 75 35 125 111 125 191 l0 40 -555 0 -555 0 0 -26z"/>
<path d="M2232 276 c4 -70 30 -114 90 -158 31 -22 42 -23 233 -26 194 -3 201
-2 245 21 60 31 102 99 108 172 l4 55 -342 0 -342 0 4 -64z"/>
</g>
</svg>
