<?xml version="1.0" standalone="no"?>
<!DOCTYPE svg PUBLIC "-//W3C//DTD SVG 20010904//EN"
 "http://www.w3.org/TR/2001/REC-SVG-20010904/DTD/svg10.dtd">
<svg version="1.0" xmlns="http://www.w3.org/2000/svg"
 width="711.000000pt" height="767.000000pt" viewBox="0 0 711.000000 767.000000"
 preserveAspectRatio="xMidYMid meet">
<metadata>
Created by potrace 1.16, written by Peter Selinger 2001-2019
</metadata>
<g transform="translate(0.000000,767.000000) scale(0.100000,-0.100000)"
fill="#000000" stroke="none">
<path d="M3489 6116 c-74 -62 -588 -579 -613 -619 -11 -16 -15 -34 -11 -47 13
-40 63 -50 276 -57 l200 -6 -5 -41 c-3 -23 -8 -86 -12 -140 -6 -94 -5 -99 12
-92 89 34 248 46 358 25 32 -6 61 -8 64 -5 4 5 18 150 21 225 1 11 39 12 219
6 l217 -7 18 30 c24 41 22 49 -20 101 -116 141 -575 644 -609 666 -35 23 -45
19 -115 -39z"/>
<path d="M3464 4900 c-177 -36 -314 -207 -314 -393 0 -126 41 -220 132 -302
169 -153 389 -149 555 8 78 74 116 157 121 269 5 108 -14 177 -75 260 -49 66
-137 129 -205 146 -62 16 -166 21 -214 12z"/>
<path d="M2190 4433 c-19 -1 -93 -8 -165 -14 -236 -19 -585 -59 -623 -72 -36
-12 -37 -14 -40 -63 -5 -83 114 -852 143 -919 10 -27 20 -35 39 -35 35 0 75
37 186 174 144 179 123 170 222 95 70 -53 437 -341 666 -521 l62 -50 0 284 0
283 -270 210 c-160 125 -268 215 -265 223 2 7 58 81 124 165 65 83 122 162
126 175 4 15 1 32 -9 47 -15 23 -22 25 -89 23 -39 0 -88 -3 -107 -5z"/>
<path d="M4731 4421 c-17 -17 -21 -29 -16 -49 3 -14 60 -95 126 -178 65 -84
121 -159 124 -166 3 -8 -97 -92 -265 -223 l-270 -210 0 -283 0 -284 38 29 c20
17 154 122 297 234 143 113 309 242 368 288 127 98 101 106 247 -75 111 -137
151 -174 186 -174 19 0 29 8 39 35 29 67 148 836 143 919 -3 49 -4 51 -41 64
-41 13 -644 76 -838 88 -111 6 -117 6 -138 -15z"/>
<path d="M3210 3949 c-30 -10 -97 -35 -148 -55 -86 -33 -95 -40 -109 -73 -23
-54 -36 -318 -30 -623 5 -298 4 -292 96 -448 l39 -65 7 -150 c8 -182 26 -291
56 -345 28 -49 108 -106 169 -119 58 -14 472 -14 530 0 25 5 69 26 97 45 92
63 115 141 129 429 6 141 8 152 34 190 15 22 42 69 60 104 40 80 49 168 49
466 0 297 -12 474 -35 522 -18 37 -23 39 -169 90 -82 28 -155 52 -161 52 -6 1
-52 -52 -102 -118 -51 -65 -109 -138 -130 -162 l-38 -43 -75 90 c-41 50 -99
122 -129 162 -30 40 -62 72 -70 71 -8 0 -40 -9 -70 -20z"/>
<path d="M0 280 l0 -280 3555 0 3555 0 0 280 0 280 -3555 0 -3555 0 0 -280z
m994 84 c27 -11 18 -23 -21 -26 -53 -4 -52 -25 1 -48 37 -15 46 -24 46 -44 0
-33 -35 -56 -82 -56 -50 0 -49 16 2 25 22 4 42 11 45 15 3 5 -14 22 -39 39
-53 37 -62 55 -36 81 20 20 54 25 84 14z m76 -8 c0 -7 7 -19 16 -27 14 -11 14
-13 0 -21 -19 -11 -22 -78 -4 -96 6 -6 8 -15 5 -19 -4 -4 -14 0 -23 9 -17 16
-31 125 -21 152 8 20 27 21 27 2z m330 -37 l0 -41 31 26 c48 41 65 34 29 -11
l-20 -26 21 -34 c27 -44 17 -54 -19 -20 -29 28 -42 27 -42 -5 0 -10 -4 -18
-10 -18 -6 0 -10 37 -10 91 0 57 4 88 10 84 6 -3 10 -24 10 -46z m140 36 c0
-8 -4 -15 -10 -15 -5 0 -10 7 -10 15 0 8 5 15 10 15 6 0 10 -7 10 -15z m-1300
-15 c0 -5 12 -35 26 -67 l26 -58 19 50 c31 80 39 98 44 93 6 -6 -27 -104 -48
-143 l-14 -28 -17 26 c-19 27 -56 120 -56 138 0 5 5 7 10 4 6 -3 10 -10 10
-15z m402 -32 c-15 -15 -16 -72 -2 -99 6 -11 7 -19 1 -19 -15 0 -21 28 -21 98
0 62 1 65 17 49 13 -13 14 -20 5 -29z m-198 3 c26 -28 16 -54 -24 -67 -47 -15
-51 -34 -6 -34 19 0 38 -4 41 -10 10 -17 -57 -11 -77 7 -37 33 -14 123 32 123
9 0 25 -9 34 -19z m136 10 c0 -5 -14 -12 -30 -16 -21 -5 -32 -14 -36 -32 -9
-34 11 -73 38 -74 l23 -2 -23 -4 c-28 -5 -72 31 -72 58 0 28 49 79 76 79 13 0
24 -4 24 -9z m190 -13 c47 -51 29 -118 -32 -118 -67 0 -94 78 -42 119 34 27
48 26 74 -1z m449 -4 c40 -50 17 -114 -41 -114 -62 0 -89 70 -43 115 31 32 58
32 84 -1z m128 9 c2 -6 -6 -13 -19 -15 -12 -2 -29 -16 -38 -31 -14 -26 -14
-29 4 -43 11 -8 30 -14 43 -14 13 0 23 -4 23 -10 0 -16 -67 -12 -84 6 -22 22
-20 66 5 98 22 28 59 33 66 9z m-497 -8 c-5 -6 -14 -22 -19 -36 -9 -23 -10
-22 -10 11 -1 29 3 36 18 36 13 0 17 -4 11 -11z m4321 -47 l13 -32 14 35 c8
19 16 29 19 23 5 -14 -21 -85 -32 -87 -5 -1 -17 19 -27 46 -20 52 -8 66 13 15z
m454 22 c-3 -5 -12 -7 -20 -3 -21 7 -19 -7 5 -32 23 -25 18 -55 -10 -55 -28 0
-34 18 -8 22 l23 3 -24 22 c-29 27 -22 53 14 53 15 0 24 -4 20 -10z m634 -33
c-5 -20 -15 -39 -20 -43 -11 -7 -8 11 13 65 13 36 19 20 7 -22z m85 26 c4 -9
-2 -25 -14 -38 -25 -26 -25 -32 -2 -38 10 -3 6 -5 -10 -6 -33 -1 -37 18 -8 44
26 23 25 35 -1 35 -11 0 -17 5 -14 10 10 16 42 12 49 -7z m59 -19 c10 -61 -15
-92 -27 -33 -9 49 -7 69 8 69 8 0 16 -15 19 -36z m81 20 c18 -47 -3 -91 -36
-73 -31 16 -21 89 12 89 10 0 21 -7 24 -16z m90 -3 c16 -17 16 -23 4 -48 -18
-38 -45 -42 -59 -7 -7 20 -7 35 0 51 13 28 32 29 55 4z m74 -46 c-3 -24 -4
-25 -25 -10 -21 15 -22 45 -2 45 4 0 6 -7 3 -15 -4 -8 -1 -15 5 -15 6 0 12 15
12 33 1 23 3 26 6 10 2 -13 3 -34 1 -48z m96 32 c11 -29 1 -57 -22 -65 -18 -6
-45 45 -38 74 9 35 47 29 60 -9z m76 3 c0 -21 -4 -28 -14 -24 -7 3 -13 16 -13
30 0 14 5 24 13 24 9 0 14 -11 14 -30z m90 25 c0 -11 -31 -65 -36 -65 -4 0 -3
12 0 27 5 17 3 29 -6 34 -9 6 -4 9 15 9 15 0 27 -2 27 -5z m-1500 -56 c0 -18
-4 -28 -10 -24 -5 3 -10 20 -10 36 0 18 4 28 10 24 6 -3 10 -20 10 -36z m341
-18 c-13 -24 -31 -27 -49 -9 -16 16 -15 34 4 53 16 15 18 15 36 -3 17 -16 18
-23 9 -41z m74 49 c3 -6 -1 -13 -9 -16 -20 -8 -21 -34 -1 -34 8 0 15 -5 15
-11 0 -6 -10 -9 -22 -7 -15 2 -24 11 -26 26 -5 36 27 67 43 42z m-535 -11 c0
-7 -8 -18 -17 -25 -17 -13 -17 -13 0 -14 10 0 15 -4 12 -10 -9 -14 -21 -12
-39 6 -12 12 -13 20 -6 35 11 20 50 27 50 8z m45 -9 c-17 -18 -16 -19 10 -26
16 -4 23 -10 17 -16 -13 -13 -40 0 -47 23 -8 23 1 39 22 39 14 0 14 -2 -2 -20z
m205 -5 c0 -28 -16 -50 -24 -36 -5 8 -13 8 -27 0 -28 -15 -63 15 -49 41 8 14
21 18 55 17 38 -2 45 -5 45 -22z m117 -22 c-4 -17 -4 -17 -12 0 -4 9 -4 25 0
35 8 16 8 16 12 0 3 -10 3 -26 0 -35z m224 37 c5 0 9 -12 9 -27 0 -20 -3 -24
-9 -14 -5 7 -13 11 -19 7 -5 -3 -12 6 -15 20 -3 19 -1 24 10 20 8 -3 19 -6 24
-6z m94 -10 c-16 -18 -17 -20 -1 -26 11 -4 27 3 46 21 30 29 55 29 67 -1 3 -8
-2 -23 -11 -32 -13 -13 -20 -14 -34 -5 -12 7 -24 7 -34 2 -21 -12 -46 -2 -53
22 -8 23 1 39 22 39 14 0 14 -2 -2 -20z m233 -5 c2 -16 1 -17 -7 -5 -11 16
-13 15 -28 -20 l-11 -25 -7 32 c-8 35 -21 34 -35 -1 -8 -20 -9 -20 -9 5 -1 35
7 40 54 37 31 -2 41 -7 43 -23z m612 -24 c0 -14 -18 -23 -31 -15 -8 4 -7 9 2
15 18 11 29 11 29 0z"/>
<path d="M387 299 c-25 -15 -11 -29 29 -29 38 0 45 14 15 30 -23 12 -22 12
-44 -1z"/>
<path d="M703 303 c-8 -3 -13 -22 -13 -44 0 -33 4 -41 26 -51 22 -11 28 -10
40 7 15 20 18 53 6 71 -9 14 -43 24 -59 17z"/>
<path d="M1150 281 c-15 -30 -12 -49 11 -61 25 -14 49 2 49 34 0 43 -41 61
-60 27z"/>
<path d="M6446 255 c-8 -21 3 -45 20 -45 9 0 14 11 14 30 0 32 -23 42 -34 15z"/>
<path d="M6534 266 c-8 -20 -1 -47 11 -49 6 -1 11 13 13 31 3 32 -14 45 -24
18z"/>
<path d="M6700 240 c0 -32 23 -42 34 -15 8 21 -3 45 -20 45 -9 0 -14 -11 -14
-30z"/>
<path d="M5710 236 c0 -8 4 -17 9 -20 10 -7 23 19 14 28 -11 11 -23 6 -23 -8z"/>
<path d="M5452 228 c2 -13 8 -23 13 -23 6 0 11 10 13 23 2 15 -2 22 -13 22
-11 0 -15 -7 -13 -22z"/>
<path d="M6044 239 c-10 -17 13 -36 27 -22 12 12 4 33 -11 33 -5 0 -12 -5 -16
-11z"/>
</g>
</svg>
