<?xml version="1.0" standalone="no"?>
<!DOCTYPE svg PUBLIC "-//W3C//DTD SVG 20010904//EN"
 "http://www.w3.org/TR/2001/REC-SVG-20010904/DTD/svg10.dtd">
<svg version="1.0" xmlns="http://www.w3.org/2000/svg"
 width="225.000000pt" height="225.000000pt" viewBox="0 0 225.000000 225.000000"
 preserveAspectRatio="xMidYMid meet">

<g transform="translate(0.000000,225.000000) scale(0.100000,-0.100000)"
fill="#000000" stroke="none">
<path d="M1469 2087 c-18 -12 -44 -38 -56 -56 -22 -33 -23 -40 -23 -287 l0
-254 -240 0 c-295 0 -327 -9 -371 -105 -16 -35 -19 -69 -19 -282 l0 -243 -254
0 c-247 0 -254 -1 -287 -23 -18 -12 -44 -38 -56 -56 -22 -33 -23 -41 -23 -268
0 -256 2 -268 60 -316 17 -15 47 -31 68 -37 53 -14 1638 -14 1697 1 57 14 110
67 124 124 15 59 15 1644 1 1697 -6 21 -22 51 -37 68 -48 58 -60 60 -316 60
-227 0 -235 -1 -268 -23z m-79 -1267 l0 -580 -554 0 -555 0 -28 24 -28 24 -3
203 c-2 141 0 211 9 231 22 55 42 58 333 58 252 0 266 1 276 19 6 12 10 121
10 286 l0 266 25 24 24 25 246 0 245 0 0 -580z"/>
</g>
</svg>
