<?xml version="1.0" standalone="no"?>
<!DOCTYPE svg PUBLIC "-//W3C//DTD SVG 20010904//EN"
 "http://www.w3.org/TR/2001/REC-SVG-20010904/DTD/svg10.dtd">
<svg version="1.0" xmlns="http://www.w3.org/2000/svg"
 width="225.000000pt" height="225.000000pt" viewBox="0 0 225.000000 225.000000"
 preserveAspectRatio="xMidYMid meet">

<g transform="translate(0.000000,225.000000) scale(0.100000,-0.100000)"
fill="#000000" stroke="none">
<path d="M1025 2137 c-114 -38 -191 -104 -238 -205 -28 -60 -32 -77 -32 -158
0 -84 3 -95 35 -160 53 -104 766 -1340 795 -1379 37 -48 120 -101 189 -121
218 -61 449 96 472 321 12 121 9 126 -417 870 -267 465 -408 702 -437 732 -62
65 -156 106 -251 110 -45 2 -92 -3 -116 -10z"/>
<path d="M365 1208 c-346 -601 -351 -611 -361 -685 -40 -319 316 -537 583
-357 29 20 63 51 78 69 14 19 111 183 215 364 l190 331 -190 331 c-115 201
-197 355 -208 391 l-17 59 -290 -503z"/>
</g>
</svg>
