<?xml version="1.0" standalone="no"?>
<!DOCTYPE svg PUBLIC "-//W3C//DTD SVG 20010904//EN"
 "http://www.w3.org/TR/2001/REC-SVG-20010904/DTD/svg10.dtd">
<svg version="1.0" xmlns="http://www.w3.org/2000/svg"
 width="348.000000pt" height="348.000000pt" viewBox="0 0 348.000000 348.000000"
 preserveAspectRatio="xMidYMid meet">

<g transform="translate(0.000000,348.000000) scale(0.100000,-0.100000)"
fill="#000000" stroke="none">
<path d="M1741 3331 c-8 -5 -11 -16 -8 -24 4 -12 2 -14 -11 -10 -14 6 -15 4
-5 -9 15 -18 8 -28 -21 -28 -12 0 -30 -7 -40 -15 -19 -14 -36 -12 -36 6 0 5 7
9 16 9 8 0 12 5 9 10 -4 6 -14 9 -23 8 -13 -2 -18 -17 -23 -58 -3 -33 -1 -58
5 -62 6 -4 7 -10 3 -15 -5 -4 -12 -1 -17 7 -7 11 -12 12 -20 4 -8 -8 -7 -15 4
-27 9 -8 13 -22 10 -31 -4 -11 0 -13 14 -9 17 4 20 -2 27 -52 4 -36 3 -61 -4
-69 -9 -10 -8 -15 2 -19 9 -3 16 -26 19 -62 14 -168 179 -179 253 -15 22 49
41 54 21 5 -33 -78 -109 -145 -166 -145 -57 0 -113 57 -135 138 -16 57 -19 28
-4 -32 23 -92 124 -150 196 -112 32 16 98 90 127 141 l17 30 -6 -29 c-7 -31
-81 -124 -119 -149 -100 -66 -237 29 -239 165 -1 29 2 70 6 90 7 32 5 37 -7
32 -18 -7 -27 -39 -51 -169 -22 -118 -43 -206 -51 -214 -4 -3 -4 6 0 21 12 53
46 260 45 281 0 21 -1 21 -9 2 -4 -11 -13 -49 -18 -85 -6 -36 -16 -100 -23
-142 -7 -43 -17 -78 -22 -78 -5 0 -6 7 -3 16 4 9 11 56 16 103 5 47 12 109 16
136 l7 50 -21 -19 c-17 -15 -19 -22 -10 -33 8 -10 6 -19 -11 -37 -28 -30 -69
-39 -73 -17 -3 12 -9 8 -23 -14 -28 -41 -28 -164 -1 -194 13 -14 16 -25 9 -33
-15 -20 -54 -122 -56 -146 -1 -12 -7 -22 -14 -22 -17 0 -17 1 8 -55 15 -35 20
-61 17 -96 -5 -47 -5 -47 29 -54 42 -8 72 10 103 60 25 40 30 38 49 -19 13
-39 13 -39 -22 -70 -38 -33 -45 -49 -49 -108 -1 -20 -6 -34 -10 -32 -16 10
-20 -27 -10 -86 l11 -60 -47 -45 -47 -46 35 6 c65 11 207 -54 250 -115 32 -45
51 -115 40 -145 -15 -39 -25 -29 -26 26 -2 106 -106 191 -240 196 -63 2 -72 0
-77 -16 -4 -16 1 -18 39 -13 50 5 135 -19 167 -49 11 -10 24 -19 28 -19 20 0
59 -89 59 -133 0 -40 7 -55 51 -114 75 -100 99 -122 138 -130 20 -4 40 -6 44
-5 5 2 7 -3 4 -10 -6 -18 -62 -14 -92 6 -14 9 -50 50 -81 92 -30 41 -63 80
-73 86 -15 9 -17 17 -9 54 7 33 6 49 -7 75 -38 73 -124 119 -222 119 -49 0
-83 -26 -83 -62 0 -13 -3 -48 -6 -78 -6 -49 -5 -53 8 -36 15 19 17 19 132 -2
53 -10 106 -55 106 -90 0 -12 -3 -13 -8 -5 -6 9 -11 6 -21 -8 -7 -12 -8 -18
-2 -14 6 3 11 2 11 -4 0 -18 -18 -21 -24 -4 -6 15 -8 15 -16 3 -7 -11 -10 -12
-10 -2 0 7 -4 11 -9 8 -11 -7 -21 44 -15 78 3 20 0 26 -14 26 -15 0 -18 -6
-14 -25 3 -17 -1 -27 -12 -31 -20 -8 -21 -24 -2 -24 9 0 15 -14 18 -40 5 -58
-5 -66 -35 -30 -34 39 -58 29 -76 -32 -18 -59 -73 -166 -78 -151 -3 7 4 25 15
40 23 34 57 121 49 129 -3 3 -11 -5 -18 -17 -6 -13 -20 -32 -30 -43 -20 -21
-26 -41 -9 -31 13 8 13 0 1 -23 -5 -9 -31 -64 -57 -122 -26 -58 -54 -111 -61
-118 -21 -21 -32 -46 -43 -98 -6 -27 -15 -58 -20 -69 -5 -11 -18 -53 -29 -92
l-19 -73 51 -15 c28 -8 56 -15 63 -15 12 0 71 96 108 175 11 22 29 54 42 70
29 38 41 70 69 176 12 48 33 102 47 120 14 19 36 59 51 89 14 30 38 69 52 85
13 17 39 50 56 73 30 43 31 43 51 26 11 -10 31 -42 46 -72 14 -29 48 -73 75
-98 46 -44 51 -46 95 -41 53 6 76 29 95 96 12 45 22 54 131 122 27 16 42 34
44 50 4 28 46 123 72 159 16 22 51 174 63 267 3 30 2 32 -13 18 -9 -8 -21 -15
-27 -15 -6 0 -13 -6 -16 -14 -7 -17 -83 -29 -105 -17 -13 7 -7 12 29 22 24 7
62 25 84 41 22 15 74 37 115 49 41 13 85 31 96 41 12 11 49 32 82 48 60 28 61
30 58 65 -2 20 -9 42 -16 48 -9 9 -11 8 -8 -7 2 -12 -5 -21 -21 -27 -20 -8
-22 -7 -12 5 15 18 6 36 -17 36 -29 0 -49 17 -35 31 19 19 -10 89 -60 146 -11
12 -22 36 -26 54 -8 41 -31 51 -31 13 0 -27 0 -27 -20 -9 -21 19 -21 19 10 38
22 14 28 23 21 35 -11 21 -7 47 12 75 12 19 12 26 -2 54 -18 37 -23 39 -45 17
-15 -14 -17 -14 -22 0 -3 9 -13 16 -21 16 -8 0 -12 4 -9 8 2 4 -7 9 -21 10
-28 2 -53 18 -53 34 0 6 9 8 20 5 15 -4 20 0 20 16 0 12 -4 29 -10 37 -5 9 -5
19 1 26 7 8 6 15 -2 20 -6 4 -16 0 -21 -10 -13 -23 -25 -20 -44 14 -22 36 -34
28 -70 -43 -46 -89 -30 -214 33 -273 19 -18 21 -23 8 -16 -100 51 -113 227
-28 357 16 25 20 35 9 26 -39 -33 -69 -113 -74 -198 -4 -74 -2 -88 22 -137 20
-41 36 -59 71 -77 24 -13 42 -25 40 -27 -9 -9 -87 41 -109 70 -56 74 -58 206
-6 316 27 57 64 97 82 86 4 -3 8 -3 8 0 0 3 -17 15 -39 25 l-39 20 -21 -47
-22 -47 6 50 6 50 -16 -30 c-24 -44 -28 -44 -20 -2 6 31 4 37 -9 37 -10 0 -14
-4 -11 -10 3 -5 3 -15 0 -20 -12 -19 -36 10 -29 34 6 19 9 34 13 74 0 7 6 10
11 7 6 -3 10 3 10 14 0 12 -4 21 -10 21 -5 0 -10 -5 -10 -12 0 -6 -7 -4 -18 5
-10 10 -24 17 -30 17 -7 0 -12 5 -12 10 0 6 -5 10 -11 10 -5 0 -8 -4 -4 -10 3
-5 -14 -8 -45 -7 -27 1 -50 5 -50 9 0 4 10 15 23 25 13 10 22 24 19 31 -4 14
14 16 23 2 14 -23 43 -30 59 -14 9 8 25 16 37 17 17 1 19 6 14 27 -3 14 -7 33
-8 42 -1 12 -5 14 -11 8 -7 -7 -6 -17 3 -31 9 -15 10 -24 2 -32 -8 -8 -11 -8
-11 1 0 7 -8 12 -17 13 -11 0 -13 3 -5 6 22 9 12 20 -19 20 -32 0 -51 17 -47
43 3 17 -9 40 -20 40 -4 0 -13 -4 -21 -9z m-71 -156 c0 -16 -27 -32 -37 -22
-3 4 -3 13 0 22 8 20 37 20 37 0z m75 -104 c-5 -8 -11 -9 -19 -2 -9 7 -16 7
-24 -1 -15 -15 -15 -7 -2 28 l11 28 21 -21 c11 -12 17 -26 13 -32z m94 15 c24
-38 29 -71 7 -41 -7 10 -26 20 -42 22 -37 5 -45 13 -13 13 19 0 21 2 9 10 -13
9 -13 11 0 20 8 5 16 10 17 10 1 0 11 -15 22 -34z m-2 -66 c8 -12 9 -21 3 -25
-6 -4 -13 1 -16 10 -4 9 -13 14 -21 11 -8 -4 -20 -3 -26 1 -7 4 -3 9 9 14 30
12 38 10 51 -11z m343 -326 c0 -8 -5 -12 -10 -9 -6 4 -8 11 -5 16 9 14 15 11
15 -7z m-280 -34 c0 -16 -4 -30 -10 -30 -5 0 -10 14 -10 30 0 17 5 30 10 30 6
0 10 -13 10 -30z m345 -60 c-6 -9 -9 -9 -16 1 -10 17 0 34 13 21 6 -6 7 -16 3
-22z m-688 -36 c2 -25 1 -26 -5 -6 -4 13 -10 23 -14 23 -5 -1 -19 -1 -32 -1
-15 0 -26 -7 -29 -17 -4 -14 -5 -13 -6 4 -1 17 5 23 32 26 47 6 52 3 54 -29z
m80 21 c-8 -5 -16 -17 -20 -25 -4 -10 -6 -8 -6 7 -1 12 -9 24 -18 26 -10 3 -1
4 20 3 27 -1 34 -4 24 -11z m36 -72 c-6 -118 -8 -123 -46 -122 -27 2 -28 2 -7
6 14 3 28 8 32 11 4 4 8 46 9 95 2 48 6 87 9 87 4 0 5 -35 3 -77z m60 -10 c-6
-109 -12 -115 -11 -10 0 48 4 87 8 87 4 0 5 -35 3 -77z m-146 -15 c-2 -18 -4
-6 -4 27 0 33 2 48 4 33 2 -15 2 -42 0 -60z m53 7 c0 -65 -2 -75 -17 -74 -11
0 -13 3 -5 6 8 3 12 28 12 74 0 38 2 69 5 69 3 0 5 -34 5 -75z m57 -37 c-2
-24 -4 -7 -4 37 0 44 2 63 4 43 2 -21 2 -57 0 -80z m90 80 c-3 -7 -5 -2 -5 12
0 14 2 19 5 13 2 -7 2 -19 0 -25z m-249 -2 c5 -22 -19 -40 -30 -23 -4 7 -8 20
-8 30 0 25 34 18 38 -7z m279 -58 c-2 -13 -4 -5 -4 17 -1 22 1 32 4 23 2 -10
2 -28 0 -40z m113 22 c33 -17 40 -25 39 -48 -2 -26 -2 -26 -6 -2 -2 15 -15 30
-30 38 -39 18 -53 15 -54 -10 -1 -18 -2 -19 -6 -5 -5 19 2 47 12 47 3 0 24 -9
45 -20z m-382 -48 c2 -15 -2 -22 -12 -22 -9 0 -16 8 -16 18 0 14 2 15 10 2 8
-13 10 -13 10 2 0 9 -8 19 -17 22 -14 4 -14 4 2 3 12 -1 21 -11 23 -25z m393
-6 c9 -19 9 -19 -4 -3 -19 23 -31 22 -24 -3 3 -11 1 -18 -4 -14 -5 3 -9 16 -9
29 0 30 25 24 41 -9z m-364 -31 c-4 -8 -12 -15 -19 -14 -10 0 -10 2 0 6 6 2
12 12 12 21 0 8 3 13 6 9 4 -3 4 -13 1 -22z m203 15 c0 -5 -7 -7 -15 -4 -8 4
-15 8 -15 10 0 2 7 4 15 4 8 0 15 -4 15 -10z m139 -39 c-6 -2 -18 4 -27 13
-15 15 -15 15 10 4 15 -7 23 -15 17 -17z m-388 1 c-7 -2 -18 1 -23 6 -8 8 -4
9 13 5 13 -4 18 -8 10 -11z m457 -13 c-3 -8 -7 -3 -11 10 -4 17 -3 21 5 13 5
-5 8 -16 6 -23z m-262 3 c-10 -2 -22 0 -28 6 -6 6 0 7 19 4 21 -5 23 -7 9 -10z
m99 -20 c-3 -3 -11 0 -18 7 -9 10 -8 11 6 5 10 -3 15 -9 12 -12z m-179 -8 c54
-22 74 -50 74 -104 0 -35 -5 -48 -21 -58 -12 -7 -23 -11 -26 -8 -3 2 4 11 16
18 30 19 29 87 -1 115 -58 52 -120 45 -98 -11 10 -27 26 -34 32 -15 5 15 38
-1 38 -19 0 -9 -11 -25 -24 -37 -16 -14 -26 -35 -30 -66 l-5 -47 64 -16 c80
-20 75 -20 76 7 l2 22 4 -23 c5 -28 27 -24 31 6 3 17 10 22 33 22 29 0 30 2
24 30 -6 26 -4 30 14 30 12 0 21 6 21 15 0 8 -7 15 -15 15 -8 0 -15 -4 -15
-10 0 -5 -15 -10 -34 -10 -27 0 -36 5 -41 21 -20 62 73 102 145 63 33 -18 36
-23 49 -99 7 -44 15 -82 17 -84 2 -2 33 5 69 14 57 16 68 16 76 4 17 -27 5
-52 -31 -64 -34 -11 -55 -45 -28 -45 10 0 9 -3 -2 -10 -10 -6 -22 -4 -37 5
-28 19 -33 19 -33 -1 0 -9 -5 -12 -11 -8 -7 4 -10 1 -7 -7 3 -8 -3 -30 -13
-50 -13 -27 -29 -40 -64 -53 -25 -10 -49 -15 -52 -12 -3 3 -12 -2 -19 -12 -7
-9 -21 -17 -31 -17 -10 0 -18 -6 -18 -12 0 -7 -4 -13 -10 -13 -25 0 -8 36 21
45 17 6 37 15 45 22 8 6 25 13 38 15 27 3 42 28 17 28 -9 0 -43 -13 -75 -30
-49 -24 -61 -27 -70 -16 -9 11 2 19 54 42 67 29 76 38 50 48 -8 3 -15 2 -15
-2 0 -4 -15 -13 -32 -21 -18 -7 -46 -20 -62 -27 -16 -8 -39 -14 -51 -14 -14 0
-25 -8 -28 -20 -6 -24 -27 -27 -27 -4 0 14 22 44 34 44 2 0 37 15 77 34 40 19
79 32 88 29 13 -5 13 -3 -2 13 -16 18 -18 18 -48 0 -17 -10 -39 -16 -49 -13
-11 3 -24 -1 -31 -9 -6 -8 -21 -14 -32 -14 -11 0 -26 -8 -33 -17 -7 -10 -16
-15 -19 -11 -15 14 5 38 45 54 26 11 40 22 40 35 0 10 8 22 17 27 13 8 10 11
-18 17 -19 4 -51 12 -71 17 -38 11 -38 12 -38 62 0 45 3 54 32 78 18 14 29 30
25 34 -4 5 -12 2 -16 -5 -7 -10 -13 -10 -29 -2 -25 13 -38 66 -22 86 15 19 19
19 66 -1z m612 -25 c23 -22 42 -47 42 -55 0 -8 1 -17 3 -20 1 -3 -19 -14 -45
-24 l-48 -18 0 31 c-1 18 -2 53 -4 80 -2 26 -1 47 3 47 3 0 25 -19 49 -41z
m-584 -155 c23 -9 20 -23 -4 -17 -11 3 -20 9 -20 14 0 11 3 11 24 3z m709 -1
c-7 -2 -19 -2 -25 0 -7 3 -2 5 12 5 14 0 19 -2 13 -5z m-787 -100 c-7 -7 -26
7 -26 19 0 6 6 6 15 -2 9 -7 13 -15 11 -17z m124 -208 c0 -8 -7 -15 -15 -15
-8 0 -15 7 -15 15 0 8 7 15 15 15 8 0 15 -7 15 -15z m-220 -14 c0 -20 -13 -41
-24 -41 -10 0 -14 27 -7 48 3 7 31 1 31 -7z"/>
<path d="M1510 2535 c0 -8 5 -15 10 -15 6 0 10 7 10 15 0 8 -4 15 -10 15 -5 0
-10 -7 -10 -15z"/>
<path d="M1780 2275 c-18 -22 -3 -55 26 -55 13 0 24 5 24 10 0 16 47 11 54 -6
8 -20 -1 -34 -20 -34 -16 0 -20 -29 -4 -31 6 -1 16 -2 23 -3 6 0 13 -11 15
-23 3 -19 -1 -23 -22 -23 -14 0 -26 5 -26 10 0 6 -14 10 -31 10 -24 0 -30 -4
-27 -17 4 -22 82 -38 134 -28 36 6 36 7 30 43 -4 20 -9 57 -12 82 -8 65 -26
80 -94 80 -38 0 -62 -5 -70 -15z"/>
<path d="M1853 2137 c5 -15 37 -22 37 -9 0 5 -9 12 -21 15 -13 3 -19 1 -16 -6z"/>
<path d="M2025 2100 c-9 -15 45 -24 58 -10 9 10 9 11 0 6 -6 -3 -14 -2 -18 4
-8 13 -32 13 -40 0z"/>
<path d="M1570 3179 c0 -5 5 -7 10 -4 6 3 10 8 10 11 0 2 -4 4 -10 4 -5 0 -10
-5 -10 -11z"/>
<path d="M1887 3175 c8 -23 33 -51 33 -37 0 5 -9 20 -20 33 -17 21 -19 21 -13
4z"/>
<path d="M1020 2505 c-10 -13 -9 -15 9 -15 12 0 21 6 21 15 0 8 -4 15 -9 15
-5 0 -14 -7 -21 -15z"/>
<path d="M928 2465 c-16 -13 -24 -26 -20 -29 4 -2 19 6 34 19 16 13 24 26 20
29 -4 2 -19 -6 -34 -19z"/>
<path d="M1220 2461 c0 -5 5 -13 10 -16 6 -3 10 -2 10 4 0 5 -4 13 -10 16 -5
3 -10 2 -10 -4z"/>
<path d="M1090 2420 c0 -5 5 -10 10 -10 6 0 10 5 10 10 0 6 -4 10 -10 10 -5 0
-10 -4 -10 -10z"/>
<path d="M2380 2426 c0 -11 53 -96 57 -92 7 7 -18 80 -31 88 -12 8 -26 10 -26
4z"/>
<path d="M861 2373 c-10 -26 -10 -27 4 -9 8 11 15 23 15 28 0 15 -7 8 -19 -19z"/>
<path d="M1111 2375 c-1 -22 -50 -107 -51 -89 0 19 -39 24 -55 7 -8 -8 -15
-11 -15 -6 -1 4 -10 -3 -20 -16 -13 -14 -20 -18 -21 -10 0 8 -4 5 -9 -6 -8
-19 -9 -19 -9 -1 -1 17 -3 16 -20 -5 -10 -13 -23 -37 -29 -54 l-12 -30 6 35
c8 40 39 92 80 134 23 23 24 27 7 18 -54 -29 -111 -129 -99 -175 9 -35 65 -96
109 -119 55 -28 151 -35 199 -14 43 19 103 75 110 104 6 20 5 20 -18 5 -23
-15 -24 -14 -24 6 0 12 -4 19 -10 16 -6 -4 -10 11 -11 37 -1 24 -5 54 -9 68
-6 20 -8 14 -9 -28 -1 -33 -5 -51 -11 -47 -5 3 -10 16 -10 28 0 18 -5 22 -27
21 -35 -1 -59 37 -42 67 6 11 8 32 6 47 -3 18 -5 20 -6 7z m-70 -108 c-10 -9
-11 -8 -5 6 3 10 9 15 12 12 3 -3 0 -11 -7 -18z"/>
<path d="M1055 2310 c3 -5 8 -10 11 -10 2 0 4 5 4 10 0 6 -5 10 -11 10 -5 0
-7 -4 -4 -10z"/>
<path d="M1331 1502 l-24 -24 24 7 c30 9 31 11 27 28 -2 10 -9 7 -27 -11z"/>
<path d="M1925 1360 c-3 -5 -2 -10 4 -10 5 0 13 5 16 10 3 6 2 10 -4 10 -5 0
-13 -4 -16 -10z"/>
<path d="M1561 1322 c-24 -36 -31 -72 -46 -254 -5 -52 -3 -59 18 -73 14 -8 30
-14 38 -12 8 2 11 2 6 0 -17 -10 7 -23 42 -23 23 0 48 -8 64 -20 32 -26 79
-26 102 0 18 20 18 20 -16 13 l-34 -6 38 41 c27 31 37 51 37 75 0 18 5 38 12
45 9 9 7 17 -10 35 -41 43 -19 87 23 47 13 -12 26 -33 29 -46 9 -36 26 -29 20
9 -9 49 -39 70 -91 62 -30 -4 -53 -1 -78 11 -38 18 -115 98 -115 120 0 24 -14
15 -39 -24z m207 -214 c3 -37 -2 -35 -12 5 -3 15 -3 27 2 27 4 0 9 -14 10 -32z"/>
<path d="M1826 1006 c-11 -31 -17 -59 -14 -62 9 -8 40 81 36 101 -1 10 -11 -7
-22 -39z"/>
<path d="M1842 925 c-6 -22 -14 -52 -17 -68 -6 -31 -76 -87 -109 -87 -12 1
-32 7 -45 14 -14 8 -31 12 -38 9 -9 -4 -11 0 -7 11 3 9 1 16 -5 16 -17 0 -13
-72 5 -98 25 -36 53 -42 91 -20 71 42 151 179 141 240 -3 19 -6 15 -16 -17z"/>
<path d="M827 239 c-41 -16 -32 -43 17 -47 21 -2 43 1 49 7 14 14 77 14 77 1
0 -5 11 -10 25 -10 20 0 25 5 25 25 0 23 -3 24 -52 24 -29 -1 -66 1 -83 4 -16
4 -43 1 -58 -4z m64 -32 c-16 -16 -25 -1 -10 16 8 8 16 11 18 5 2 -5 -2 -15
-8 -21z"/>
<path d="M870 141 c-33 -6 -34 -7 -10 -14 14 -4 52 -6 85 -6 59 1 59 1 30 14
-32 15 -50 16 -105 6z"/>
</g>
</svg>
