<?xml version="1.0" standalone="no"?>
<!DOCTYPE svg PUBLIC "-//W3C//DTD SVG 20010904//EN"
 "http://www.w3.org/TR/2001/REC-SVG-20010904/DTD/svg10.dtd">
<svg version="1.0" xmlns="http://www.w3.org/2000/svg"
 width="920.000000pt" height="782.000000pt" viewBox="0 0 920.000000 782.000000"
 preserveAspectRatio="xMidYMid meet">

<g transform="translate(0.000000,782.000000) scale(0.100000,-0.100000)"
fill="#000000" stroke="none">
<path d="M4122 7792 c-12 -2 -20 -7 -17 -12 3 -4 -3 -7 -12 -6 -17 3 -26 -3
-63 -36 -11 -9 -28 -15 -40 -13 -11 2 -18 0 -15 -6 4 -5 12 -6 18 -2 7 3 -3
-9 -20 -27 -38 -39 -39 -43 -16 -61 11 -9 14 -10 9 -2 -5 9 -2 11 10 6 14 -5
14 -7 1 -15 -9 -4 -18 -22 -22 -38 -4 -17 -10 -30 -15 -30 -4 0 -10 -10 -14
-23 -6 -25 -42 -32 -50 -10 -3 7 -1 13 5 13 6 0 7 5 4 10 -3 6 1 17 9 26 9 8
16 20 16 25 0 5 -9 0 -21 -12 -11 -11 -29 -19 -38 -16 -13 3 -24 -10 -45 -57
-33 -71 -66 -194 -68 -253 -2 -38 -4 -41 -18 -28 -19 17 -40 20 -40 5 0 -5 4
-10 9 -10 17 0 41 -31 41 -52 0 -17 -2 -18 -15 -8 -13 10 -15 9 -15 -8 0 -12
-4 -23 -9 -27 -10 -6 -7 27 4 45 4 6 1 18 -7 27 -11 14 -14 8 -19 -43 -3 -32
-2 -64 3 -70 4 -6 5 -13 2 -17 -8 -7 15 -50 32 -60 21 -12 17 -25 -8 -29 l-23
-3 27 -25 c24 -24 25 -29 17 -70 -6 -25 -10 -49 -10 -55 0 -18 19 -109 27
-130 4 -12 3 -17 -2 -12 -5 5 -16 37 -24 71 l-15 63 -62 -43 -61 -42 50 -56
50 -56 18 22 c19 23 19 23 33 3 35 -46 147 -362 196 -552 10 -39 22 -76 26
-82 11 -18 26 -1 20 22 -13 45 35 -26 92 -138 86 -170 87 -205 2 -205 -21 0
-39 -4 -39 -10 0 -14 57 -12 112 4 58 18 88 34 88 47 0 5 -14 2 -31 -6 -50
-26 -46 -9 13 53 60 63 75 98 116 282 52 230 160 587 193 635 3 6 9 24 13 40
23 97 27 106 45 100 25 -8 68 45 76 93 4 20 13 55 21 77 26 73 14 134 -21 105
-25 -21 -33 -3 -23 52 25 146 3 338 -46 410 -22 33 -50 50 -40 25 3 -8 0 -18
-5 -22 -6 -3 -9 -11 -5 -16 3 -5 10 -6 16 -3 7 5 8 2 4 -5 -6 -9 -12 -8 -26 4
-17 15 -18 15 -17 -16 2 -24 -3 -34 -15 -37 -12 -2 -18 3 -19 15 0 10 -3 13
-6 6 -2 -7 -13 -13 -24 -13 -10 0 -19 -4 -19 -10 0 -6 3 -9 8 -9 23 4 41 -3
46 -17 5 -12 2 -15 -10 -10 -9 4 -27 0 -40 -9 -17 -11 -24 -12 -27 -2 -3 6 -4
2 -4 -10 1 -13 6 -23 11 -23 5 0 6 -3 3 -7 -10 -10 -47 28 -47 48 0 9 -5 19
-12 21 -6 2 -11 18 -11 36 0 17 -3 31 -6 30 -38 -4 -52 10 -65 66 -6 24 -5 28
6 20 8 -5 6 -1 -4 8 -10 9 -14 19 -9 22 5 4 11 2 13 -3 1 -6 13 -2 26 7 15 12
21 24 16 35 -6 16 -7 16 -18 1 -10 -13 -14 -13 -23 -2 -14 18 -12 48 4 48 17
0 17 36 1 39 -26 4 -134 6 -156 3z m-98 -114 c-3 -5 -9 -6 -14 -3 -4 3 -13 -2
-20 -10 -13 -16 -30 -20 -30 -7 0 8 39 27 57 28 7 0 10 -3 7 -8z m-31 -98 c-3
-11 -9 -20 -14 -20 -10 0 -12 24 -2 33 13 13 21 7 16 -13z m534 -72 c-3 -8 -6
-5 -6 6 -1 11 2 17 5 13 3 -3 4 -12 1 -19z m-617 -28 c0 -5 -4 -10 -10 -10 -5
0 -10 5 -10 10 0 6 5 10 10 10 6 0 10 -4 10 -10z m14 -65 c-4 -8 -8 -15 -10
-15 -2 0 -4 7 -4 15 0 8 4 15 10 15 5 0 7 -7 4 -15z m526 -90 c0 -22 -27 -30
-47 -14 -14 13 -13 15 13 20 16 4 30 7 32 8 1 0 2 -6 2 -14z m-474 -144 c-3
-5 -16 -11 -28 -14 -22 -6 -22 -5 -4 8 22 17 40 20 32 6z m-26 -76 c0 -5 -5
-3 -10 5 -5 8 -10 20 -10 25 0 6 5 3 10 -5 5 -8 10 -19 10 -25z m70 4 c-7 -11
-14 -19 -16 -16 -7 7 7 37 17 37 6 0 5 -9 -1 -21z m134 -77 c-8 -91 -35 -178
-53 -174 -9 2 -11 -5 -6 -20 6 -21 4 -21 -17 5 -13 15 -29 27 -36 27 -7 0 -12
5 -12 10 0 14 23 13 38 -2 9 -9 12 -7 12 13 0 13 5 31 10 39 6 10 4 20 -7 33
-19 21 -27 50 -10 40 6 -4 8 0 4 10 -3 9 1 21 11 29 15 12 16 11 3 -4 -8 -11
-9 -18 -3 -18 7 0 21 22 33 50 29 69 42 54 33 -38z m235 42 c-15 -18 -22 -13
-13 10 3 9 10 13 16 10 5 -3 4 -12 -3 -20z m-652 -6 c-3 -8 -6 -5 -6 6 -1 11
2 17 5 13 3 -3 4 -12 1 -19z m146 -8 c21 -25 21 -34 0 -51 -15 -13 -15 -12 -3
11 l13 25 -22 -19 c-13 -12 -21 -14 -21 -7 0 7 -4 10 -9 6 -19 -11 -21 15 -4
34 23 25 25 25 46 1z m-159 -25 c3 -8 1 -15 -3 -15 -5 0 -11 7 -15 15 -3 8 -1
15 3 15 5 0 11 -7 15 -15z m446 -105 c0 -5 -2 -10 -4 -10 -3 0 -8 5 -11 10 -3
6 -1 10 4 10 6 0 11 -4 11 -10z m440 -51 c0 -6 -4 -7 -10 -4 -5 3 -10 11 -10
16 0 6 5 7 10 4 6 -3 10 -11 10 -16z m-546 -90 c-3 -5 -11 -9 -19 -9 -8 0 -16
4 -19 9 -3 5 5 9 19 9 14 0 22 -4 19 -9z m-83 -52 c-10 -9 -11 -8 -5 6 3 10 9
15 12 12 3 -3 0 -11 -7 -18z m69 -61 c0 -2 -7 -7 -16 -10 -8 -3 -12 -2 -9 4 6
10 25 14 25 6z m25 -140 c25 -21 94 -41 93 -26 -2 20 4 30 12 25 6 -4 17 -2
24 4 17 14 46 4 46 -15 0 -20 -50 -117 -56 -111 -3 3 0 15 6 27 11 21 11 21
-17 4 -37 -23 -42 -29 -20 -21 9 4 17 3 17 -2 0 -14 -52 -20 -79 -9 -27 9
-111 93 -111 109 0 5 5 9 10 9 6 0 10 7 10 15 0 23 33 18 65 -9z"/>
<path d="M4070 6986 c0 -2 7 -9 15 -16 13 -11 14 -10 9 4 -5 14 -24 23 -24 12z"/>
<path d="M4090 6436 c7 -7 14 -6 21 1 9 9 7 12 -9 10 -14 -1 -18 -5 -12 -11z"/>
<path d="M4450 7701 c0 -6 5 -11 11 -11 5 0 7 -4 4 -10 -3 -6 1 -7 10 -4 9 4
15 7 13 8 -2 1 -11 8 -20 15 -12 9 -18 10 -18 2z"/>
<path d="M3910 7669 c0 -5 5 -7 10 -4 6 3 10 8 10 11 0 2 -4 4 -10 4 -5 0 -10
-5 -10 -11z"/>
<path d="M4347 7654 c-3 -5 1 -15 9 -22 16 -14 18 -5 5 17 -5 7 -11 9 -14 5z"/>
<path d="M3910 7635 c-18 -21 -3 -32 16 -13 10 9 12 18 6 22 -5 3 -15 -1 -22
-9z"/>
<path d="M3846 7593 c-6 -14 -5 -15 5 -6 7 7 10 15 7 18 -3 3 -9 -2 -12 -12z"/>
<path d="M3660 7030 c0 -5 5 -10 11 -10 5 0 7 5 4 10 -3 6 -8 10 -11 10 -2 0
-4 -4 -4 -10z"/>
<path d="M4590 6811 c0 -5 16 -28 35 -51 37 -44 50 -85 19 -59 -15 12 -16 11
-11 -6 4 -11 14 -76 23 -145 15 -109 15 -144 5 -279 -14 -173 -44 -471 -62
-607 -12 -94 -9 -117 32 -262 11 -42 11 -44 -20 -75 -25 -27 -28 -33 -13 -34
9 -1 55 -10 102 -21 47 -11 150 -30 230 -42 135 -21 180 -30 319 -64 51 -13
55 -13 89 10 19 13 41 24 49 24 19 0 28 -29 13 -43 -10 -9 -11 -9 -6 3 4 9 1
8 -7 -3 -8 -10 -32 -20 -53 -22 -71 -8 -178 -146 -232 -297 -23 -65 -26 -88
-26 -213 -1 -128 1 -147 27 -222 56 -164 176 -303 321 -373 106 -51 159 -63
286 -63 181 1 322 63 448 197 71 77 111 144 148 251 46 132 38 323 -18 457
-21 48 -46 68 -59 46 -4 -7 -11 -10 -14 -7 -11 12 -13 49 -3 55 7 5 9 0 6 -14
-4 -12 -2 -22 3 -22 5 0 9 8 9 18 0 14 2 15 10 2 6 -9 10 -10 10 -3 0 16 -30
31 -53 28 -9 -2 -22 5 -27 15 -8 15 -18 18 -45 13 -21 -3 -41 -1 -50 7 -22 19
-30 5 -11 -21 11 -17 13 -26 4 -36 -7 -9 -7 -17 1 -26 8 -10 7 -17 -1 -25 -6
-6 -9 -15 -5 -19 9 -8 30 12 33 32 1 8 -3 13 -8 12 -6 -1 -13 4 -16 12 -3 9 0
11 8 6 9 -5 11 -4 6 3 -4 7 -2 12 4 12 7 0 10 7 6 18 -5 14 -4 14 9 -2 11 -14
12 -22 4 -27 -8 -5 -7 -16 4 -39 15 -30 15 -31 0 -19 -15 12 -16 11 -10 -10 4
-17 3 -21 -5 -13 -6 6 -17 8 -24 5 -8 -3 -17 2 -20 11 -3 9 -11 13 -17 9 -5
-3 -7 -1 -4 5 4 5 4 18 1 27 -5 11 -9 13 -14 5 -4 -6 -7 2 -8 18 -1 30 9 35
36 18 11 -7 11 -4 0 13 -7 12 -14 17 -16 11 -2 -6 -8 -7 -14 -4 -5 3 -12 -3
-15 -15 -4 -18 -13 -10 -53 48 -94 134 -266 256 -352 249 -39 -2 -69 14 -49
26 6 4 11 4 11 -1 0 -4 55 -8 123 -8 115 0 125 -2 169 -28 26 -15 56 -44 68
-64 11 -19 24 -33 27 -30 3 4 0 13 -7 22 -11 13 -10 14 4 9 9 -3 16 -17 16
-30 0 -26 18 -31 51 -14 29 16 23 40 -11 47 -29 5 -60 35 -60 58 0 19 79 5 91
-16 5 -11 8 -23 5 -28 -3 -4 8 -21 25 -37 16 -16 44 -51 62 -79 17 -27 35 -52
39 -53 5 -2 6 -7 4 -11 -3 -4 1 -8 9 -8 8 0 13 3 10 5 -3 3 4 12 15 19 18 13
23 12 46 -6 32 -25 50 -27 58 -5 5 13 2 15 -14 11 -16 -4 -22 2 -30 32 -10 40
-79 127 -79 101 0 -8 6 -24 14 -34 8 -11 14 -34 14 -50 -1 -19 -3 -24 -6 -13
-4 14 -11 17 -28 13 -18 -5 -28 0 -43 21 -10 16 -22 36 -26 47 -6 17 -5 17 16
4 29 -18 54 -13 37 8 -6 7 -9 21 -5 29 3 9 0 15 -8 15 -18 0 -46 33 -46 53 0
19 -48 47 -80 47 -24 0 -25 -8 -3 -32 15 -17 15 -18 -6 -18 -12 0 -24 8 -28
18 -3 9 -20 32 -37 50 -24 26 -26 32 -11 26 11 -4 28 -14 38 -22 9 -8 17 -10
17 -5 0 14 -80 54 -92 47 -17 -11 -60 6 -55 21 3 7 -1 19 -8 25 -18 15 -128
25 -152 15 -10 -5 -40 -10 -67 -12 -27 -1 -64 -7 -82 -12 -21 -6 -36 -6 -40 0
-3 5 -18 9 -35 9 -16 0 -29 5 -29 10 0 6 -9 10 -19 10 -10 0 -38 9 -62 19 -24
11 -47 17 -51 15 -4 -3 -8 0 -8 5 0 6 -3 10 -7 10 -23 -4 -32 3 -26 19 3 9 3
14 -2 10 -4 -4 -21 4 -37 17 -16 14 -42 28 -56 31 -26 7 -103 60 -110 76 -6
12 -30 9 -34 -4 -5 -13 -94 80 -91 94 2 4 -2 8 -7 8 -6 0 -10 6 -10 14 0 7 -6
19 -14 25 -8 7 -20 32 -28 58 -7 25 -19 48 -25 50 -7 3 -13 10 -13 17 0 6 -9
17 -20 24 -16 10 -20 23 -20 70 0 49 7 71 39 133 43 82 84 215 102 329 17 112
-1 243 -32 225 -4 -3 -17 3 -29 15 -11 11 -25 20 -32 20 -6 0 -31 11 -55 25
-23 14 -43 24 -43 21 0 -3 -19 6 -42 19 -32 18 -47 21 -65 14 -16 -6 -22 -5
-18 1 3 6 -1 10 -9 10 -9 0 -16 -4 -16 -9z m130 -1001 c0 -5 -5 -10 -11 -10
-5 0 -7 5 -4 10 3 6 8 10 11 10 2 0 4 -4 4 -10z m-30 -33 c0 -2 -16 -18 -35
-37 -19 -19 -35 -31 -35 -27 0 3 15 20 33 36 31 30 37 34 37 28z m1100 -347
c0 -5 -5 -10 -11 -10 -5 0 -7 5 -4 10 3 6 8 10 11 10 2 0 4 -4 4 -10z m-245
-51 l20 -21 -25 6 c-23 7 -24 6 -7 -8 18 -14 17 -15 -10 -18 -21 -2 -28 -8
-29 -26 -1 -13 -8 -31 -17 -39 -14 -14 -15 -14 -14 2 1 10 -8 21 -20 26 -19 7
-25 4 -38 -21 -19 -37 -28 -39 -15 -4 6 14 8 29 5 34 -7 11 43 62 54 55 5 -3
13 0 17 6 5 8 -4 10 -30 7 -20 -2 -36 -3 -36 -1 0 2 15 10 33 18 40 18 86 11
112 -16z m205 -26 c0 -13 -3 -13 -15 -3 -8 7 -15 16 -15 21 0 5 7 6 15 3 8 -4
15 -13 15 -21z m-65 7 c3 -5 -15 -7 -47 -3 -70 8 -74 13 -10 13 28 0 53 -4 57
-10z m-50 -29 c15 -7 11 -9 -17 -9 -21 0 -38 4 -38 9 0 11 28 11 55 0z m-125
-91 c-14 -11 -28 -20 -31 -20 -3 0 -11 -10 -17 -22 -10 -21 -11 -22 -11 -3 0
12 13 29 32 43 39 27 62 29 27 2z m165 -12 c115 -45 267 -216 340 -383 34 -75
27 -81 -10 -7 -35 70 -60 104 -70 94 -5 -4 -5 -2 -2 5 4 6 0 18 -8 26 -8 9
-15 18 -15 20 0 3 -14 20 -32 38 -17 19 -28 28 -24 22 5 -9 1 -13 -11 -13 -11
0 -14 -3 -7 -8 16 -11 24 -41 14 -47 -6 -4 -10 -11 -10 -17 0 -7 5 -6 15 2 10
8 13 21 8 39 -3 15 -2 22 3 18 5 -5 10 -21 10 -35 2 -38 5 -40 14 -12 8 25 8
25 9 2 1 -13 5 -21 9 -18 4 2 8 -6 8 -19 0 -13 -4 -21 -8 -19 -5 3 -6 9 -3 14
3 5 1 11 -5 15 -5 3 -10 1 -10 -6 0 -8 -5 -6 -13 5 -12 16 -14 16 -31 -3 -20
-22 -9 -30 11 -10 9 9 11 8 10 -2 -2 -8 -6 -19 -10 -26 -4 -6 -3 -14 2 -17 5
-4 11 -3 14 1 2 5 2 2 1 -4 -2 -7 0 -13 4 -13 5 0 8 -12 8 -26 0 -22 -2 -23
-11 -10 -7 9 -16 12 -21 8 -4 -4 -3 0 4 9 10 13 9 19 -5 30 -15 12 -16 12 -10
-3 3 -10 1 -20 -5 -24 -7 -5 -8 -2 -3 6 6 9 4 11 -4 6 -7 -5 -10 -15 -7 -25 5
-13 3 -12 -8 2 -22 29 -58 14 -50 -21 4 -21 3 -24 -5 -12 -9 12 -11 10 -12
-10 0 -23 -1 -23 -9 -5 -7 17 -9 17 -9 2 -1 -9 -5 -16 -10 -15 -5 2 -9 -1 -9
-7 0 -5 3 -9 7 -8 4 1 8 -5 8 -13 0 -9 -4 -11 -10 -5 -12 12 -49 2 -40 -12 3
-5 2 -7 -4 -4 -5 3 -9 22 -8 41 1 21 -2 34 -9 33 -6 -1 -10 3 -9 10 2 7 -4 10
-13 6 -12 -5 -12 -8 6 -20 16 -11 18 -18 10 -34 -6 -10 -8 -19 -4 -19 3 0 1
-6 -5 -14 -9 -10 -7 -17 6 -27 15 -12 16 -12 9 6 -5 15 -4 17 5 8 9 -9 7 -18
-10 -39 -11 -15 -21 -22 -21 -16 0 6 5 14 10 17 8 5 7 11 -1 21 -6 7 -15 11
-20 8 -5 -3 -9 -1 -9 4 0 6 7 13 16 16 14 5 14 9 3 23 -8 9 -9 14 -2 10 13 -8
12 18 -2 30 -4 4 -5 3 -1 -4 3 -6 1 -15 -5 -18 -5 -4 -8 -13 -5 -21 3 -8 3
-14 0 -14 -2 0 -9 10 -14 23 -22 55 -7 -17 20 -98 16 -49 28 -90 26 -92 -6 -6
-64 167 -100 297 -41 152 -61 248 -53 257 4 3 9 -13 13 -36 4 -22 10 -41 14
-41 4 0 6 -12 4 -27 -4 -28 -4 -28 5 -3 4 14 5 32 0 39 -4 8 -3 26 2 39 6 15
5 21 -1 17 -14 -9 -12 9 3 24 10 10 8 11 -7 5 -16 -6 -18 -4 -14 19 3 15 1 24
-3 21 -5 -3 -10 -15 -10 -27 -1 -18 -2 -18 -6 -4 -6 22 41 85 70 96 22 8 55 2
112 -21z m-222 -122 c3 -32 4 -56 1 -53 -8 7 -22 106 -16 112 8 8 9 5 15 -59z
m45 -201 c17 -66 38 -140 46 -164 24 -67 18 -82 -10 -22 -20 44 -27 51 -38 42
-11 -9 -16 -9 -22 0 -4 8 -3 9 4 5 8 -5 10 -1 5 9 -4 12 -8 13 -13 4 -11 -17
-5 -45 10 -41 6 1 8 -3 5 -9 -5 -8 -10 -8 -18 0 -8 8 -16 6 -28 -5 -12 -10
-19 -12 -24 -4 -3 6 -3 10 2 9 19 -3 22 2 13 26 -12 31 -3 33 10 3 8 -21 9
-20 8 8 -2 22 -6 30 -15 27 -7 -3 -13 1 -14 8 0 8 -3 27 -5 43 -5 27 -4 28 13
15 16 -13 17 -12 4 3 -7 10 -14 31 -16 46 -1 16 -5 35 -10 42 -5 9 -4 11 3 6
7 -4 13 -1 13 8 3 29 4 34 12 43 5 4 7 3 5 -3 -1 -7 2 -11 7 -10 6 0 10 11 9
24 -1 43 14 6 44 -113z m652 65 c0 -5 -4 -10 -9 -10 -6 0 -13 5 -16 10 -3 6 1
10 9 10 9 0 16 -4 16 -10z m47 -15 c0 -8 -4 -15 -9 -15 -10 0 -11 14 -1 23 9
10 10 9 10 -8z m-13 -40 c-4 -8 -11 -15 -16 -15 -6 0 -5 6 2 15 7 8 14 15 16
15 2 0 1 -7 -2 -15z m-779 -56 c0 -16 -3 -29 -7 -29 -5 0 -7 15 -5 34 2 41 12
37 12 -5z m515 35 c0 -8 -19 -13 -24 -6 -3 5 1 9 9 9 8 0 15 -2 15 -3z m14
-52 c3 -5 -1 -9 -9 -9 -8 0 -12 4 -9 9 3 4 7 8 9 8 2 0 6 -4 9 -8z m-532 -54
c-8 -8 -9 -4 -5 13 4 13 8 18 11 10 2 -7 -1 -18 -6 -23z m433 3 c-15 -25 -43
-31 -56 -13 -12 15 -12 16 2 5 13 -10 19 -9 35 6 20 19 31 20 19 2z m86 2 c23
6 23 5 5 -8 -28 -21 -41 -19 -43 7 -2 16 0 19 6 9 6 -9 18 -12 32 -8z m-544
-28 c0 -8 -4 -12 -9 -9 -5 3 -6 10 -3 15 9 13 12 11 12 -6z m386 -16 c-8 -8
-13 -7 -18 2 -5 8 -4 10 3 5 7 -4 12 -2 12 5 0 7 3 9 7 6 4 -4 2 -12 -4 -18z
m104 15 c-4 -4 -46 -24 -94 -45 l-88 -38 2 -43 c1 -37 0 -40 -8 -18 -22 56
-11 71 86 111 87 37 115 46 102 33z m187 -9 c3 -8 1 -15 -4 -15 -6 0 -10 7
-10 15 0 8 2 15 4 15 2 0 6 -7 10 -15z m-548 -34 c-9 -10 -13 -21 -9 -26 5 -4
2 -5 -5 -1 -11 7 -10 11 2 25 9 10 13 21 9 26 -5 4 -2 5 5 1 11 -7 10 -11 -2
-25z m427 22 c-7 -2 -21 -2 -30 0 -10 3 -4 5 12 5 17 0 24 -2 18 -5z m-90 -37
c-10 -13 -20 -22 -22 -20 -4 4 29 44 36 44 2 0 -4 -11 -14 -24z m225 -1 c-3
-3 -9 2 -12 12 -6 14 -5 15 5 6 7 -7 10 -15 7 -18z m-547 -8 c-10 -9 -11 -8
-5 6 3 10 9 15 12 12 3 -3 0 -11 -7 -18z m484 13 c-3 -5 -10 -10 -16 -10 -5 0
-9 5 -9 10 0 6 7 10 16 10 8 0 12 -4 9 -10z m-418 -112 c-3 -8 -6 -5 -6 6 -1
11 2 17 5 13 3 -3 4 -12 1 -19z m367 -516 c3 -5 -1 -9 -9 -9 -8 0 -12 4 -9 9
3 4 7 8 9 8 2 0 6 -4 9 -8z m11 -31 c3 -5 2 -12 -3 -15 -5 -3 -9 1 -9 9 0 17
3 19 12 6z m-120 -40 c-3 -12 -14 -21 -23 -20 -11 0 -12 3 -4 6 6 2 12 16 12
31 0 19 3 23 11 15 6 -6 8 -20 4 -32z m-290 -9 c-3 -3 -11 0 -18 7 -9 10 -8
11 6 5 10 -3 15 -9 12 -12z m245 -12 c0 -5 -12 -10 -27 -9 l-28 1 25 8 c14 4
26 8 28 9 1 1 2 -3 2 -9z"/>
<path d="M5671 5051 c-12 -8 -12 -11 1 -24 8 -9 21 -29 28 -46 13 -34 17 -36
40 -21 12 8 11 15 -8 54 -22 46 -35 54 -61 37z"/>
<path d="M5824 5002 c4 -7 3 -19 -4 -27 -8 -10 -8 -15 1 -20 8 -6 7 -10 -2
-16 -9 -5 -17 -2 -22 9 -4 10 -5 4 -1 -13 9 -48 27 -60 50 -34 10 13 14 19 7
16 -6 -4 -18 -4 -27 -1 -15 6 -15 7 0 19 13 9 14 14 5 19 -9 6 -9 11 0 22 10
12 9 17 -1 27 -10 9 -11 9 -6 -1z"/>
<path d="M5731 4941 c-11 -7 -11 -13 3 -32 21 -30 20 -46 -1 -52 -16 -4 -16
-5 -1 -6 9 0 20 4 23 9 3 6 15 10 26 10 23 0 23 1 2 45 -17 36 -28 41 -52 26z"/>
<path d="M5686 4799 c-16 -23 -13 -39 6 -39 6 0 8 3 5 7 -4 3 0 14 9 24 9 10
11 19 5 23 -5 4 -17 -3 -25 -15z"/>
<path d="M5427 4960 c-3 -11 -1 -18 3 -15 5 3 11 -1 13 -7 3 -7 6 -3 6 9 1 29
-15 38 -22 13z"/>
<path d="M5420 4923 c0 -4 5 -15 10 -23 8 -13 10 -13 10 2 0 9 -4 20 -10 23
-5 3 -10 3 -10 -2z"/>
<path d="M4519 6679 c-3 -63 -8 -110 -14 -119 -15 -25 -13 -111 4 -195 11 -49
20 -85 21 -80 7 41 9 72 10 160 0 114 -7 235 -15 243 -3 3 -5 -1 -6 -9z"/>
<path d="M3225 6486 c-113 -30 -200 -62 -215 -81 -9 -10 2 -8 36 6 26 12 79
27 118 33 60 10 73 10 85 -2 13 -13 13 -16 -3 -28 -10 -7 -15 -17 -12 -22 3
-6 -1 -13 -10 -16 -9 -3 -12 -11 -8 -18 6 -10 4 -10 -8 0 -14 11 -16 10 -12
-10 2 -13 2 -17 -2 -11 -4 10 -9 9 -21 -3 -9 -8 -22 -13 -29 -10 -17 7 -101
-49 -164 -108 -36 -34 -49 -42 -54 -31 -3 8 -1 26 4 39 5 13 6 27 3 30 -10 9
-34 -15 -26 -27 3 -6 1 -7 -5 -3 -9 5 -9 13 0 29 18 34 -13 6 -35 -32 -20 -34
-17 -40 7 -16 8 8 17 11 20 6 4 -5 -1 -16 -9 -24 -8 -9 -15 -21 -15 -27 0 -18
-42 -90 -52 -90 -5 0 -6 -6 -2 -12 6 -10 4 -10 -8 0 -13 10 -17 10 -23 -5 -7
-17 -8 -17 -15 2 -6 17 -13 8 -42 -50 -20 -38 -47 -107 -62 -153 -24 -77 -70
-301 -63 -309 2 -1 45 53 97 122 98 131 120 157 120 135 0 -7 -25 -43 -55 -81
-30 -37 -60 -80 -65 -94 -5 -14 -13 -25 -17 -25 -11 0 -34 -37 -38 -61 -4 -21
-31 -62 -82 -126 -35 -44 -58 -57 -46 -26 4 11 3 14 -6 9 -6 -4 -10 -15 -9
-24 2 -9 -3 -16 -9 -15 -7 2 -12 0 -11 -5 1 -4 -8 -26 -20 -50 -12 -23 -34
-75 -48 -115 -26 -71 -100 -209 -116 -215 -4 -2 -8 -8 -8 -14 0 -5 -9 -22 -20
-38 -11 -15 -38 -61 -60 -101 -143 -262 -161 -350 -100 -509 58 -149 139 -263
213 -299 24 -11 58 -38 77 -58 l35 -37 -43 38 c-24 21 -45 36 -46 34 -6 -10
15 -755 23 -813 6 -38 10 -119 11 -180 0 -60 7 -186 17 -280 16 -163 18 -171
45 -198 31 -31 37 -71 14 -102 -17 -24 -4 -68 30 -106 27 -28 29 -54 13 -128
-8 -40 -7 -58 5 -95 9 -25 20 -90 25 -144 5 -54 16 -114 24 -134 19 -44 66
-78 119 -86 l41 -5 -31 46 c-18 25 -36 57 -42 71 -5 15 -12 115 -15 224 -5
188 -9 231 -41 368 -8 33 -14 84 -14 113 0 30 -5 81 -10 115 -6 33 -17 111
-26 171 -8 61 -24 171 -35 245 -11 74 -20 176 -19 225 0 50 -3 195 -6 323 -3
128 -3 239 0 247 4 11 21 4 70 -33 115 -83 146 -103 308 -190 53 -29 102 -59
108 -67 7 -8 17 -15 22 -15 6 0 47 -22 92 -49 95 -57 216 -116 234 -114 17 1
15 -8 -5 -23 -26 -18 -9 -29 45 -29 29 0 57 -7 75 -19 29 -20 37 -39 11 -29
-12 4 -15 1 -12 -13 2 -14 12 -19 39 -20 50 -2 72 -17 99 -69 13 -25 42 -61
64 -81 116 -100 147 -123 175 -129 17 -4 33 -11 36 -16 17 -27 125 7 125 40 0
14 -7 21 -20 21 -11 0 -20 4 -20 9 0 5 -16 15 -35 21 -45 15 -47 34 -2 24 53
-12 108 -6 123 13 14 18 13 31 -1 66 -6 14 -2 17 22 17 38 0 63 27 63 68 l0
31 30 -17 c23 -13 34 -14 47 -6 20 12 29 56 17 82 -4 10 -6 27 -5 38 1 12 -5
29 -14 38 -18 17 -50 22 -40 6 7 -12 -67 37 -75 49 -3 4 -29 20 -57 36 -29 15
-53 31 -53 35 0 4 -13 13 -30 20 -16 7 -35 19 -42 28 -11 13 -10 15 14 10 17
-3 25 -1 22 7 -7 18 -96 24 -117 7 -7 -5 -37 -10 -68 -11 -43 -2 -65 3 -96 21
-51 29 -135 101 -108 93 11 -4 -2 8 -30 25 -27 18 -60 42 -72 53 -22 19 -22
22 -6 39 9 10 13 18 8 18 -4 0 -13 -7 -20 -16 -10 -15 -19 -11 -81 32 -85 59
-91 64 -112 89 -9 10 -58 62 -108 115 -99 103 -162 174 -237 266 -84 104 -97
122 -97 132 0 18 170 160 235 197 70 39 137 107 207 211 54 81 111 194 97 194
-6 0 -7 5 -3 12 4 7 3 8 -4 4 -6 -4 -8 -14 -5 -23 4 -11 3 -14 -5 -9 -8 5 -12
-1 -12 -16 0 -18 -2 -20 -10 -8 -8 13 -10 13 -10 -2 0 -9 -4 -18 -8 -20 -14
-6 -51 -64 -58 -93 -5 -21 -4 -26 5 -20 9 5 9 1 -1 -14 -13 -21 -13 -21 -20 6
-6 21 4 48 50 135 31 59 62 108 68 108 7 0 14 7 18 15 4 13 2 14 -14 5 -16 -9
-18 -8 -14 5 4 8 10 15 14 15 4 0 5 11 3 24 -3 13 0 27 6 30 6 4 11 18 11 30
0 17 15 33 53 58 63 43 154 131 195 190 44 64 139 258 166 340 35 105 42 181
22 257 -20 80 -102 239 -161 313 -40 51 -52 59 -111 78 -84 26 -137 25 -249
-4z m144 -10 c-2 -2 -29 -6 -59 -9 -36 -4 -48 -3 -35 3 19 8 103 14 94 6z m54
-3 c-7 -2 -19 -2 -25 0 -7 3 -2 5 12 5 14 0 19 -2 13 -5z m44 -9 c-3 -3 -12
-4 -19 -1 -8 3 -5 6 6 6 11 1 17 -2 13 -5z m-746 -540 c-5 -16 -10 -21 -10
-12 -1 18 10 51 15 45 2 -1 -1 -16 -5 -33z m-20 -75 c-6 -16 -10 -18 -10 -7
-1 22 12 55 16 42 2 -6 -1 -22 -6 -35z m-18 -79 c-3 -12 -8 -19 -11 -16 -5 6
5 36 12 36 2 0 2 -9 -1 -20z m466 -951 c-11 -16 -25 -32 -32 -36 -7 -5 -17
-17 -23 -28 -6 -11 -16 -21 -23 -21 -6 -1 -15 -2 -21 -3 -6 0 -9 -6 -7 -12 1
-7 -13 -21 -32 -32 -30 -18 -27 -12 31 59 35 43 74 97 88 118 l24 40 8 -29 c5
-21 2 -35 -13 -56z m-688 -916 c13 -16 12 -17 -3 -4 -10 7 -18 15 -18 17 0 8
8 3 21 -13z m1598 -588 c12 -12 8 -12 -22 -1 -20 7 -40 16 -44 21 -13 14 51
-5 66 -20z"/>
<path d="M3119 4813 c-13 -16 -12 -17 4 -4 16 13 21 21 13 21 -2 0 -10 -8 -17
-17z"/>
<path d="M3075 4759 c-4 -6 -5 -12 -2 -15 2 -3 7 2 10 11 7 17 1 20 -8 4z"/>
<path d="M3750 6420 c0 -3 9 -68 20 -145 18 -127 20 -178 5 -129 -9 28 -47
105 -51 101 -2 -1 8 -39 21 -82 14 -44 25 -90 25 -103 0 -13 5 -33 11 -44 11
-20 13 -20 24 -5 9 13 7 55 -12 197 -12 100 -27 189 -33 198 -5 9 -10 15 -10
12z"/>
<path d="M3800 6268 c0 -3 5 -30 10 -59 6 -30 13 -76 16 -104 8 -64 14 -71 14
-14 -1 46 -23 166 -34 176 -3 4 -6 4 -6 1z"/>
<path d="M4346 6075 c-3 -9 -6 -24 -5 -33 0 -9 5 -4 10 12 9 32 6 48 -5 21z"/>
<path d="M4420 6023 c-3 -23 -2 -39 3 -34 5 5 7 24 5 42 -3 33 -4 33 -8 -8z"/>
<path d="M3832 6015 c0 -16 2 -22 5 -12 2 9 2 23 0 30 -3 6 -5 -1 -5 -18z"/>
<path d="M4434 5932 c-14 -10 -26 -42 -14 -42 5 0 11 8 13 18 3 9 5 3 6 -13 0
-17 -4 -36 -10 -42 -8 -8 -8 -13 0 -17 12 -8 27 24 33 69 3 29 -8 41 -28 27z"/>
<path d="M3781 5814 c0 -11 3 -14 6 -6 3 7 2 16 -1 19 -3 4 -6 -2 -5 -13z"/>
<path d="M4413 5795 c-9 -25 4 -29 17 -6 7 15 7 21 0 21 -6 0 -13 -7 -17 -15z"/>
<path d="M4386 5766 c-8 -44 -2 -57 13 -28 7 13 8 29 2 43 -7 21 -9 20 -15
-15z"/>
<path d="M4330 5542 c0 -12 19 -26 26 -19 2 2 -2 10 -11 17 -9 8 -15 8 -15 2z"/>
<path d="M4315 5499 c-9 -28 1 -36 14 -10 7 12 7 22 2 26 -5 3 -13 -4 -16 -16z"/>
<path d="M4351 5492 c-6 -12 -11 -27 -11 -34 0 -7 7 0 15 16 9 16 13 31 11 33
-2 3 -9 -4 -15 -15z"/>
<path d="M4085 5444 c17 -2 60 -9 96 -15 48 -9 71 -9 85 -1 17 11 17 11 -6 11
-14 -1 -65 1 -115 4 -49 3 -76 4 -60 1z"/>
<path d="M4298 5429 c-13 -14 -31 -19 -66 -19 -54 0 -67 -7 -51 -27 9 -10 -1
-32 -47 -99 -33 -48 -69 -93 -81 -101 -35 -23 -28 -31 35 -35 61 -4 84 4 64
24 -9 9 -6 20 10 50 24 43 45 49 57 16 8 -21 8 -21 15 5 3 14 20 47 37 72 22
33 29 53 25 70 -5 18 -2 25 9 25 8 0 15 9 15 20 0 24 0 24 -22 -1z m-23 -75
c-14 -34 -40 -63 -57 -64 -12 0 -10 3 18 54 32 58 62 65 39 10z"/>
<path d="M4045 5414 c-43 -16 -55 -28 -55 -61 0 -12 -14 -57 -31 -100 -61
-152 -79 -169 -79 -74 0 57 1 59 39 84 49 33 81 109 32 78 -7 -5 -11 -13 -7
-19 3 -6 -21 -31 -54 -56 -33 -25 -60 -43 -60 -40 0 16 44 75 68 93 l27 20
-28 1 c-40 0 -67 -17 -67 -42 0 -43 -45 -142 -82 -181 -56 -60 -65 -38 -23 58
69 163 53 179 -51 53 -38 -46 -82 -96 -98 -111 -16 -15 -26 -30 -23 -33 3 -4
13 1 22 10 9 9 22 16 28 16 7 0 23 3 35 7 22 5 23 4 11 -15 -8 -12 -25 -26
-39 -31 -14 -5 -54 -34 -89 -65 -67 -58 -89 -66 -115 -41 -8 8 -19 15 -25 15
-21 0 -11 -29 20 -60 40 -39 69 -37 88 7 8 18 22 35 30 38 9 3 28 23 43 44 30
42 55 51 143 51 50 0 79 15 73 36 -3 11 31 82 43 90 18 11 8 -54 -11 -71 -11
-10 -20 -21 -20 -25 0 -11 104 14 130 32 13 10 38 20 55 24 20 3 36 16 48 36
22 38 14 48 -16 21 -12 -11 -33 -26 -46 -33 -21 -11 -23 -10 -18 5 4 9 7 19 7
21 0 3 4 3 9 0 5 -3 15 2 22 12 13 15 12 16 -3 3 -22 -17 -22 -10 -2 37 9 20
18 31 21 25 7 -20 19 -15 31 12 16 35 15 37 -8 25 -25 -13 -26 -3 -4 44 22 46
74 60 74 20 0 -24 27 -16 49 15 l21 29 -31 6 c-38 7 -35 8 -84 -10z m-354
-222 c-18 -36 -47 -59 -59 -48 -2 3 13 26 33 51 21 25 40 44 42 41 2 -2 -5
-22 -16 -44z"/>
<path d="M4520 5400 c1 -18 29 -70 30 -54 0 7 -7 25 -15 40 -8 16 -15 22 -15
14z"/>
<path d="M3698 5393 c6 -2 18 -2 25 0 6 3 1 5 -13 5 -14 0 -19 -2 -12 -5z"/>
<path d="M3683 5368 c-38 -8 -44 -13 -53 -48 -6 -21 -17 -58 -25 -81 -19 -52
-16 -50 34 29 22 33 54 68 70 77 17 8 31 20 31 25 0 11 0 11 -57 -2z"/>
<path d="M4046 5372 c-3 -5 1 -9 9 -9 8 0 15 4 15 9 0 4 -4 8 -9 8 -6 0 -12
-4 -15 -8z"/>
<path d="M4147 5362 c-10 -10 -17 -23 -17 -28 0 -6 -12 -26 -26 -45 -23 -31
-64 -101 -51 -89 15 15 118 172 114 176 -2 2 -11 -4 -20 -14z"/>
<path d="M3923 5363 c9 -2 23 -2 30 0 6 3 -1 5 -18 5 -16 0 -22 -2 -12 -5z"/>
<path d="M4030 5340 c0 -5 5 -10 11 -10 5 0 7 5 4 10 -3 6 -8 10 -11 10 -2 0
-4 -4 -4 -10z"/>
<path d="M4061 5338 c0 -9 -4 -25 -7 -35 -5 -17 -5 -17 6 0 6 10 9 25 7 35 -4
15 -5 15 -6 0z"/>
<path d="M4088 5333 c7 -3 16 -2 19 1 4 3 -2 6 -13 5 -11 0 -14 -3 -6 -6z"/>
<path d="M3785 5290 c-4 -12 -5 -24 -2 -27 3 -2 8 5 12 17 4 12 5 24 2 27 -3
2 -8 -5 -12 -17z"/>
<path d="M3510 5247 c-21 -32 -38 -65 -37 -69 1 -2 -2 2 -7 9 -7 8 -25 -19
-60 -88 -59 -115 -204 -324 -291 -419 -80 -86 -135 -152 -135 -161 0 -4 23 17
51 46 28 30 55 52 60 50 4 -3 26 21 48 54 43 63 179 231 187 231 3 0 2 -4 -1
-10 -3 -6 1 -7 9 -4 9 3 16 13 16 20 0 12 5 11 27 -3 l26 -17 -28 42 c-27 41
-27 43 -9 57 16 11 21 11 35 -1 20 -18 53 -18 68 0 9 11 6 13 -16 9 -24 -3
-25 -2 -8 6 11 5 15 10 9 10 -6 1 -11 8 -11 16 0 12 3 12 15 2 13 -10 14 -9 4
10 -9 17 -9 25 1 35 15 14 39 78 30 78 -3 0 0 7 7 15 7 8 10 22 6 30 -3 10 1
15 12 15 14 0 14 2 3 9 -12 8 -13 12 -1 25 7 9 11 18 9 21 -3 2 -11 -6 -19
-18z"/>
<path d="M4017 5245 c-9 -7 -17 -16 -17 -20 0 -4 6 -3 13 3 6 5 21 12 32 14
16 3 17 5 5 10 -9 3 -24 0 -33 -7z"/>
<path d="M3747 5184 c-23 -58 -24 -64 -7 -49 11 10 17 21 15 25 -3 4 2 25 11
45 8 20 13 39 11 41 -2 2 -15 -26 -30 -62z"/>
<path d="M4177 5210 c-13 -21 -14 -29 -5 -33 10 -3 10 -10 -1 -28 -13 -22 -13
-23 2 -10 10 8 16 25 14 45 -1 20 2 30 11 29 13 -3 17 13 4 21 -5 3 -16 -8
-25 -24z"/>
<path d="M3350 5223 c0 -6 -11 -14 -25 -17 -24 -6 -36 -26 -15 -26 6 0 10 5
10 10 0 6 6 10 14 10 17 0 31 18 22 27 -3 4 -6 2 -6 -4z"/>
<path d="M3385 5208 c-11 -6 -22 -14 -25 -18 -3 -3 -13 -9 -22 -13 -10 -3 -18
-15 -18 -25 0 -10 -5 -23 -11 -29 -7 -7 -8 -17 -2 -28 8 -13 12 -10 28 20 11
19 23 35 27 35 5 0 8 7 8 16 0 8 3 13 8 10 4 -2 12 7 19 20 6 13 10 24 10 24
-1 0 -11 -6 -22 -12z m-42 -53 c-3 -9 -8 -14 -10 -11 -3 3 -2 9 2 15 9 16 15
13 8 -4z m-20 -40 c-3 -9 -8 -14 -10 -11 -3 3 -2 9 2 15 9 16 15 13 8 -4z"/>
<path d="M4403 5185 c0 -8 4 -12 9 -9 5 3 6 10 3 15 -9 13 -12 11 -12 -6z"/>
<path d="M4457 5158 c-84 -139 -88 -148 -70 -174 16 -24 15 -28 -2 -60 l-18
-34 -13 36 c-14 41 -21 50 -31 41 -4 -4 -1 -13 5 -19 7 -7 12 -27 12 -44 0
-42 -63 -119 -188 -229 -62 -54 -91 -87 -92 -102 0 -12 -5 -25 -11 -29 -6 -3
-9 -17 -6 -30 3 -16 0 -24 -9 -24 -16 0 -19 36 -4 45 6 3 10 15 10 26 0 12 37
60 88 113 118 126 162 176 154 176 -4 0 5 11 21 24 26 23 36 59 18 70 -10 6
-169 -188 -252 -307 -52 -75 -75 -114 -98 -167 -11 -23 -11 -22 -6 9 l5 34
-22 -19 c-13 -10 -35 -29 -49 -41 l-26 -24 -18 60 c-9 32 -16 63 -14 69 2 5
32 42 67 80 83 93 212 263 212 281 0 8 -24 -18 -52 -56 -56 -74 -268 -301
-268 -286 0 5 38 49 85 97 85 89 100 110 68 100 -14 -5 -15 -4 -4 4 7 5 11 14
7 20 -3 6 -2 13 4 17 5 3 10 -3 10 -14 0 -12 4 -21 10 -21 6 0 6 9 0 24 -5 13
-7 26 -4 28 2 3 -2 5 -10 5 -8 0 -14 -3 -14 -6 2 -11 -14 -41 -22 -41 -5 0
-11 8 -13 18 -4 16 -5 16 -6 -1 0 -10 -5 -16 -10 -12 -6 3 -8 -6 -5 -20 2 -14
0 -24 -5 -23 -5 2 -17 -6 -25 -17 l-16 -20 6 20 c4 17 3 16 -8 -3 -8 -12 -17
-19 -21 -16 -4 4 -7 0 -7 -10 0 -9 -11 -33 -25 -53 -13 -20 -21 -41 -18 -46 3
-6 1 -7 -5 -3 -13 8 -36 -30 -28 -49 3 -8 0 -16 -7 -18 -7 -2 -8 -8 -4 -13 4
-5 12 -2 17 6 6 8 10 11 10 5 0 -5 7 -2 14 8 17 23 20 18 57 -86 26 -73 27
-82 14 -106 -8 -14 -24 -62 -35 -106 -12 -44 -30 -99 -40 -122 -10 -24 -15
-45 -11 -47 11 -7 120 52 176 95 45 34 90 73 166 145 14 13 31 24 37 24 6 0
14 9 17 20 3 11 12 20 20 20 8 0 17 9 20 20 4 11 11 17 17 14 7 -5 9 -1 5 9
-3 8 1 21 9 27 8 7 14 9 14 4 0 -5 7 0 16 11 8 11 20 20 27 20 7 0 12 10 11
22 0 18 2 20 13 11 11 -8 12 -7 7 6 -4 9 -3 16 2 15 20 -3 24 2 15 19 -7 14
-6 19 4 19 8 0 11 -5 8 -10 -3 -6 -1 -7 5 -3 7 4 12 13 12 21 0 8 5 17 12 21
7 5 8 3 3 -6 -5 -8 -3 -11 6 -8 22 7 24 50 3 65 -10 7 -13 13 -7 13 18 0 45
-38 41 -58 -6 -36 -375 -401 -399 -395 -5 2 -9 -3 -9 -10 0 -6 -21 -25 -45
-42 -37 -25 -47 -37 -52 -69 -7 -45 -53 -109 -133 -182 -37 -35 -60 -65 -64
-85 -4 -20 -10 -28 -18 -24 -7 4 -5 0 4 -8 22 -17 11 -32 -11 -14 -14 11 -15
10 -1 -7 13 -16 12 -20 -3 -31 -9 -6 -13 -16 -9 -20 4 -5 -2 -5 -12 -1 -16 5
-17 4 -6 -9 11 -13 9 -15 -11 -16 -13 0 -18 -3 -11 -6 6 -2 12 -11 12 -19 0
-8 7 -14 15 -14 8 0 15 9 15 21 0 13 4 18 13 13 9 -6 9 -4 -1 8 -9 11 -10 18
-2 23 5 3 10 1 10 -5 0 -6 4 -9 10 -5 5 3 6 13 3 23 -3 9 -3 14 2 10 4 -4 24
14 44 40 73 92 330 368 355 382 14 7 26 17 26 22 0 4 11 8 24 8 13 0 39 6 57
14 19 8 48 17 64 19 17 3 40 8 52 11 22 5 109 -19 117 -32 2 -4 -23 -6 -55 -6
-95 3 -124 -8 -186 -70 -31 -31 -61 -56 -66 -56 -5 0 -3 -8 4 -17 10 -12 10
-15 1 -9 -8 5 -23 -4 -41 -23 -18 -20 -24 -31 -15 -31 8 0 14 5 14 10 0 6 7
10 16 10 10 0 14 6 11 14 -3 8 1 13 11 12 11 -1 16 6 16 17 -2 15 1 16 14 5
13 -11 15 -10 10 4 -5 11 -2 15 10 13 9 -1 25 4 35 13 9 8 17 12 17 7 0 -4 7
-2 16 6 9 8 43 13 84 13 37 1 64 4 58 7 -17 11 30 17 84 11 29 -4 72 -7 96 -7
23 0 42 -3 42 -7 0 -5 5 -8 12 -8 18 0 -23 40 -67 66 -47 27 -109 50 -155 58
-18 2 -35 8 -38 11 -7 7 57 2 128 -10 26 -4 30 -3 15 4 -11 5 -15 10 -10 10 6
1 11 13 11 27 2 19 -5 28 -25 36 -42 16 -124 16 -143 0 -10 -8 -24 -12 -33 -8
-9 3 -13 2 -10 -4 3 -6 -1 -10 -9 -10 -9 0 -16 -4 -16 -9 0 -9 -38 -24 -54
-22 -4 1 -14 -4 -22 -10 -8 -7 -17 -10 -20 -7 -7 7 97 75 121 80 11 1 22 5 25
8 11 11 81 40 76 31 -3 -4 10 -8 29 -7 19 0 35 4 35 9 0 4 -4 7 -10 7 -5 0
-10 5 -10 10 0 6 14 10 30 10 17 0 30 -4 30 -9 0 -5 9 -11 20 -14 11 -3 20 -2
20 2 0 15 -32 51 -46 51 -8 0 -14 5 -14 11 0 5 -4 8 -9 4 -5 -3 -12 -2 -15 3
-2 4 4 9 15 9 10 1 19 -2 19 -8 0 -5 5 -9 10 -9 6 0 10 10 10 22 0 12 12 39
27 61 43 63 26 147 -35 163 -26 7 -24 27 2 32 28 6 70 -16 89 -46 l16 -27 1
35 c0 19 -14 64 -30 99 l-31 64 18 69 c17 65 17 69 -1 102 -10 19 -28 39 -39
45 -13 7 -15 10 -4 7 21 -7 21 -3 1 37 -18 36 -53 77 -66 77 -4 0 -14 -10 -21
-22z m-534 -394 c-4 -12 -8 -13 -14 -3 -9 15 -2 32 11 24 5 -3 6 -13 3 -21z
m505 -40 c36 -25 46 -51 32 -85 l-12 -29 -17 32 c-9 18 -32 43 -51 56 -24 16
-28 23 -15 20 11 -1 35 -13 53 -26 17 -13 32 -19 32 -13 0 5 -15 21 -32 35
-35 28 -27 36 10 10z m132 -104 c0 -5 -2 -10 -4 -10 -3 0 -8 5 -11 10 -3 6 -1
10 4 10 6 0 11 -4 11 -10z m-337 -39 c5 0 6 -5 3 -10 -3 -4 5 -7 18 -6 14 2
23 -2 23 -11 0 -9 -6 -13 -15 -9 -13 5 -13 3 -1 -12 13 -17 13 -17 -13 0 -19
12 -26 13 -22 4 6 -17 -25 -19 -46 -3 -10 7 -9 3 3 -10 9 -11 16 -23 15 -25
-2 -2 3 2 10 10 8 10 12 11 12 3 0 -6 -16 -22 -35 -34 -19 -13 -37 -31 -41
-40 -3 -10 -12 -18 -19 -18 -9 0 -12 -8 -10 -21 4 -17 2 -19 -11 -8 -12 10
-13 9 -8 -6 5 -13 4 -16 -4 -11 -11 6 -16 -5 -14 -26 1 -3 -5 -9 -14 -12 -8
-3 -13 -2 -10 2 3 5 -1 9 -9 9 -8 0 -13 -5 -12 -10 1 -6 -10 -11 -26 -12 -15
-1 -25 0 -22 3 3 3 0 11 -7 19 -9 11 -8 13 1 11 8 -2 15 5 16 16 2 10 15 31
29 45 14 15 26 35 26 44 0 9 3 16 8 15 15 -3 42 15 42 28 0 8 3 14 8 14 4 0
18 16 31 35 23 35 26 36 94 26z m347 -5 c0 -8 -16 -33 -35 -56 -19 -23 -35
-37 -35 -31 0 14 -45 5 -77 -15 -26 -16 -32 -40 -8 -30 8 3 22 9 30 12 8 3 15
1 15 -5 0 -6 -3 -10 -7 -9 -22 5 -148 -67 -222 -127 -53 -43 -77 -58 -66 -41
10 14 60 61 112 102 52 42 102 84 111 94 22 23 92 60 114 60 10 0 27 14 40 30
25 34 28 36 28 16z m-800 -22 c0 -8 -5 -12 -10 -9 -6 4 -8 11 -5 16 9 14 15
11 15 -7z m670 -34 c0 -5 -7 -10 -15 -10 -8 0 -15 5 -15 10 0 6 7 10 15 10 8
0 15 -4 15 -10z m-414 -356 c-11 -8 -17 -14 -13 -14 4 0 -1 -9 -11 -21 -52
-63 -52 -63 -64 -51 -9 9 0 24 41 62 30 28 57 48 60 44 3 -3 -3 -12 -13 -20z
m227 -19 c-3 -9 -8 -14 -10 -11 -3 3 -2 9 2 15 9 16 15 13 8 -4z m-26 -20 c0
-8 -4 -12 -9 -9 -5 3 -6 10 -3 15 9 13 12 11 12 -6z m-357 -189 c0 -2 -7 -7
-16 -10 -8 -3 -12 -2 -9 4 6 10 25 14 25 6z"/>
<path d="M4154 4495 c0 -13 3 -22 7 -19 8 4 6 30 -2 38 -3 3 -5 -5 -5 -19z"/>
<path d="M4004 4388 c-4 -7 -4 -10 1 -6 4 4 15 2 24 -5 14 -11 14 -10 2 6 -16
20 -18 21 -27 5z"/>
<path d="M3991 4356 c-8 -10 -9 -16 -1 -21 5 -3 10 -5 11 -3 4 18 7 38 4 38
-1 0 -8 -6 -14 -14z"/>
<path d="M5914 5136 c11 -9 24 -16 30 -16 12 0 7 5 -24 19 -24 11 -24 11 -6
-3z"/>
<path d="M4020 5136 c0 -2 9 -6 20 -9 11 -3 18 -1 14 4 -5 9 -34 13 -34 5z"/>
<path d="M3944 5114 c-10 -8 -13 -12 -5 -8 8 4 28 11 45 15 29 6 29 7 5 8 -14
1 -34 -6 -45 -15z"/>
<path d="M3540 5055 c-8 -9 -8 -15 -2 -15 12 0 26 19 19 26 -2 2 -10 -2 -17
-11z"/>
<path d="M4273 5040 c-12 -10 -24 -16 -29 -12 -4 4 -4 2 -1 -4 4 -7 0 -17 -8
-24 -23 -19 -65 -101 -58 -113 3 -5 2 -7 -4 -4 -5 3 -28 -31 -52 -76 -64 -126
-83 -158 -124 -211 -42 -56 -49 -81 -12 -46 14 13 25 27 25 32 0 4 16 28 35
54 19 25 33 50 29 55 -3 5 0 9 6 9 14 0 40 25 40 39 0 6 4 11 8 11 5 0 17 16
28 35 10 19 22 35 27 35 4 0 5 5 2 10 -3 6 -1 10 5 10 6 0 8 5 5 10 -3 6 -1
10 4 10 6 0 10 3 10 8 -4 25 2 42 14 36 7 -5 6 0 -3 11 -9 11 -10 16 -2 11 7
-4 12 -2 12 4 0 6 5 8 13 4 9 -6 8 -3 -1 9 -12 13 -10 19 7 34 12 9 21 26 21
36 0 10 4 16 9 13 5 -3 14 1 20 8 19 22 -4 27 -26 6z"/>
<path d="M5980 5050 c0 -5 5 -10 11 -10 5 0 7 5 4 10 -3 6 -8 10 -11 10 -2 0
-4 -4 -4 -10z"/>
<path d="M6060 5050 c0 -10 46 -33 60 -28 6 2 -5 11 -24 19 -20 9 -36 13 -36
9z"/>
<path d="M6006 5017 c3 -10 9 -15 12 -12 3 3 0 11 -7 18 -10 9 -11 8 -5 -6z"/>
<path d="M3720 4889 c-13 -5 -67 -14 -118 -19 -52 -5 -99 -13 -104 -18 -11
-11 -96 -205 -93 -212 2 -3 41 -3 86 0 74 4 84 7 87 25 6 28 32 55 54 55 10 0
18 -3 18 -7 0 -10 -178 -214 -260 -298 -32 -33 -62 -69 -68 -80 -6 -11 -13
-62 -17 -114 l-8 -94 189 7 c104 4 200 8 214 9 24 2 26 7 42 102 25 149 32
135 -71 135 -85 0 -90 -1 -93 -22 -2 -15 -11 -24 -25 -26 -23 -3 -32 12 -14
22 5 4 31 39 57 79 26 39 77 104 114 142 85 89 96 108 103 173 6 48 3 58 -26
102 -36 54 -33 53 -67 39z m44 -68 c23 -33 26 -44 20 -82 -8 -46 -56 -120
-114 -174 -18 -16 -63 -73 -101 -125 -38 -52 -78 -108 -90 -123 l-22 -28 71 2
c69 3 71 4 76 32 6 28 7 28 58 25 l53 -3 -1 -35 c0 -19 -4 -56 -8 -81 l-7 -46
-157 -13 c-87 -7 -167 -11 -177 -9 -24 5 -30 40 -20 117 6 51 13 61 113 174
207 233 224 256 217 278 -10 30 -54 26 -93 -9 -17 -17 -32 -35 -32 -40 0 -6
-22 -11 -50 -11 -27 0 -50 2 -50 5 0 10 54 141 63 153 12 15 87 16 87 0 0 -7
7 -5 18 5 15 13 36 19 103 25 9 1 28 -15 43 -37z"/>
<path d="M4020 4726 c-79 -170 -102 -227 -95 -234 2 -3 8 6 14 19 40 104 113
253 122 251 6 -1 7 3 3 9 -4 7 1 18 11 26 18 12 18 13 1 13 -12 0 -29 -25 -56
-84z"/>
<path d="M4630 4589 c0 -9 -13 -36 -30 -60 -31 -46 -38 -93 -17 -119 7 -9 34
-24 61 -34 42 -16 51 -25 72 -70 16 -33 24 -69 24 -104 0 -46 4 -58 29 -83 16
-16 38 -29 48 -29 37 0 73 -53 93 -139 7 -30 32 -95 55 -145 24 -50 46 -107
49 -127 4 -20 18 -64 31 -98 18 -44 25 -79 25 -129 0 -90 13 -127 51 -142 51
-22 59 -43 59 -161 0 -79 -5 -124 -20 -172 -14 -46 -18 -78 -14 -106 4 -23 3
-41 -2 -41 -5 0 -47 9 -94 21 -47 11 -113 23 -147 26 -78 7 -230 -13 -303 -40
-89 -33 -146 -105 -107 -136 68 -55 96 -85 133 -142 27 -40 92 -111 164 -177
114 -106 179 -151 245 -166 42 -10 61 -31 95 -100 52 -108 97 -156 186 -201
84 -43 123 -72 328 -244 143 -120 188 -140 282 -127 68 9 91 28 126 104 28 64
29 70 18 117 -7 28 -18 57 -25 65 -7 8 -27 44 -45 79 -27 54 -88 156 -251 421
-53 86 -116 170 -123 163 -3 -4 -6 -1 -6 6 0 7 -4 10 -8 7 -4 -2 -30 13 -57
35 -51 39 -72 49 -59 27 5 -9 2 -9 -9 1 -9 7 -17 10 -17 5 0 -5 -4 -4 -8 1
-11 16 -80 45 -84 36 -2 -5 -13 -5 -25 0 -16 6 -21 13 -16 26 4 10 8 12 11 5
2 -7 8 -10 12 -7 13 8 -23 41 -52 50 l-23 7 23 -17 c12 -9 22 -21 22 -26 0
-20 -60 46 -61 66 0 20 0 20 -9 0 -5 -11 -9 -14 -9 -7 -1 6 -6 11 -12 10 -6
-2 -13 5 -14 15 -3 14 0 16 10 7 26 -22 26 10 -1 88 -20 59 -26 92 -24 142 2
36 2 83 2 105 -1 22 -3 85 -5 140 -5 141 -29 249 -83 367 -156 347 -196 441
-224 533 -30 101 -143 324 -202 403 -66 87 -68 89 -68 71z m500 -1084 c11 -13
8 -13 -18 2 -18 10 -32 22 -32 26 0 11 34 -8 50 -28z"/>
<path d="M3252 4534 c-16 -33 -32 -76 -36 -97 -4 -21 -10 -46 -13 -55 -4 -12
-3 -14 4 -7 6 6 20 44 33 85 12 41 28 86 37 98 8 13 12 26 9 29 -2 3 -18 -21
-34 -53z"/>
<path d="M3715 4550 c-3 -5 -1 -10 4 -10 6 0 11 5 11 10 0 6 -2 10 -4 10 -3 0
-8 -4 -11 -10z"/>
<path d="M4580 4371 c0 -5 14 -12 31 -16 35 -8 51 -40 43 -84 -4 -16 -1 -32 5
-35 6 -4 11 -21 11 -38 0 -47 38 -107 74 -116 18 -5 40 -22 54 -42 29 -43 29
-63 -1 -27 -17 22 -32 29 -60 30 -20 0 -32 4 -26 8 7 4 8 9 1 13 -14 8 -35
-21 -26 -36 4 -8 3 -10 -2 -5 -5 5 -9 18 -9 30 0 17 -13 24 -71 43 -77 24
-184 40 -168 25 5 -5 41 -16 79 -24 39 -9 84 -20 102 -25 17 -6 34 -8 37 -5 3
3 4 -5 3 -16 -1 -21 -2 -21 -14 -5 -7 10 -13 15 -13 11 0 -4 -13 -1 -30 8 -23
12 -30 12 -30 3 0 -8 -3 -9 -8 -3 -4 6 -16 11 -27 12 -11 1 -29 4 -40 6 -11 3
-26 0 -33 -6 -9 -7 -11 -6 -7 4 4 12 -4 14 -40 12 -31 -2 -44 1 -39 8 3 6 -5
3 -20 -6 -15 -10 -26 -13 -26 -6 0 7 -8 7 -22 2 -13 -5 -22 -14 -20 -21 1 -6
-2 -9 -8 -5 -6 4 -26 -5 -45 -19 -19 -15 -37 -26 -40 -26 -15 1 -32 -26 -23
-37 6 -8 4 -10 -11 -6 -18 5 -43 -23 -40 -44 3 -18 -2 -27 -9 -16 -6 9 -11 7
-19 -6 -9 -15 -9 -19 1 -17 19 3 76 53 69 60 -6 5 11 10 28 8 4 -1 5 7 2 17
-3 10 1 22 8 26 7 5 10 4 5 -3 -3 -6 -1 -14 5 -18 8 -4 9 -3 5 4 -4 7 -1 12 8
12 9 0 16 4 16 9 0 6 8 8 18 6 10 -1 26 3 37 11 12 9 14 14 5 14 -7 0 -10 3
-7 6 11 12 36 -17 32 -36 -2 -11 4 -24 13 -29 9 -5 14 -13 10 -17 -5 -4 -2
-14 5 -22 10 -13 9 -14 -2 -7 -11 6 -13 3 -7 -18 4 -16 2 -27 -6 -29 -7 -3 -5
-7 6 -11 10 -4 15 -3 11 3 -3 6 -1 10 4 10 6 0 11 -3 12 -7 0 -5 2 -18 5 -30
3 -18 0 -21 -14 -17 -10 4 -13 3 -6 -3 7 -4 14 -17 17 -28 4 -18 5 -18 6 3 0
12 6 22 12 22 5 0 7 -6 3 -12 -6 -10 -5 -10 8 -1 8 7 19 9 23 5 5 -4 5 -2 2 4
-3 6 0 11 8 11 8 0 12 -4 9 -9 -3 -5 6 -7 20 -4 15 3 24 1 21 -5 -4 -5 -10 -7
-14 -5 -4 3 -8 -1 -8 -8 0 -7 6 -13 13 -13 7 0 10 5 7 10 -4 6 1 8 11 4 14 -6
16 -3 12 16 -3 12 -3 16 0 9 3 -6 10 -10 15 -6 5 3 9 -1 9 -8 0 -10 2 -10 9 1
5 8 18 16 28 17 9 2 19 8 21 14 2 5 8 8 12 5 5 -3 11 -1 15 5 3 5 -2 10 -12
10 -17 1 -17 1 0 11 9 6 15 15 11 20 -8 14 16 40 30 32 6 -4 5 1 -3 11 -8 9
-10 16 -5 15 5 -1 11 0 14 1 16 6 48 5 44 -1 -2 -4 1 -11 7 -15 7 -4 10 -3 7
2 -3 5 -2 18 3 29 6 16 8 17 8 3 1 -9 5 -19 10 -23 6 -3 8 3 6 15 -2 11 1 23
7 26 6 4 8 2 4 -4 -3 -6 -2 -13 4 -17 7 -4 7 -12 0 -25 -8 -16 -8 -18 5 -14
10 4 15 0 15 -11 0 -11 7 -16 23 -14 12 2 27 0 34 -4 9 -5 9 2 1 29 -5 20 -7
38 -4 42 3 3 6 -1 6 -9 0 -8 23 -66 51 -129 77 -174 123 -323 122 -395 -1 -79
24 -129 72 -145 44 -15 50 -35 42 -151 -7 -87 -39 -207 -61 -221 -7 -5 -3 -8
9 -8 16 0 23 11 34 53 26 103 30 133 31 220 l0 88 -31 17 c-68 37 -71 43 -77
128 -5 85 -67 295 -115 389 -14 28 -37 89 -51 136 -28 91 -50 121 -104 140
-44 15 -55 40 -62 132 -5 55 -12 85 -27 104 -20 28 -83 61 -83 44z m-303 -343
c-3 -8 -6 -5 -6 6 -1 11 2 17 5 13 3 -3 4 -12 1 -19z m-37 8 c0 -2 -8 -10 -17
-17 -16 -13 -17 -12 -4 4 13 16 21 21 21 13z m170 -196 c0 -5 -2 -10 -4 -10
-3 0 -8 5 -11 10 -3 6 -1 10 4 10 6 0 11 -4 11 -10z"/>
<path d="M4538 4343 c6 -2 18 -2 25 0 6 3 1 5 -13 5 -14 0 -19 -2 -12 -5z"/>
<path d="M4305 4021 c-3 -5 -2 -12 3 -15 5 -3 9 1 9 9 0 17 -3 19 -12 6z"/>
<path d="M3783 4003 c0 -9 4 -10 14 -2 7 6 13 12 13 14 0 1 -6 2 -13 2 -8 0
-14 -6 -14 -14z"/>
<path d="M4314 3972 c16 -7 17 -9 4 -14 -9 -4 -21 -1 -27 5 -9 9 -11 8 -6 -5
4 -9 13 -19 22 -22 8 -4 13 -12 10 -19 -3 -8 1 -14 9 -14 12 0 11 5 -2 25 -14
22 -14 24 -1 19 10 -4 14 0 13 11 -2 9 -11 18 -22 19 -18 3 -18 3 0 -5z"/>
<path d="M4663 3935 c0 -8 4 -15 9 -15 4 0 8 4 8 9 0 6 -4 12 -8 15 -5 3 -9
-1 -9 -9z"/>
<path d="M4715 3932 c-5 -4 -11 -16 -12 -27 -1 -11 0 -14 3 -7 7 14 34 16 34
2 0 -5 6 -10 13 -10 6 1 2 9 -10 19 -12 10 -19 21 -16 25 9 8 0 7 -12 -2z"/>
<path d="M4235 3921 c-3 -5 0 -13 6 -17 7 -4 9 -3 5 4 -3 6 2 13 11 15 16 4
16 5 1 6 -9 0 -19 -3 -23 -8z"/>
<path d="M4627 3912 c-2 -4 -3 -13 -3 -21 1 -17 36 -24 36 -8 0 8 3 7 9 -1 6
-11 10 -10 15 4 4 10 4 15 0 11 -4 -4 -18 0 -30 8 -13 8 -25 11 -27 7z m18
-11 c3 -5 2 -12 -3 -15 -5 -3 -9 1 -9 9 0 17 3 19 12 6z"/>
<path d="M3652 3890 c0 -14 2 -19 5 -12 2 6 2 18 0 25 -3 6 -5 1 -5 -13z"/>
<path d="M4835 3870 c3 -5 8 -10 11 -10 2 0 4 5 4 10 0 6 -5 10 -11 10 -5 0
-7 -4 -4 -10z"/>
<path d="M4420 3806 c0 -2 7 -6 15 -10 8 -3 15 -1 15 4 0 6 -7 10 -15 10 -8 0
-15 -2 -15 -4z"/>
<path d="M3545 3690 c3 -5 11 -10 16 -10 6 0 7 5 4 10 -3 6 -11 10 -16 10 -6
0 -7 -4 -4 -10z"/>
<path d="M3940 3589 c1 -20 38 -62 49 -55 5 4 12 2 16 -4 3 -5 13 -10 20 -10
12 0 11 4 -2 20 -10 11 -22 20 -27 20 -5 0 -20 10 -33 22 -16 15 -23 17 -23 7z"/>
<path d="M4086 3588 c3 -5 10 -6 15 -3 13 9 11 12 -6 12 -8 0 -12 -4 -9 -9z"/>
<path d="M4060 3571 c0 -6 4 -13 10 -16 6 -3 7 1 4 9 -7 18 -14 21 -14 7z"/>
<path d="M4197 3474 c-4 -4 -4 -10 -2 -14 6 -10 45 0 45 11 0 10 -33 12 -43 3z"/>
<path d="M4160 3461 c0 -5 7 -12 16 -15 14 -5 15 -4 4 9 -14 17 -20 19 -20 6z"/>
<path d="M2496 3260 c7 -100 32 -280 50 -360 34 -146 74 -355 74 -385 0 -17
14 -92 31 -166 25 -107 30 -148 26 -204 -3 -38 -2 -127 2 -197 l7 -128 34 -36
c32 -32 39 -35 75 -30 22 3 94 27 160 54 66 27 170 62 230 77 265 65 603 285
686 447 10 20 19 45 19 55 -1 10 -13 -7 -27 -37 -15 -30 -47 -75 -72 -100
-172 -171 -397 -300 -601 -345 -63 -14 -137 -37 -165 -50 -80 -38 -214 -85
-244 -85 -32 0 -68 34 -80 76 -4 16 -9 115 -10 219 -2 158 -6 208 -26 300 -13
61 -27 135 -31 165 -3 30 -22 127 -41 215 -53 250 -82 418 -84 489 -1 23 -5
55 -9 71 -6 19 -7 2 -4 -45z"/>
<path d="M4765 3260 c-19 -5 17 -8 95 -8 78 0 118 3 105 8 -24 10 -159 10
-200 0z"/>
<path d="M4708 3243 c7 -3 16 -2 19 1 4 3 -2 6 -13 5 -11 0 -14 -3 -6 -6z"/>
<path d="M4241 3051 c-25 -35 -26 -42 -6 -35 8 4 15 13 15 21 0 9 8 22 18 29
9 7 12 14 5 14 -6 0 -21 -13 -32 -29z"/>
<path d="M4818 2953 c23 -2 59 -2 80 0 20 2 1 4 -43 4 -44 0 -61 -2 -37 -4z"/>
<path d="M4723 2943 c9 -2 25 -2 35 0 9 3 1 5 -18 5 -19 0 -27 -2 -17 -5z"/>
<path d="M4975 2940 c17 -4 39 -8 50 -8 16 0 15 2 -5 8 -14 4 -36 8 -50 8 -22
0 -22 -1 5 -8z"/>
<path d="M4610 2925 c-45 -17 -29 -18 40 0 39 9 46 13 25 13 -16 0 -46 -6 -65
-13z"/>
<path d="M4525 2893 c-35 -18 -95 -73 -95 -86 0 -5 9 2 21 17 12 15 44 40 73
56 53 31 54 41 1 13z"/>
<path d="M3580 2590 c-6 -11 -7 -20 -2 -20 6 0 12 9 15 20 3 11 3 20 1 20 -2
0 -8 -9 -14 -20z"/>
<path d="M2413 2495 c0 -14 4 -25 9 -25 5 0 6 5 2 12 -4 7 -3 8 4 4 7 -4 12
-16 12 -27 0 -13 -4 -18 -12 -13 -7 4 -8 3 -4 -4 13 -21 26 -13 26 16 0 16 -8
37 -19 46 -18 16 -18 16 -18 -9z"/>
<path d="M2431 2364 c-1 -6 6 -33 14 -60 8 -26 12 -59 8 -73 -4 -17 -3 -22 7
-16 7 4 10 20 8 36 -3 19 -1 28 6 26 6 -2 10 -19 9 -38 l-2 -34 9 30 c9 26 7
33 -13 50 -12 11 -28 36 -34 55 -6 19 -11 30 -12 24z"/>
<path d="M2472 2180 c0 -14 2 -19 5 -12 2 6 2 18 0 25 -3 6 -5 1 -5 -13z"/>
<path d="M3750 2103 c-138 -117 -347 -234 -469 -263 l-54 -13 7 -59 c5 -49 2
-69 -19 -118 -35 -84 -33 -132 12 -221 30 -61 60 -97 169 -206 73 -73 138
-142 144 -153 6 -11 14 -19 18 -19 19 3 30 -2 36 -18 6 -15 4 -15 -14 2 -11
10 -20 13 -20 7 0 -18 66 -63 103 -69 55 -9 118 32 153 98 21 41 36 231 24
306 -9 56 -8 67 11 105 25 49 44 156 44 248 0 55 -5 75 -34 130 -31 60 -35 74
-40 181 l-6 117 -65 -55z m125 -312 c-6 -5 -25 10 -25 20 0 5 6 4 14 -3 8 -7
12 -15 11 -17z"/>
<path d="M3097 1959 c-32 -27 -54 -49 -49 -49 4 0 33 22 63 50 70 63 61 63
-14 -1z"/>
<path d="M6248 1410 c-7 -24 -3 -38 8 -28 3 4 4 17 2 30 l-3 23 -7 -25z"/>
<path d="M6217 1363 c-13 -12 -7 -23 12 -23 11 0 23 -9 26 -20 9 -28 28 -25
20 3 -10 33 -43 56 -58 40z"/>
<path d="M5961 1326 c2 -2 20 -11 39 -20 l35 -17 -24 21 c-13 11 -30 20 -39
20 -8 0 -13 -2 -11 -4z"/>
<path d="M5940 1250 c0 -14 46 -60 60 -60 16 0 12 15 -11 44 -20 26 -49 35
-49 16z"/>
<path d="M6148 1203 c7 -3 16 -2 19 1 4 3 -2 6 -13 5 -11 0 -14 -3 -6 -6z"/>
<path d="M6113 1123 c9 -2 25 -2 35 0 9 3 1 5 -18 5 -19 0 -27 -2 -17 -5z"/>
<path d="M3994 1105 c3 -11 7 -35 11 -52 4 -18 11 -33 16 -33 11 0 5 27 -17
75 -8 17 -12 21 -10 10z"/>
<path d="M6176 1105 c4 -8 8 -15 10 -15 2 0 4 7 4 15 0 8 -4 15 -10 15 -5 0
-7 -7 -4 -15z"/>
<path d="M6122 1019 c2 -6 8 -10 13 -10 5 0 11 4 13 10 2 6 -4 11 -13 11 -9 0
-15 -5 -13 -11z"/>
<path d="M3942 990 c0 -14 2 -19 5 -12 2 6 2 18 0 25 -3 6 -5 1 -5 -13z"/>
<path d="M6302 923 c17 -41 30 -52 26 -23 -4 30 -16 50 -28 50 -5 0 -4 -12 2
-27z"/>
<path d="M6250 886 c0 -2 8 -10 18 -17 15 -13 16 -12 3 4 -13 16 -21 21 -21
13z"/>
<path d="M3990 840 c-6 -11 -7 -20 -2 -20 6 0 12 9 15 20 3 11 3 20 1 20 -2 0
-8 -9 -14 -20z"/>
<path d="M6410 856 c0 -2 8 -10 18 -17 15 -13 16 -12 3 4 -13 16 -21 21 -21
13z"/>
<path d="M3720 840 c0 -6 81 -33 84 -28 1 2 7 10 14 19 11 14 6 16 -43 15 -30
0 -55 -3 -55 -6z"/>
<path d="M3735 790 c4 -6 11 -8 16 -5 14 9 11 15 -7 15 -8 0 -12 -5 -9 -10z"/>
<path d="M3660 786 c0 -2 9 -6 20 -9 11 -3 20 -1 20 4 0 5 -9 9 -20 9 -11 0
-20 -2 -20 -4z"/>
<path d="M3951 781 c-8 -5 -9 -11 -3 -15 5 -3 12 1 16 9 6 17 6 18 -13 6z"/>
<path d="M3733 750 c14 -11 31 -20 39 -20 18 1 -30 40 -49 40 -11 0 -7 -7 10
-20z"/>
<path d="M3571 538 c-1 -32 4 -60 10 -64 7 -4 9 -22 6 -46 -6 -47 -4 -46 27
16 13 25 17 41 10 35 -20 -17 -34 -2 -35 39 0 20 -4 46 -9 57 -6 14 -9 4 -9
-37z"/>
<path d="M6810 515 c1 -12 39 -59 44 -54 2 2 -7 18 -20 34 -13 17 -24 26 -24
20z"/>
<path d="M6690 492 c0 -5 10 -17 21 -28 22 -19 22 -19 10 3 -12 24 -31 39 -31
25z"/>
<path d="M4041 439 c-2 -23 24 -53 40 -46 11 4 11 6 -2 6 -8 1 -20 13 -26 29
-6 15 -11 20 -12 11z"/>
<path d="M3958 363 c7 -3 16 -2 19 1 4 3 -2 6 -13 5 -11 0 -14 -3 -6 -6z"/>
<path d="M3996 341 c-4 -6 -13 -8 -20 -5 -8 3 -17 1 -20 -4 -3 -5 5 -12 19
-14 15 -3 26 0 30 10 7 18 0 28 -9 13z"/>
<path d="M3750 30 c-13 -8 -12 -10 3 -10 9 0 17 5 17 10 0 12 -1 12 -20 0z"/>
<path d="M3785 30 c-3 -5 1 -10 10 -10 9 0 13 5 10 10 -3 6 -8 10 -10 10 -2 0
-7 -4 -10 -10z"/>
<path d="M3824 29 c-2 -4 30 -7 71 -7 41 0 77 4 81 9 3 6 -23 9 -71 7 -42 -1
-78 -5 -81 -9z"/>
<path d="M4006 32 c-2 -4 4 -8 14 -8 10 0 16 4 14 8 -7 10 -21 10 -28 0z"/>
</g>
</svg>
