<?xml version="1.0" standalone="no"?>
<!DOCTYPE svg PUBLIC "-//W3C//DTD SVG 20010904//EN"
 "http://www.w3.org/TR/2001/REC-SVG-20010904/DTD/svg10.dtd">
<svg version="1.0" xmlns="http://www.w3.org/2000/svg"
 width="225.000000pt" height="225.000000pt" viewBox="0 0 225.000000 225.000000"
 preserveAspectRatio="xMidYMid meet">

<g transform="translate(0.000000,225.000000) scale(0.100000,-0.100000)"
fill="#000000" stroke="none">
<path d="M1050 2228 c-25 -13 -55 -39 -68 -58 -20 -30 -23 -45 -20 -101 4 -76
36 -136 90 -169 l31 -19 -39 -6 c-96 -15 -200 -47 -222 -69 -21 -20 -25 -44
-47 -242 -14 -120 -25 -237 -25 -260 0 -49 23 -74 68 -74 31 0 72 29 72 50 0
26 42 375 46 379 13 14 0 -397 -21 -659 -31 -384 -31 -391 -2 -418 46 -44 128
-20 141 40 3 13 12 115 21 228 27 355 25 340 50 340 26 0 24 11 50 -330 18
-238 21 -256 46 -281 28 -28 89 -26 117 4 28 30 28 47 -3 422 -16 190 -25 368
-24 485 0 102 2 181 4 175 4 -9 45 -364 45 -385 0 -6 9 -19 20 -30 26 -26 81
-26 103 -2 22 25 22 59 -8 317 -21 189 -27 221 -46 241 -20 22 -122 54 -217
69 l-42 7 39 29 c53 37 83 97 83 163 1 80 -32 130 -105 161 -50 21 -85 19
-137 -7z m139 -13 c105 -54 117 -181 26 -272 -38 -39 -47 -43 -90 -43 -43 0
-52 4 -90 43 -69 68 -82 160 -33 222 48 61 126 82 187 50z m-51 -346 c-2 -6
-8 -10 -13 -10 -5 0 -11 4 -13 10 -2 6 4 11 13 11 9 0 15 -5 13 -11z m-34 -18
c3 -4 -4 -83 -16 -175 l-22 -167 28 -56 28 -57 32 52 32 52 -22 167 c-12 93
-19 174 -17 181 3 6 19 12 37 12 44 0 218 -48 235 -65 10 -10 22 -79 37 -217
13 -112 25 -223 28 -249 5 -37 2 -49 -14 -67 -25 -27 -41 -28 -69 -4 -19 15
-24 40 -46 232 -14 118 -25 218 -25 223 0 12 -28 8 -32 -5 -12 -37 4 -534 25
-788 15 -172 21 -294 16 -308 -19 -49 -98 -49 -119 0 -5 13 -20 151 -32 308
l-23 285 -40 0 -40 0 -23 -285 c-12 -157 -27 -295 -32 -308 -21 -49 -100 -49
-119 0 -5 14 3 160 20 367 25 313 36 672 22 724 -3 14 -33 26 -33 14 0 -13
-41 -379 -46 -410 -10 -66 -73 -84 -103 -29 -13 25 41 498 60 517 18 18 181
63 231 64 20 1 39 -3 42 -8z m45 -201 c18 -142 18 -145 -2 -177 -10 -18 -20
-33 -22 -33 -2 0 -12 15 -23 33 -19 33 -19 35 -1 168 10 74 19 143 19 154 3
38 10 -2 29 -145z"/>
<path d="M314 1926 c-93 -42 -116 -174 -47 -264 50 -66 114 -88 171 -58 116
60 138 238 39 308 -37 27 -120 34 -163 14z"/>
<path d="M1786 1917 c-112 -64 -96 -249 26 -313 106 -55 243 89 207 218 -28
102 -141 148 -233 95z"/>
<path d="M210 1549 c-98 -25 -127 -37 -135 -57 -4 -10 -19 -124 -34 -254 -31
-277 -29 -297 41 -298 46 0 55 29 78 240 24 225 27 243 40 235 19 -12 11 -381
-15 -695 -31 -378 -31 -404 -5 -430 25 -25 71 -26 100 -2 22 18 24 34 46 293
13 151 23 286 24 300 0 24 4 26 33 24 l32 -2 24 -289 c15 -195 28 -296 37
-311 29 -47 111 -40 128 9 7 19 1 133 -17 365 -28 341 -37 743 -18 743 11 0
16 -30 41 -259 22 -199 30 -221 80 -221 35 0 60 28 60 68 0 17 -11 131 -25
254 -21 182 -29 226 -44 241 -21 22 -185 67 -241 67 -29 0 -39 -5 -42 -17 -2
-10 6 -92 17 -183 l22 -165 -27 -43 -27 -44 -26 44 -25 44 21 165 c11 91 18
173 14 182 -9 23 -60 21 -157 -4z"/>
<path d="M1676 1545 c-48 -12 -97 -31 -107 -41 -15 -16 -23 -60 -44 -242 -14
-123 -25 -238 -25 -256 0 -39 26 -66 62 -66 48 0 56 24 78 216 27 245 30 264
41 264 19 0 10 -425 -16 -730 -14 -162 -25 -313 -25 -336 0 -53 33 -87 80 -82
61 6 66 22 92 342 l23 289 33 2 c28 2 32 0 32 -24 1 -14 11 -149 24 -300 22
-259 24 -275 46 -293 39 -32 93 -22 114 21 10 22 8 81 -15 361 -29 344 -39
733 -19 745 13 8 16 -10 40 -234 12 -107 26 -203 31 -213 11 -21 49 -32 78
-23 37 11 38 47 10 298 -32 285 -25 273 -167 306 -109 26 -150 27 -159 5 -3
-9 3 -91 14 -181 l21 -165 -26 -45 -25 -45 -23 38 c-28 46 -29 66 -5 246 10
81 14 143 9 153 -12 21 -65 18 -172 -10z"/>
<path d="M1396 577 c-17 -17 -102 -108 -190 -200 l-160 -168 -103 108 -102
108 -1 -102 0 -103 102 -110 103 -109 130 137 c72 75 159 166 193 202 l61 65
1 103 c0 56 -1 102 -2 102 -2 0 -16 -15 -32 -33z"/>
</g>
</svg>
