<?xml version="1.0" standalone="no"?>
<!DOCTYPE svg PUBLIC "-//W3C//DTD SVG 20010904//EN"
 "http://www.w3.org/TR/2001/REC-SVG-20010904/DTD/svg10.dtd">
<svg version="1.0" xmlns="http://www.w3.org/2000/svg"
 width="820.000000pt" height="597.000000pt" viewBox="0 0 820.000000 597.000000"
 preserveAspectRatio="xMidYMid meet">

<g transform="translate(0.000000,597.000000) scale(0.100000,-0.100000)"
fill="#000000" stroke="none">
<path d="M5065 5528 c-11 -7 -25 -13 -30 -14 -23 -4 -74 -41 -67 -49 4 -5 1
-5 -6 -1 -34 20 -91 -85 -77 -142 5 -19 3 -23 -9 -19 -18 7 -46 -28 -46 -57 0
-11 12 -33 27 -49 19 -19 22 -26 10 -22 -9 4 -17 11 -17 17 0 5 -5 6 -10 3 -8
-5 -8 -11 -1 -19 6 -7 8 -16 4 -20 -4 -4 3 -9 15 -13 20 -5 22 -11 22 -88 l0
-82 -36 -25 c-43 -31 -110 -117 -134 -173 -35 -82 -35 -82 15 -117 25 -18 43
-38 41 -45 -3 -7 1 -10 9 -7 8 3 21 -6 31 -21 17 -26 21 -27 73 -20 31 4 66 8
78 9 12 0 19 3 17 5 -8 8 57 41 68 35 7 -4 8 -2 4 4 -7 12 5 16 33 13 7 -2 10
2 7 7 -3 5 5 7 18 5 13 -3 27 1 31 7 5 9 1 10 -16 5 -19 -5 -21 -4 -9 4 8 6
22 11 32 11 20 0 93 80 148 162 37 55 57 107 26 65 -13 -16 -14 -16 -19 9 -2
14 1 42 8 62 26 76 44 146 39 154 -3 4 -12 8 -21 8 -11 0 -14 -6 -9 -24 4 -16
0 -30 -10 -40 -22 -22 -39 -20 -61 7 -10 13 -25 27 -33 31 -9 3 -6 5 7 2 12
-2 27 2 33 10 12 14 6 34 -11 34 -23 0 -40 31 -38 68 2 21 0 43 -4 49 -8 13 8
27 22 18 6 -3 13 -26 17 -50 3 -25 10 -48 15 -51 5 -3 9 -1 9 3 0 15 70 9 81
-7 9 -12 10 -10 6 8 -3 13 1 39 9 57 28 67 12 142 -46 220 -13 17 -63 55 -73
55 -1 0 -1 -16 1 -37 4 -31 2 -35 -13 -30 -9 4 -21 7 -26 7 -5 0 -9 10 -9 23
-1 37 -23 57 -66 57 -21 0 -48 -6 -59 -12z m217 -115 c23 -9 45 -27 53 -44 18
-35 19 -53 3 -42 -7 4 -30 9 -50 10 -35 2 -38 1 -38 -25 -1 -25 -2 -26 -15 -8
-7 10 -18 15 -24 12 -6 -4 -13 5 -17 19 -3 14 -11 25 -18 25 -6 0 -29 9 -51
20 -32 15 -34 18 -11 13 26 -5 27 -4 17 15 -6 11 -11 24 -11 28 0 11 119 -6
162 -23z m-179 -80 c-7 -2 -19 -2 -25 0 -7 3 -2 5 12 5 14 0 19 -2 13 -5z
m244 -68 c1 -17 0 -23 -4 -15 -3 8 -13 23 -22 34 -15 17 -15 18 4 15 14 -3 21
-13 22 -34z m-249 -3 c2 -7 -2 -10 -12 -6 -9 3 -16 11 -16 16 0 13 23 5 28
-10z m42 -20 c0 -4 -7 -18 -16 -30 -11 -17 -13 -26 -5 -36 11 -13 -11 -56 -29
-56 -17 0 -9 78 9 85 13 6 12 9 -9 18 l-25 10 30 7 c43 11 45 11 45 2z m150
-17 c0 -9 -6 -12 -15 -9 -8 4 -15 10 -15 15 0 5 7 9 15 9 8 0 15 -7 15 -15z
m-222 -13 c3 -9 -2 -13 -14 -10 -9 1 -19 9 -22 16 -3 9 2 13 14 10 9 -1 19 -9
22 -16z m99 -44 c-3 -8 -6 -5 -6 6 -1 11 2 17 5 13 3 -3 4 -12 1 -19z m-17
-68 c0 -5 -4 -10 -10 -10 -5 0 -10 5 -10 10 0 6 5 10 10 10 6 0 10 -4 10 -10z
m55 -40 c3 -5 1 -10 -4 -10 -6 0 -11 5 -11 10 0 6 2 10 4 10 3 0 8 -4 11 -10z
m-22 -37 c-7 -2 -19 -2 -25 0 -7 3 -2 5 12 5 14 0 19 -2 13 -5z m-318 -104
c-6 -33 -15 -36 -15 -6 0 15 4 27 9 27 6 0 8 -10 6 -21z m-45 -174 c-14 -23
-19 -42 -14 -53 21 -49 15 -53 -35 -20 -54 36 -59 51 -18 56 15 2 39 16 54 32
35 38 41 31 13 -15z m30 -140 c20 -24 6 -28 -15 -5 -10 11 -13 20 -8 20 6 0
16 -7 23 -15z"/>
<path d="M5150 5391 c0 -5 7 -11 15 -15 8 -3 15 -1 15 3 0 5 -7 11 -15 15 -8
3 -15 1 -15 -3z"/>
<path d="M5265 5379 c18 -5 33 -5 39 1 7 7 -4 10 -29 9 -40 -1 -40 -1 -10 -10z"/>
<path d="M5205 5360 c3 -5 8 -10 11 -10 2 0 4 5 4 10 0 6 -5 10 -11 10 -5 0
-7 -4 -4 -10z"/>
<path d="M3971 5092 c-16 -11 -11 -14 56 -36 29 -10 62 -14 74 -11 20 7 19 8
-10 26 -37 22 -101 33 -120 21z"/>
<path d="M3870 5037 l-45 -21 40 -4 c22 -2 47 -10 56 -18 12 -11 27 -13 53 -9
24 5 36 3 36 -4 0 -6 -9 -11 -20 -11 -27 0 -25 -18 3 -22 14 -2 22 -10 22 -23
0 -29 -33 -31 -46 -3 -6 13 -32 33 -58 46 -56 26 -103 22 -127 -12 -11 -15
-18 -17 -21 -8 -8 21 -76 -58 -75 -88 4 -106 1 -186 -9 -248 -11 -70 -9 -153
10 -317 10 -89 14 -97 59 -123 55 -30 119 -37 167 -17 65 27 289 153 314 176
l23 22 -7 -34 c-13 -57 -33 -214 -29 -221 3 -4 5 -30 5 -58 2 -47 18 -84 20
-43 1 36 10 108 14 120 2 7 0 15 -6 18 -5 4 -7 10 -4 14 2 5 6 23 9 42 5 47
24 111 37 129 7 11 9 3 5 -30 -16 -128 -18 -160 -8 -160 6 0 13 19 17 41 4 23
13 56 20 73 7 17 16 56 21 86 4 30 9 47 11 38 3 -10 -3 -56 -12 -104 -15 -81
-15 -87 1 -105 12 -14 31 -19 65 -19 53 0 54 1 64 48 6 31 5 32 -24 32 -17 0
-30 -3 -28 -8 1 -4 -2 -9 -7 -12 -11 -6 -9 95 2 149 4 19 13 36 20 39 9 3 11
-3 6 -22 -5 -19 -2 -26 9 -26 8 0 22 -3 30 -6 10 -4 18 5 26 29 15 43 6 66
-28 73 -14 3 -36 9 -48 12 l-22 7 20 43 c11 23 21 42 23 42 14 0 163 -54 174
-63 11 -9 18 -6 33 13 10 14 17 31 14 38 -2 6 2 12 9 12 7 0 19 6 25 14 9 11
8 15 -4 20 -9 3 -13 2 -10 -4 3 -6 -4 -10 -16 -10 -16 0 -19 3 -11 13 8 10 2
20 -24 41 -20 15 -38 25 -42 21 -3 -3 0 -10 8 -16 13 -8 13 -10 0 -18 -8 -5
-19 -7 -25 -3 -5 4 -17 7 -25 7 -8 0 -21 4 -29 9 -8 5 -26 9 -40 10 -21 1 -27
7 -29 30 -3 27 -2 28 32 24 20 -2 36 0 36 4 0 4 -8 8 -17 8 -21 1 -74 29 -55
30 6 0 12 7 12 15 0 18 5 18 31 5 33 -18 21 -3 -15 18 -18 11 -49 23 -67 27
-64 13 -99 27 -99 40 0 14 -45 29 -60 20 -4 -3 -33 5 -64 16 -56 22 -81 20
-57 -4 6 -6 26 -17 44 -23 32 -11 36 -22 22 -56 -4 -11 -3 -18 4 -18 6 0 13
11 17 25 3 14 8 25 9 25 13 0 105 -53 105 -60 0 -5 20 -12 45 -16 25 -3 45
-10 45 -14 0 -10 -82 -3 -89 7 -19 26 -91 44 -91 24 0 -11 -57 -20 -67 -10
-14 13 -56 14 -60 1 -3 -7 7 -15 25 -18 20 -4 29 -11 25 -20 -4 -11 -7 -11
-20 1 -8 8 -21 15 -28 15 -8 0 -22 12 -32 26 -13 20 -14 30 -5 44 9 15 8 17
-10 12 -16 -4 -19 -2 -13 8 6 10 3 12 -11 7 -11 -4 -5 5 15 23 49 42 32 48
-26 9 -43 -29 -45 -29 -25 -7 21 23 22 27 7 30 -15 3 -14 6 6 31 18 24 20 31
8 38 -8 5 -18 9 -22 9 -5 0 -5 5 -2 10 3 6 19 10 36 10 16 0 29 5 29 10 0 6
-6 10 -13 10 -7 0 -23 11 -35 25 -12 14 -33 25 -46 25 -14 0 -28 5 -31 10 -9
15 -35 11 -85 -13z m-46 -133 c9 -3 16 -12 16 -19 0 -8 14 -25 31 -38 21 -17
30 -30 26 -41 -9 -22 -34 -20 -42 4 -3 11 -15 25 -26 30 -10 6 -19 17 -19 24
0 8 -7 16 -15 20 -8 3 -15 10 -15 16 0 11 20 13 44 4z m469 -214 c15 0 36 -9
47 -20 11 -11 25 -20 30 -20 21 0 9 -19 -19 -28 -34 -12 -41 -8 -41 25 0 25
-14 29 -55 13 -18 -7 -24 -7 -20 0 4 6 1 18 -7 27 -12 15 -10 16 12 10 14 -4
37 -7 53 -7z m-7 -67 c-4 -23 -44 -53 -73 -53 -22 0 -25 -4 -21 -25 6 -28 0
-31 -27 -11 -27 20 -13 42 37 54 43 12 82 31 63 32 -5 0 -3 5 5 10 19 12 19
13 16 -7z m148 -62 c4 -5 -3 -7 -14 -4 -23 6 -26 13 -6 13 8 0 17 -4 20 -9z
m-421 -164 c7 4 7 1 -2 -10 -14 -17 -26 -14 -66 17 -18 15 -17 15 18 1 21 -9
43 -12 50 -8z m307 -27 c0 -5 -5 -10 -11 -10 -5 0 -7 5 -4 10 3 6 8 10 11 10
2 0 4 -4 4 -10z m-190 -21 l45 -6 -42 -2 c-46 -1 -73 6 -73 21 0 5 6 6 13 1 6
-4 32 -10 57 -14z"/>
<path d="M4210 4966 c0 -2 19 -16 43 -32 23 -15 63 -48 89 -72 32 -31 62 -49
95 -57 26 -7 50 -11 52 -9 9 9 -44 54 -75 64 -19 7 -34 18 -34 26 0 7 -19 24
-41 36 -23 13 -51 29 -63 35 -19 12 -66 18 -66 9z"/>
<path d="M4764 4928 c-49 -45 -85 -100 -108 -165 -11 -31 -12 -43 -3 -46 7 -2
13 5 13 18 2 28 42 120 50 112 3 -3 1 -16 -5 -29 -10 -20 -10 -21 1 -4 7 10
30 41 51 67 20 27 34 49 30 49 -5 1 3 10 16 20 13 11 18 20 12 20 -6 0 -32
-19 -57 -42z m-5 -38 c-18 -22 -34 -38 -37 -36 -6 7 49 76 60 76 5 0 -6 -18
-23 -40z"/>
<path d="M4180 4906 c0 -9 30 -14 35 -6 4 6 -3 10 -14 10 -12 0 -21 -2 -21 -4z"/>
<path d="M4241 4901 c-15 -10 2 -25 38 -34 19 -5 21 -4 10 6 -8 7 -19 17 -25
24 -5 6 -16 8 -23 4z"/>
<path d="M4504 4868 l-29 -33 33 29 c30 28 37 36 29 36 -2 0 -16 -15 -33 -32z"/>
<path d="M4566 4875 c-10 -8 -22 -12 -26 -10 -4 3 -16 -5 -26 -17 -11 -12 -14
-18 -7 -15 6 4 13 2 15 -3 2 -6 19 5 38 25 36 37 38 44 6 20z"/>
<path d="M5417 4815 c-20 -14 -37 -22 -37 -18 0 21 -67 -61 -95 -118 -60 -118
-78 -185 -71 -264 13 -134 11 -130 74 -151 45 -15 72 -34 130 -90 39 -40 72
-66 72 -59 0 7 5 15 11 17 11 4 28 68 29 111 0 24 -3 27 -27 22 -16 -2 -29 -9
-31 -15 -4 -11 -45 -14 -55 -4 -3 3 10 22 29 41 19 19 32 38 29 44 -4 5 -1 9
5 9 6 0 20 9 32 20 l22 20 -34 0 c-41 0 -29 17 14 22 22 2 33 -3 40 -17 16
-29 47 -20 76 23 65 96 70 120 46 207 -12 43 -15 47 -22 27 -4 -14 -12 -21
-20 -18 -8 3 -14 -1 -14 -9 0 -9 -9 -15 -21 -15 -15 0 -19 -5 -15 -16 7 -18
-22 -66 -38 -61 -6 2 -19 -6 -29 -17 -17 -19 -18 -19 -13 -2 5 13 2 17 -9 12
-10 -4 -15 1 -15 15 0 11 -5 30 -11 41 -9 17 -13 18 -20 7 -7 -10 -9 -3 -7 21
3 58 -1 101 -10 96 -5 -3 -18 14 -30 37 l-21 42 27 14 c14 8 33 20 40 28 10 9
25 12 46 8 23 -5 27 -4 16 4 -24 17 -53 13 -93 -14z m-160 -347 c-2 -13 -4 -5
-4 17 -1 22 1 32 4 23 2 -10 2 -28 0 -40z m-20 -40 c-2 -13 -4 -3 -4 22 0 25
2 35 4 23 2 -13 2 -33 0 -45z m80 -68 c-2 -22 2 -42 8 -44 5 -2 2 -7 -7 -11
-10 -4 -27 0 -40 9 -18 13 -19 16 -5 16 9 0 17 7 17 15 0 13 21 55 27 55 1 0
1 -18 0 -40z m123 30 c0 -5 -9 -10 -21 -10 -11 0 -17 5 -14 10 3 6 13 10 21
10 8 0 14 -4 14 -10z m-67 -61 c-8 -8 -16 -8 -30 0 -16 9 -14 10 12 11 21 0
26 -3 18 -11z m-13 -49 c0 -5 -4 -10 -10 -10 -5 0 -10 5 -10 10 0 6 5 10 10
10 6 0 10 -4 10 -10z m86 -53 c21 7 39 -32 35 -74 0 -7 -6 -13 -12 -13 -5 0
-7 4 -4 10 3 5 -5 15 -19 22 -14 6 -26 14 -26 18 0 4 -12 20 -27 35 l-28 27
35 -14 c19 -8 40 -13 46 -11z"/>
<path d="M4686 4773 c-6 -14 -5 -15 5 -6 7 7 10 15 7 18 -3 3 -9 -2 -12 -12z"/>
<path d="M4545 4650 c3 -5 16 -10 28 -9 21 0 21 1 2 9 -28 12 -37 12 -30 0z"/>
<path d="M5066 4619 c6 -11 -46 -40 -58 -33 -6 4 -8 3 -4 -4 6 -10 -89 -52
-119 -52 -8 0 -15 -5 -15 -11 0 -7 10 -9 28 -5 33 8 158 70 192 95 l24 19 -26
-1 c-14 -1 -24 -5 -22 -8z"/>
<path d="M4853 4543 c9 -2 23 -2 30 0 6 3 -1 5 -18 5 -16 0 -22 -2 -12 -5z"/>
<path d="M4746 4524 c-17 -12 -16 -15 14 -44 40 -39 54 -30 15 10 -16 17 -24
30 -18 30 6 0 16 -7 23 -15 7 -9 27 -25 43 -37 l30 -21 -17 24 c-8 14 -28 34
-44 46 -24 18 -31 19 -46 7z"/>
<path d="M4678 4465 c-28 -26 -33 -35 -20 -36 9 0 12 -3 5 -5 -7 -3 -21 0 -32
6 -14 7 -21 7 -21 0 0 -5 -6 -10 -13 -10 -8 0 -21 -8 -29 -17 -17 -20 -58
-194 -58 -248 0 -33 2 -35 35 -35 33 0 35 2 35 34 0 47 9 66 31 66 17 0 19 -5
13 -54 l-6 -53 33 -6 c19 -2 35 -4 36 -3 1 1 9 44 18 96 8 52 18 108 21 124
l6 29 24 -29 c21 -26 23 -39 24 -121 0 -102 10 -123 60 -123 23 0 30 6 40 34
l11 34 87 -87 c48 -48 120 -109 161 -136 41 -26 96 -68 123 -92 71 -62 101
-60 178 13 80 76 103 113 144 232 36 104 50 222 26 222 -17 0 -24 -31 -12 -51
16 -24 15 -29 -3 -29 -8 0 -15 -8 -15 -18 0 -9 -10 -28 -23 -42 -22 -24 -77
-132 -77 -152 0 -6 -9 -23 -21 -39 -21 -30 -54 -39 -61 -17 -5 13 -3 15 37 61
32 36 33 75 3 86 -13 5 -28 6 -34 4 -6 -2 -25 12 -43 32 -36 41 -42 27 -8 -19
39 -52 42 -59 20 -48 -11 6 -25 18 -33 26 -7 9 -21 16 -31 16 -10 0 -17 6 -14
13 2 6 -9 22 -26 35 -16 13 -29 19 -29 13 0 -5 10 -17 22 -25 12 -9 19 -19 15
-23 -4 -4 -24 9 -45 29 -40 38 -169 128 -158 109 18 -28 -15 -5 -84 60 -75 71
-175 135 -164 104 4 -8 12 -15 20 -15 8 0 14 -5 14 -11 0 -5 -6 -7 -12 -3 -25
15 -103 79 -111 92 -12 18 -18 15 -59 -23z m-23 -137 c-9 -54 -12 -58 -36 -58
-15 0 -19 5 -15 18 2 9 7 32 11 50 5 23 12 32 27 32 18 0 19 -4 13 -42z m952
-70 c-3 -7 -5 -2 -5 12 0 14 2 19 5 13 2 -7 2 -19 0 -25z m-257 -243 c31 -21
38 -35 17 -35 -7 0 -32 18 -56 40 -23 22 -46 40 -49 40 -4 0 -13 9 -20 21 -10
16 -2 13 33 -13 25 -18 59 -42 75 -53z"/>
<path d="M5601 4338 c-1 -16 4 -28 9 -28 12 0 12 8 0 35 -8 18 -9 17 -9 -7z"/>
<path d="M5220 4246 c0 -2 8 -10 18 -17 15 -13 16 -12 3 4 -13 16 -21 21 -21
13z"/>
<path d="M5260 4213 c1 -11 26 -43 34 -43 15 0 4 30 -14 40 -11 6 -20 7 -20 3z"/>
<path d="M4521 4021 c-7 -5 -17 -30 -22 -57 -10 -52 -3 -64 39 -64 17 0 22 6
22 24 0 25 15 43 24 28 2 -4 2 -27 -1 -50 -5 -37 -11 -46 -48 -67 -23 -14 -50
-33 -59 -44 -19 -21 -58 -153 -48 -162 7 -7 154 -30 159 -25 2 1 6 17 9 34 6
31 5 32 -27 32 -81 1 -77 54 6 103 28 16 53 34 56 39 3 5 12 40 18 78 15 81 7
105 -44 126 -39 16 -64 18 -84 5z"/>
<path d="M4735 3955 c-34 -33 -35 -90 -2 -99 38 -10 47 -7 47 18 0 27 17 43
30 30 5 -5 6 -28 3 -51 -5 -37 -9 -43 -29 -43 -20 0 -24 -5 -24 -29 0 -21 6
-32 20 -36 17 -6 20 -12 15 -43 -10 -55 -13 -62 -30 -62 -9 0 -15 9 -15 24 0
18 -7 25 -32 30 -36 7 -48 -4 -48 -46 0 -64 126 -97 168 -43 24 30 39 130 23
149 -8 10 -7 16 3 25 19 16 32 132 17 159 -7 13 -28 24 -61 31 -64 14 -57 15
-85 -14z"/>
<path d="M4191 3884 c0 -11 3 -14 6 -6 3 7 2 16 -1 19 -3 4 -6 -2 -5 -13z"/>
<path d="M4186 3806 c-4 -17 -2 -41 5 -58 9 -23 9 -41 -1 -86 -7 -31 -17 -61
-21 -66 -4 -5 -3 -20 2 -35 l10 -26 -25 24 c-14 13 -27 33 -29 45 -3 18 -4 19
-11 4 -10 -21 32 -78 77 -107 82 -53 111 -75 140 -109 118 -134 261 -227 455
-292 106 -35 204 -39 210 -9 2 13 -9 18 -55 24 -158 19 -416 141 -557 265 -29
26 -69 56 -87 68 -19 11 -40 31 -48 44 -9 16 -3 13 23 -11 48 -46 55 -34 11
19 -57 68 -42 64 42 -14 18 -16 35 -27 38 -24 3 3 -22 31 -57 63 -35 32 -50
50 -35 40 44 -28 44 -9 1 37 -21 23 -6 12 35 -25 40 -37 78 -67 83 -67 5 0
-22 30 -59 68 -74 73 -120 148 -132 214 -7 42 -7 42 -15 14z"/>
<path d="M4161 3614 c0 -11 3 -14 6 -6 3 7 2 16 -1 19 -3 4 -6 -2 -5 -13z"/>
<path d="M4059 3583 c-13 -16 -12 -17 4 -4 16 13 21 21 13 21 -2 0 -10 -8 -17
-17z"/>
<path d="M4395 3540 c10 -11 20 -20 23 -20 3 0 -3 9 -13 20 -10 11 -20 20 -23
20 -3 0 3 -9 13 -20z"/>
<path d="M4430 3506 c0 -5 60 -40 85 -50 29 -11 8 8 -38 33 -38 21 -47 24 -47
17z"/>
<path d="M4525 3495 c22 -18 86 -53 70 -38 -5 6 -28 20 -50 32 -22 13 -31 15
-20 6z"/>
<path d="M4080 3465 c0 -8 7 -15 16 -15 14 0 14 3 4 15 -7 8 -14 15 -16 15 -2
0 -4 -7 -4 -15z"/>
<path d="M4143 3473 c-17 -6 4 -28 37 -37 24 -7 24 -6 6 8 -11 9 -24 16 -29
16 -4 0 -5 5 -2 10 7 11 6 11 -12 3z"/>
<path d="M4190 3470 c0 -6 7 -13 15 -17 24 -9 27 1 5 15 -13 8 -20 8 -20 2z"/>
<path d="M4357 3439 c7 -7 15 -10 18 -7 3 3 -2 9 -12 12 -14 6 -15 5 -6 -5z"/>
<path d="M4111 3421 c-9 -16 -8 -18 11 -13 14 3 19 1 14 -6 -4 -7 -2 -12 3
-12 6 0 11 2 11 4 0 2 3 12 6 20 5 12 2 15 -12 9 -12 -4 -15 -3 -10 5 4 7 3
12 -3 12 -6 0 -15 -9 -20 -19z"/>
<path d="M4380 3413 c0 -10 205 -136 285 -176 116 -57 299 -107 344 -92 34 10
26 32 -10 27 -72 -11 -239 48 -405 144 -153 88 -214 116 -214 97z"/>
<path d="M4060 3355 c-7 -8 -8 -15 -2 -15 5 0 15 7 22 15 7 8 8 15 2 15 -5 0
-15 -7 -22 -15z"/>
<path d="M4590 3353 c0 -10 155 -85 240 -117 89 -33 177 -48 201 -35 23 12 25
29 4 29 -8 0 -15 6 -15 13 0 9 -2 9 -9 -1 -13 -21 -93 -5 -226 44 -66 25 -132
51 -147 59 -29 16 -48 19 -48 8z"/>
<path d="M3906 3108 c-3 -35 -9 -82 -12 -106 -3 -23 -3 -55 1 -70 l7 -27 10
25 c5 13 5 26 1 27 -5 2 -7 21 -5 43 2 22 8 37 13 34 8 -4 3 125 -5 133 -2 2
-6 -24 -10 -59z"/>
<path d="M3945 3129 c-12 -19 5 -23 22 -6 16 16 16 17 1 17 -9 0 -20 -5 -23
-11z"/>
<path d="M3926 2998 c-8 -32 -8 -35 7 -35 8 0 14 12 14 29 0 34 -12 37 -21 6z"/>
<path d="M3937 2936 c-4 -10 -5 -21 -2 -24 9 -9 17 6 13 25 -3 17 -4 17 -11
-1z"/>
<path d="M3924 2803 c13 -26 22 -32 46 -31 37 1 41 18 4 18 -14 0 -35 10 -45
23 l-20 22 15 -32z"/>
<path d="M3960 2822 c0 -4 18 -13 40 -19 50 -13 51 -8 4 12 -42 17 -44 18 -44
7z"/>
<path d="M4091 2755 c-30 -9 -50 -11 -62 -4 -27 14 -47 11 -70 -12 -15 -15
-17 -24 -10 -33 7 -9 7 -16 -1 -24 -6 -6 -11 -21 -12 -34 -1 -13 -7 -23 -16
-23 -26 0 -150 -46 -150 -56 0 -5 6 -9 14 -9 28 0 27 -21 -3 -55 -39 -45 -50
-110 -27 -169 20 -52 43 -75 82 -82 34 -6 45 -14 19 -14 -11 0 -36 -12 -57
-26 -36 -26 -39 -26 -64 -9 -14 9 -33 31 -42 48 -10 17 -27 41 -39 54 -22 23
-22 25 -7 61 8 20 31 54 51 74 46 48 37 60 -12 17 -51 -45 -108 -165 -93 -193
6 -12 14 -34 18 -51 4 -21 17 -36 45 -52 22 -12 46 -27 53 -33 6 -6 12 -7 12
-2 0 11 69 44 80 37 10 -6 -22 -106 -44 -140 -20 -31 -336 -218 -336 -199 0 4
12 21 27 36 l27 28 -41 0 c-37 0 -44 -4 -79 -50 -31 -41 -44 -50 -69 -50 -32
0 -86 12 -120 26 -18 7 -18 5 4 -22 43 -55 95 -68 153 -38 l32 16 -33 -41
c-39 -49 -64 -69 -125 -101 -25 -14 -48 -30 -50 -36 -8 -22 15 -111 49 -182
34 -73 55 -92 78 -75 6 6 46 20 87 33 41 12 89 28 105 35 17 8 53 22 80 33 66
27 265 138 287 161 19 21 78 60 193 129 67 40 84 56 113 105 l33 58 30 -21
c16 -12 29 -18 29 -13 0 4 -18 20 -39 36 -62 43 -223 239 -208 253 2 2 17 -15
32 -38 64 -98 217 -250 234 -233 3 4 -3 11 -14 18 -55 31 -235 236 -235 269 0
6 12 -7 26 -28 64 -94 226 -255 242 -239 3 2 -8 15 -24 27 -91 68 -206 211
-233 291 l-19 56 66 7 c37 4 71 7 76 6 4 -2 14 2 21 8 7 6 20 8 29 4 9 -3 16
-1 16 5 0 6 7 11 15 11 9 0 27 11 41 25 14 14 27 25 31 25 3 0 27 16 54 36 69
50 97 103 111 207 13 98 10 105 -56 140 -53 27 -236 35 -305 12z m145 -18 c4
-3 16 -1 28 5 20 10 20 10 6 -7 -11 -14 -12 -19 -2 -22 14 -5 17 -33 3 -33 -5
0 -17 7 -25 16 -14 13 -17 14 -22 1 -9 -24 -42 -27 -68 -6 -13 10 -27 15 -31
11 -4 -4 -6 0 -3 8 2 8 14 20 24 25 22 11 80 12 90 2z m160 -68 c1 -24 -3 -56
-8 -72 -9 -22 -15 -27 -37 -23 -14 2 -30 5 -34 5 -10 1 -5 101 6 101 12 0 8
28 -8 43 -23 23 -6 27 38 8 40 -17 42 -20 43 -62z m-786 -374 c-7 -9 -15 -13
-19 -10 -3 3 1 10 9 15 21 14 24 12 10 -5z m294 -61 c3 -8 2 -12 -4 -9 -6 3
-10 10 -10 16 0 14 7 11 14 -7z m80 0 c9 -24 2 -26 -12 -4 -7 11 -8 20 -3 20
5 0 12 -7 15 -16z m-13 -30 c5 -15 8 -29 5 -31 -2 -2 -8 10 -14 26 -13 38 -5
41 9 5z"/>
<path d="M3765 2600 c-3 -5 -1 -10 4 -10 6 0 11 5 11 10 0 6 -2 10 -4 10 -3 0
-8 -4 -11 -10z"/>
<path d="M3640 2480 c-17 -16 -28 -30 -25 -30 3 0 -2 -14 -10 -31 -25 -48 -12
-44 26 8 19 25 40 55 48 65 22 29 -5 21 -39 -12z"/>
<path d="M3562 2411 c-17 -17 -45 -37 -61 -47 -39 -23 -61 -64 -61 -113 0 -52
12 -52 36 1 16 35 69 115 117 176 16 21 3 13 -31 -17z"/>
<path d="M3551 2333 c-8 -18 -9 -29 -1 -37 7 -7 10 -4 10 11 0 12 5 25 10 28
12 8 13 25 2 25 -5 0 -14 -12 -21 -27z"/>
<path d="M3345 2121 c-14 -28 -21 -52 -17 -54 4 -2 24 -7 45 -11 39 -7 45 -14
25 -34 -8 -8 -8 -15 2 -27 9 -10 31 -15 76 -15 54 0 67 4 91 26 21 20 23 24 8
19 -43 -16 -60 -11 -63 17 -5 38 -27 54 -57 40 -29 -13 -40 -2 -50 51 -10 51
-30 47 -60 -12z"/>
<path d="M3292 2108 c-51 -74 -102 -179 -102 -208 0 -40 26 -52 70 -33 34 14
34 15 12 24 -12 5 -25 16 -29 26 -8 20 29 130 64 191 14 23 22 42 19 42 -3 0
-18 -19 -34 -42z"/>
<path d="M3030 1510 c0 -5 4 -10 9 -10 6 0 13 5 16 10 3 6 -1 10 -9 10 -9 0
-16 -4 -16 -10z"/>
<path d="M2586 1360 c-28 -21 -34 -30 -22 -30 10 0 34 14 53 30 44 39 20 39
-31 0z"/>
<path d="M2743 1383 c2 -5 15 -41 28 -81 19 -62 21 -76 10 -94 -7 -11 -10 -22
-7 -25 3 -3 8 2 12 11 10 27 42 18 77 -21 l34 -36 46 33 c26 18 47 37 47 41 0
14 -60 40 -83 37 -18 -3 -22 2 -22 29 0 37 -8 46 -52 61 -36 12 -38 11 -23
-21 9 -20 9 -20 -2 -3 -7 10 -21 26 -30 35 -10 8 -18 21 -18 28 0 7 -5 13 -11
13 -5 0 -8 -3 -6 -7z m51 -79 c3 -8 2 -12 -4 -9 -6 3 -10 10 -10 16 0 14 7 11
14 -7z"/>
<path d="M2643 1360 c-22 -9 -49 -80 -40 -105 8 -20 88 -29 105 -11 12 12 12
21 -6 67 -21 58 -26 62 -59 49z"/>
<path d="M2650 1184 c0 -3 5 -14 10 -25 13 -24 66 -25 95 -2 19 15 19 15 -6 9
-16 -3 -33 0 -45 9 -19 14 -54 20 -54 9z"/>
<path d="M2820 1150 c0 -5 7 -10 16 -10 8 0 12 5 9 10 -3 6 -10 10 -16 10 -5
0 -9 -4 -9 -10z"/>
<path d="M2517 1064 c-4 -4 -7 -18 -7 -31 0 -14 -6 -23 -15 -23 -22 0 -18 -18
5 -25 11 -3 20 -10 20 -14 0 -4 11 -13 25 -19 13 -6 37 -31 52 -54 15 -24 33
-47 39 -53 5 -5 22 -26 36 -46 33 -45 87 -62 201 -63 67 -1 91 3 130 22 26 13
47 27 47 31 0 17 -14 19 -34 6 -23 -17 -81 -21 -71 -5 3 6 20 10 38 10 21 0
28 3 21 10 -7 7 -30 8 -70 1 -58 -9 -95 -4 -59 9 15 5 13 10 -19 29 -32 20
-41 22 -64 12 -21 -10 -23 -14 -11 -22 7 -5 9 -9 4 -9 -6 0 -16 5 -22 11 -12
12 -46 4 -66 -15 -10 -11 -15 -9 -24 10 -9 19 -8 24 2 24 7 0 19 16 25 36 7
19 20 40 30 46 17 11 17 13 2 25 -9 7 -32 13 -49 13 -27 0 -34 -5 -39 -25 -3
-14 -4 -39 0 -56 5 -27 2 -25 -31 23 -20 29 -43 73 -52 97 -16 44 -30 58 -44
45z m194 -281 c13 -16 12 -17 -3 -4 -17 13 -22 21 -14 21 2 0 10 -8 17 -17z"/>
<path d="M2810 975 c-7 -8 -21 -15 -31 -15 -11 0 -19 -4 -19 -10 0 -5 8 -10
18 -10 11 0 27 -9 37 -20 27 -30 36 -24 33 22 -3 45 -18 58 -38 33z m27 -21
c-3 -3 -12 -4 -19 -1 -8 3 -5 6 6 6 11 1 17 -2 13 -5z"/>
<path d="M2968 843 c6 -2 18 -2 25 0 6 3 1 5 -13 5 -14 0 -19 -2 -12 -5z"/>
<path d="M2660 751 c0 -6 10 -17 22 -26 28 -19 39 0 12 20 -22 17 -34 19 -34
6z"/>
<path d="M2728 703 c7 -3 16 -2 19 1 4 3 -2 6 -13 5 -11 0 -14 -3 -6 -6z"/>
<path d="M2808 693 c29 -2 74 -2 100 0 26 2 2 3 -53 3 -55 0 -76 -1 -47 -3z"/>
</g>
</svg>
