<?xml version="1.0" standalone="no"?>
<!DOCTYPE svg PUBLIC "-//W3C//DTD SVG 20010904//EN"
 "http://www.w3.org/TR/2001/REC-SVG-20010904/DTD/svg10.dtd">
<svg version="1.0" xmlns="http://www.w3.org/2000/svg"
 width="300.000000pt" height="536.000000pt" viewBox="0 0 300.000000 536.000000"
 preserveAspectRatio="xMidYMid meet">

<g transform="translate(0.000000,536.000000) scale(0.100000,-0.100000)"
fill="#000000" stroke="none">
<path d="M1585 5143 c-43 -12 -72 -41 -71 -73 1 -16 5 -30 10 -30 10 0 -2 -15
-12 -15 -16 -1 -61 -38 -56 -47 3 -5 1 -14 -4 -21 -5 -7 -9 -32 -9 -57 0 -25
-8 -58 -17 -75 -18 -34 -22 -145 -5 -162 7 -7 6 -20 -5 -44 -9 -22 -15 -28
-15 -15 -1 15 -7 17 -38 14 -26 -3 -41 0 -49 10 -20 27 -37 3 -32 -43 3 -23 1
-49 -3 -58 -5 -9 -4 -37 3 -67 11 -46 18 -57 67 -93 31 -23 79 -62 107 -88
167 -154 335 -120 359 71 5 40 3 65 -8 90 -15 35 -15 35 -16 -51 -1 -101 -23
-146 -81 -166 -68 -24 -188 16 -250 82 l-23 25 21 0 c12 0 22 -4 22 -9 0 -5
23 -23 51 -41 40 -24 63 -31 110 -33 58 -1 84 8 61 22 -9 6 -10 15 -1 39 6 18
15 32 19 32 13 0 21 -34 14 -56 -5 -18 -5 -18 10 0 22 27 30 77 21 134 -7 44
-8 45 -18 22 -6 -14 -11 -28 -11 -32 -1 -3 -4 -9 -7 -13 -4 -3 -7 15 -7 40 -1
25 2 45 6 45 4 0 8 10 8 23 1 12 13 57 26 100 20 64 31 85 62 110 29 25 39 41
43 75 4 28 2 42 -6 42 -8 0 -9 20 -5 68 5 57 3 74 -14 108 -20 39 -81 102
-119 123 -24 12 -111 22 -138 14z m101 -94 c3 -6 2 -15 -4 -21 -7 -7 -14 -3
-21 11 -10 17 -9 21 3 21 8 0 18 -5 22 -11z m4 -54 c0 -8 -6 -15 -14 -15 -20
0 -29 17 -14 23 22 9 28 7 28 -8z m-164 -121 c-3 -9 -6 -18 -6 -20 0 -2 -12
-4 -27 -4 l-28 1 24 19 c28 24 45 26 37 4z m34 -14 c0 -5 -4 -10 -9 -10 -6 0
-13 5 -16 10 -3 6 1 10 9 10 9 0 16 -4 16 -10z m79 -16 c3 -16 1 -17 -13 -5
-19 16 -21 34 -3 29 6 -3 14 -13 16 -24z m75 20 c20 -8 3 -44 -20 -44 -20 0
-30 30 -13 41 17 11 14 10 33 3z m-244 -40 c0 -8 -4 -12 -10 -9 -5 3 -10 13
-10 21 0 8 5 12 10 9 6 -3 10 -13 10 -21z m28 -40 c-2 -9 -12 -22 -23 -28 -11
-6 -23 -15 -27 -21 -4 -5 -8 4 -8 21 0 37 6 44 37 44 17 0 24 -5 21 -16z m132
3 c0 -7 -9 -18 -20 -25 -20 -12 -25 -6 -14 22 7 19 34 21 34 3z m-80 -91 c0
-9 -39 -13 -51 -5 -10 6 -4 9 19 9 17 0 32 -2 32 -4z m-110 -131 c0 -13 -33
-55 -43 -55 -7 0 -7 4 1 12 7 7 12 20 12 30 0 10 7 18 15 18 8 0 15 -2 15 -5z"/>
<path d="M1186 4559 c23 -43 26 -58 20 -107 -10 -96 -62 -229 -101 -262 -14
-12 -15 -10 -5 16 6 15 15 33 19 39 5 5 21 47 36 92 33 97 33 197 1 232 -22
24 -49 27 -65 7 -7 -8 -45 -22 -84 -31 -40 -9 -85 -25 -102 -37 -28 -19 -85
-98 -85 -117 0 -13 -27 -62 -34 -62 -20 2 -25 -2 -31 -29 -7 -30 -35 -43 -35
-15 0 42 -54 1 -139 -104 -64 -80 -73 -102 -20 -52 42 41 59 40 25 -1 -14 -18
-42 -57 -62 -86 -20 -29 -46 -57 -57 -62 -25 -9 -61 -55 -69 -87 -6 -24 12
-87 30 -105 7 -7 12 -20 12 -29 0 -9 7 -20 16 -23 21 -8 15 -60 -8 -64 -13 -2
-16 1 -12 12 3 8 -12 36 -36 68 -53 66 -70 78 -70 45 0 -29 48 -127 66 -134
25 -9 15 -22 -34 -47 -26 -13 -60 -31 -77 -40 -16 -9 -34 -16 -40 -16 -23 -1
-86 -67 -91 -95 l-5 -30 32 33 c32 33 85 48 59 17 -9 -11 -9 -15 -1 -15 7 0 9
-4 6 -10 -3 -5 -15 -10 -26 -10 -11 0 -18 -4 -15 -9 3 -5 -2 -8 -11 -7 -11 1
-16 -8 -17 -26 -2 -34 -1 -34 40 -3 48 37 78 30 35 -9 -11 -10 -16 -25 -13
-41 l4 -24 34 27 c38 30 42 46 17 61 -14 7 -16 15 -8 36 6 15 19 34 30 41 18
12 24 11 43 -2 12 -8 22 -26 22 -38 0 -19 4 -22 24 -19 16 3 28 -2 39 -17 8
-12 20 -19 25 -16 32 20 38 -77 6 -109 -16 -15 -19 -35 -5 -35 10 0 95 168
118 235 18 55 21 147 9 266 l-9 75 81 79 c45 43 94 86 108 96 15 10 31 25 36
33 16 28 28 17 28 -23 0 -22 4 -42 9 -46 6 -3 13 -27 17 -53 4 -26 13 -56 20
-67 8 -11 14 -35 14 -53 0 -26 3 -33 15 -28 19 7 12 -27 -21 -102 -26 -58 -29
-72 -14 -72 6 0 10 7 10 15 0 22 38 95 50 95 15 0 41 -44 39 -66 -5 -48 2
-104 12 -104 7 0 18 -8 25 -17 13 -17 15 -17 25 0 10 17 12 17 28 3 16 -14 17
-13 16 12 0 16 -8 31 -20 37 -11 6 -21 16 -23 24 -1 8 2 10 10 5 7 -4 25 -7
41 -6 20 2 26 -1 21 -10 -6 -10 -4 -11 7 0 16 14 53 16 44 2 -3 -5 -1 -10 4
-10 6 0 11 4 11 9 0 5 3 16 6 25 4 11 0 16 -13 16 -11 0 -23 3 -27 7 -12 12
-54 14 -61 3 -10 -17 -25 -11 -25 10 0 11 5 29 12 40 10 15 9 22 -5 38 -9 10
-17 24 -17 30 0 17 39 25 55 12 12 -10 15 -9 16 6 0 18 1 18 9 -1 7 -16 9 -17
9 -3 1 9 -4 20 -9 23 -6 4 -10 12 -9 18 3 26 -2 37 -16 37 -20 0 -19 19 1 27
28 10 64 -14 65 -44 0 -26 1 -27 9 -6 5 12 17 26 27 32 17 10 16 10 -4 11 -27
0 -78 19 -70 26 3 3 36 -4 73 -16 l69 -21 27 33 c34 41 35 53 3 32 -14 -9 -25
-12 -25 -6 0 19 31 42 56 42 19 0 24 -5 24 -25 0 -16 -6 -25 -15 -25 -29 0
-15 -17 24 -28 50 -15 51 -15 51 7 0 25 28 49 35 29 3 -7 4 -25 3 -38 -3 -22
3 -26 72 -47 98 -29 104 -28 117 8 16 41 33 28 33 -26 0 -58 8 -75 34 -75 38
0 47 -14 45 -71 -1 -53 12 -155 25 -196 15 -47 180 -97 376 -115 127 -11 131
-11 159 10 24 17 32 19 46 8 16 -11 15 -15 -10 -44 -15 -18 -33 -32 -41 -32
-9 0 -13 -4 -9 -9 3 -5 -5 -17 -17 -26 -20 -13 -23 -24 -22 -78 1 -79 18 -130
63 -188 47 -61 84 -86 163 -108 98 -28 187 -7 276 66 49 40 102 138 102 188 0
17 5 36 11 42 8 8 8 13 0 17 -6 4 -11 18 -11 32 0 13 -4 24 -9 24 -4 0 -21 18
-36 40 -15 22 -31 37 -36 34 -5 -3 -44 31 -86 75 -70 74 -81 81 -115 81 -27 0
-38 4 -38 15 0 8 -9 15 -21 15 -11 0 -17 5 -14 10 11 17 -21 11 -48 -10 -32
-25 -60 -25 -116 0 -24 11 -53 20 -65 20 -41 0 -179 62 -245 111 -28 20 -28
22 -34 149 -4 95 -2 143 9 182 17 65 18 197 1 219 -17 23 -52 32 -65 17 -6 -7
-12 -31 -15 -53 -3 -35 -4 -32 -6 15 -1 30 -7 77 -14 104 -12 44 -13 34 -12
-122 0 -94 -3 -166 -6 -161 -3 5 -11 -8 -17 -29 -7 -22 -28 -56 -47 -76 -19
-21 -35 -44 -35 -52 0 -22 -17 -16 -23 9 -2 12 -8 30 -12 41 -7 15 -5 17 13
11 16 -5 22 -2 22 10 0 21 -27 30 -45 15 -12 -10 -19 -10 -33 2 -9 9 -48 25
-87 36 -101 29 -125 34 -125 23 0 -13 -40 -34 -48 -26 -4 4 1 13 12 20 21 16
13 35 -15 35 -12 0 -19 -7 -19 -19 0 -10 -9 -29 -21 -42 l-20 -24 6 46 c9 73
-9 77 -75 18 -30 -26 -57 -49 -60 -49 -3 0 -11 -4 -19 -9 -12 -8 -12 -12 -2
-25 11 -13 11 -16 0 -15 -8 0 -23 4 -33 8 -18 7 -16 12 25 57 25 27 59 64 75
83 16 18 40 38 54 43 l25 10 -34 14 c-55 23 -89 16 -60 -13 7 -7 -13 -31 -67
-81 -81 -74 -112 -91 -50 -27 40 40 44 53 20 51 -11 -1 -22 13 -31 42 -18 53
-30 54 -25 3 2 -21 -1 -42 -7 -45 -7 -5 -11 5 -11 28 0 42 -13 46 -35 13 -13
-20 -54 -47 -70 -47 -15 0 1 18 33 38 43 27 109 136 143 234 30 90 31 199 1
256 -12 23 -27 42 -32 42 -6 0 2 -23 16 -51z m-56 -78 c0 -19 -25 -31 -67 -31
-27 0 -30 18 -5 36 27 21 72 18 72 -5z m800 -371 c0 -5 -4 -10 -10 -10 -5 0
-10 5 -10 10 0 6 5 10 10 10 6 0 10 -4 10 -10z m-804 -101 c4 -7 -2 -16 -12
-22 -10 -6 -30 -22 -44 -37 -23 -25 -60 -46 -60 -34 0 7 69 67 93 80 15 9 17
13 6 17 -8 3 -9 6 -2 6 6 1 15 -4 19 -10z m248 -14 c-6 -16 -24 -21 -24 -7 0
11 11 22 21 22 5 0 6 -7 3 -15z m176 -30 c0 -11 -45 -95 -51 -95 -3 0 -9 15
-13 32 -5 27 -2 36 16 50 22 17 48 24 48 13z m89 -33 c13 -13 13 -19 -5 -51
-17 -32 -23 -36 -54 -33 -46 5 -52 9 -38 31 7 11 19 16 30 13 10 -2 18 1 18 7
0 6 -7 11 -15 11 -18 0 -18 5 -4 31 11 22 41 18 68 -9z m71 -16 c0 -16 -18
-31 -27 -22 -8 8 5 36 17 36 5 0 10 -6 10 -14z m-700 -20 c0 -3 -4 -8 -10 -11
-5 -3 -10 -1 -10 4 0 6 5 11 10 11 6 0 10 -2 10 -4z m740 -46 c0 -41 -5 -46
-29 -31 -29 19 -18 71 15 71 10 0 14 -13 14 -40z m-657 -17 c-7 -2 -19 -2 -25
0 -7 3 -2 5 12 5 14 0 19 -2 13 -5z m647 -54 c0 -5 -7 -9 -15 -9 -8 0 -15 7
-15 15 0 9 6 12 15 9 8 -4 15 -10 15 -15z m872 -326 c10 -9 18 -22 18 -28 0
-7 18 -24 41 -39 33 -22 39 -31 33 -49 -9 -29 -7 -28 -48 -32 -26 -3 -38 1
-45 13 -13 27 -21 92 -10 92 5 0 9 -5 9 -12 0 -6 2 -9 5 -7 10 11 -8 48 -27
52 -11 3 -17 10 -13 16 9 15 15 14 37 -6z m-72 -31 c0 -8 -1 -13 -3 -11 -1 2
-9 12 -16 22 -12 15 -12 17 3 11 9 -3 16 -13 16 -22z"/>
<path d="M1790 4034 c0 -9 5 -14 12 -12 18 6 21 28 4 28 -9 0 -16 -7 -16 -16z"/>
<path d="M1295 3850 c-3 -5 -17 -10 -31 -10 -13 0 -24 -4 -24 -9 0 -5 -10 -12
-22 -14 -13 -3 -3 -5 22 -4 53 1 80 12 80 32 0 17 -16 20 -25 5z"/>
<path d="M1362 3842 c2 -8 18 -20 36 -24 26 -7 32 -13 32 -36 0 -27 15 -52 32
-52 6 0 1 13 -38 90 -15 29 -67 48 -62 22z"/>
<path d="M1208 3843 c7 -3 16 -2 19 1 4 3 -2 6 -13 5 -11 0 -14 -3 -6 -6z"/>
<path d="M1182 3773 c-6 -10 -13 -35 -17 -55 -6 -31 -4 -37 15 -43 14 -4 28
-1 40 10 10 9 29 15 42 13 20 -3 23 -9 23 -43 0 -38 -1 -40 -35 -43 -52 -5
-70 -48 -27 -67 27 -12 35 -56 13 -74 -24 -20 -66 -6 -66 23 0 22 -21 35 -56
36 -9 0 -25 -52 -28 -94 -1 -5 26 -18 59 -30 60 -22 60 -22 101 -3 33 16 44
28 57 66 9 25 14 56 11 68 -4 14 1 28 15 42 30 30 37 85 16 130 -15 33 -24 40
-73 55 -32 9 -62 19 -69 22 -6 3 -16 -3 -21 -13z"/>
<path d="M1499 3662 c-17 -45 -16 -76 3 -80 10 -2 25 4 34 13 19 19 48 16 52
-6 3 -15 -46 -71 -130 -147 -37 -32 -49 -51 -54 -81 l-6 -39 76 -17 c43 -10
80 -14 83 -11 4 4 12 22 18 41 14 39 1 52 -38 34 -13 -6 -32 -7 -45 -2 -21 8
-18 13 58 93 87 92 98 114 84 168 -9 37 -15 40 -92 55 -29 6 -34 4 -43 -21z"/>
<path d="M1131 3561 c3 -8 15 -18 27 -22 16 -6 20 -5 15 7 -3 8 -8 12 -11 10
-3 -3 -12 0 -20 7 -12 10 -14 9 -11 -2z"/>
<path d="M1203 3505 c-7 -8 -9 -16 -4 -19 5 -3 12 1 15 10 8 22 4 25 -11 9z"/>
<path d="M2676 3475 c4 -8 8 -15 10 -15 2 0 4 7 4 15 0 8 -4 15 -10 15 -5 0
-7 -7 -4 -15z"/>
<path d="M2766 3443 c-3 -3 9 -25 27 -47 18 -23 38 -53 45 -68 11 -27 42 -39
42 -18 0 33 -99 148 -114 133z"/>
<path d="M1046 3412 c-8 -13 40 -108 59 -115 26 -11 35 -8 29 8 -4 9 0 15 7
16 8 0 -5 9 -28 19 -34 15 -43 24 -43 44 0 26 -15 43 -24 28z"/>
<path d="M326 3331 c-16 -18 -17 -22 -3 -35 13 -13 17 -13 36 5 12 12 20 26
18 32 -6 20 -32 19 -51 -2z"/>
<path d="M1206 3278 c9 -32 24 -48 42 -48 12 0 13 3 4 12 -7 7 -12 20 -12 29
0 9 -7 20 -16 23 -24 9 -26 8 -18 -16z"/>
<path d="M1152 3278 c7 -19 35 -21 35 -3 0 8 -9 15 -19 15 -11 0 -18 -5 -16
-12z"/>
<path d="M790 3209 c-28 -65 -44 -221 -37 -354 6 -107 44 -252 75 -283 9 -10
23 -29 30 -42 40 -75 89 -94 72 -28 -32 122 -74 266 -82 282 -16 31 -31 162
-29 251 4 117 16 111 17 -8 2 -113 7 -177 15 -192 3 -6 18 -50 33 -100 14 -49
31 -103 37 -120 6 -16 16 -52 21 -80 11 -51 23 -73 34 -63 7 8 -72 273 -93
312 -9 16 -16 50 -15 75 0 25 -6 60 -15 78 -12 26 -13 38 -2 66 9 26 9 42 1
67 -18 51 -3 69 55 63 26 -2 67 -13 90 -24 32 -15 47 -18 62 -10 11 6 35 11
53 11 l33 1 -30 13 c-16 7 -47 16 -67 20 -55 10 -118 41 -169 81 -24 19 -49
35 -55 35 -6 0 -21 -23 -34 -51z"/>
<path d="M1625 3197 c-27 -12 -71 -34 -96 -50 -73 -43 -166 -71 -238 -69 -58
1 -62 0 -48 -16 8 -9 12 -23 9 -31 -3 -10 0 -12 14 -7 11 4 33 10 49 13 17 3
55 14 85 24 58 21 60 21 160 67 63 28 147 38 166 19 13 -13 24 -7 24 11 0 17
-50 63 -67 61 -4 0 -30 -10 -58 -22z"/>
<path d="M1701 3124 c0 -12 -11 -26 -23 -32 -23 -10 -23 -11 5 -11 24 -1 27
-5 27 -33 0 -34 12 -32 14 2 0 11 6 19 11 18 11 -3 11 -83 0 -117 -4 -12 -2
-21 4 -21 6 0 11 11 11 25 0 14 5 25 10 25 14 0 12 -28 -5 -75 -17 -49 -20
-78 -5 -55 5 8 10 25 10 38 0 12 5 22 10 22 17 0 11 -64 -10 -95 -28 -42 -25
-67 3 -32 13 15 29 27 36 27 8 0 11 6 7 15 -3 8 -8 46 -12 83 -4 37 -11 72
-16 79 -5 6 -11 22 -13 35 -9 70 -18 90 -36 85 -12 -3 -19 2 -22 17 -4 21 -4
21 -6 0z"/>
<path d="M980 2990 c0 -5 5 -10 10 -10 6 0 10 5 10 10 0 6 -4 10 -10 10 -5 0
-10 -4 -10 -10z"/>
<path d="M1068 2993 c7 -3 16 -2 19 1 4 3 -2 6 -13 5 -11 0 -14 -3 -6 -6z"/>
<path d="M1525 2975 c-38 -17 -92 -61 -84 -69 5 -5 153 65 167 79 11 11 -55 3
-83 -10z"/>
<path d="M1445 2824 c-28 -23 -117 -64 -137 -64 -10 0 -18 7 -18 16 0 13 -3
14 -15 4 -10 -9 -13 -24 -10 -51 5 -37 -1 -44 -28 -40 -38 6 -89 6 -93 0 -7
-13 38 -39 68 -39 42 0 87 -57 58 -75 -5 -3 -10 -15 -10 -25 0 -49 -88 -84
-256 -101 -60 -6 -111 -12 -113 -14 -1 -2 0 -9 4 -15 4 -7 24 -9 53 -5 138 18
228 37 264 56 25 13 44 17 50 11 25 -25 -97 -65 -249 -82 -75 -8 -113 -17
-113 -25 0 -6 21 -72 46 -146 25 -74 53 -156 61 -184 8 -27 23 -70 33 -95 57
-144 80 -288 55 -337 -23 -43 -19 -112 10 -169 14 -27 30 -65 35 -85 5 -19 24
-52 42 -73 27 -30 40 -38 70 -39 65 -2 121 75 120 167 0 41 7 63 34 110 34 57
35 60 24 113 -7 30 -11 98 -10 151 2 103 -9 199 -34 296 -27 102 -45 280 -27
260 32 -34 95 -248 111 -376 6 -48 22 -122 36 -165 22 -67 26 -99 29 -233 3
-176 9 -214 34 -205 85 34 177 40 262 20 l26 -7 6 109 c4 65 2 124 -4 148 -6
22 -15 66 -20 98 -5 33 -11 63 -14 68 -3 4 -1 37 6 73 9 55 8 70 -4 96 -26 50
-30 127 -13 245 8 61 16 184 17 275 l3 165 -34 23 c-51 34 -106 46 -215 45
-108 0 -173 -19 -244 -72 -30 -23 -33 -23 -21 -5 17 28 84 69 147 89 39 13 78
16 157 13 109 -3 122 5 25 16 -75 8 -212 -10 -260 -35 -22 -11 -39 -15 -39 -9
0 5 4 10 8 10 4 0 25 16 45 35 21 20 51 38 68 42 16 3 28 11 26 17 -6 17 -30
17 -52 0z"/>
<path d="M1786 2773 c-5 -11 2 -26 20 -42 l26 -26 -7 35 c-11 54 -26 67 -39
33z"/>
<path d="M1028 2563 c-24 -6 -23 -20 2 -33 16 -9 22 -8 26 5 8 20 -5 33 -28
28z"/>
<path d="M1196 1035 c-5 -13 53 -55 76 -55 6 0 19 -6 27 -14 14 -12 22 -12 56
-1 34 12 41 12 48 0 10 -19 27 -19 27 0 0 8 -4 15 -10 15 -15 0 -12 19 5 36
25 25 17 39 -8 16 -32 -30 -137 -31 -184 -3 -25 16 -32 17 -37 6z"/>
<path d="M1437 1005 c-4 -8 -2 -17 3 -20 6 -4 10 -4 10 -1 0 2 3 11 6 20 3 9
2 16 -4 16 -5 0 -12 -7 -15 -15z"/>
<path d="M1380 921 c0 -5 7 -11 15 -15 9 -3 15 0 15 9 0 8 -7 15 -15 15 -8 0
-15 -4 -15 -9z"/>
<path d="M1778 528 c-42 -11 -71 -39 -73 -71 -1 -17 -8 -22 -28 -22 -16 -1
-33 -10 -43 -23 -8 -12 -29 -25 -47 -30 -20 -5 -33 -15 -35 -28 -2 -11 0 -15
5 -8 11 14 96 55 102 49 2 -3 -10 -19 -27 -36 -35 -35 -41 -59 -14 -59 14 0
15 -2 2 -10 -9 -5 -17 -5 -21 1 -3 6 -15 3 -28 -8 -42 -34 -2 -69 91 -80 40
-5 52 -2 71 15 12 11 35 24 52 28 42 11 136 89 163 137 27 49 29 108 5 129
-23 20 -127 29 -175 16z m141 -47 c11 -22 6 -80 -8 -94 -22 -22 -74 -35 -98
-24 -28 12 -30 27 -5 27 10 0 30 6 44 12 21 10 26 18 23 41 -2 16 -8 34 -14
41 -6 7 -9 15 -6 18 10 10 56 -5 64 -21z"/>
<path d="M1580 490 c0 -14 7 -20 21 -20 15 0 19 4 15 16 -3 9 -6 18 -6 20 0 2
-7 4 -15 4 -8 0 -15 -9 -15 -20z"/>
</g>
</svg>
