<?xml version="1.0" standalone="no"?>
<!DOCTYPE svg PUBLIC "-//W3C//DTD SVG 20010904//EN"
 "http://www.w3.org/TR/2001/REC-SVG-20010904/DTD/svg10.dtd">
<svg version="1.0" xmlns="http://www.w3.org/2000/svg"
 width="683.000000pt" height="683.000000pt" viewBox="0 0 683.000000 683.000000"
 preserveAspectRatio="xMidYMid meet">
<metadata>
Created by potrace 1.16, written by Peter Selinger 2001-2019
</metadata>
<g transform="translate(0.000000,683.000000) scale(0.100000,-0.100000)"
fill="#000000" stroke="none">
<path d="M835 6816 c-231 -45 -463 -185 -610 -369 -358 -447 -273 -1085 190
-1432 73 -54 169 -102 293 -145 l92 -33 0 -208 0 -209 -400 0 -400 0 0 -1005
0 -1005 400 0 400 0 0 -209 0 -208 -92 -33 c-192 -67 -313 -143 -440 -279
-217 -231 -309 -566 -243 -881 70 -331 307 -606 629 -730 175 -68 406 -84 579
-42 181 45 328 124 455 246 134 129 206 243 272 434 l33 92 208 0 209 0 0
-400 0 -400 1005 0 1005 0 0 400 0 400 209 0 209 0 28 -83 c110 -333 345 -568
673 -671 390 -123 829 22 1081 356 231 307 271 687 107 1031 -121 255 -334
439 -614 531 l-83 28 0 209 0 209 400 0 400 0 0 1005 0 1005 -400 0 -400 0 0
209 0 208 93 33 c192 66 312 143 439 279 110 118 192 269 233 427 106 408 -62
840 -420 1081 -272 183 -577 220 -889 109 -148 -53 -245 -115 -366 -236 -126
-126 -188 -225 -244 -388 l-38 -112 -209 0 -209 0 0 400 0 400 -1005 0 -1005
0 0 -400 0 -400 -209 0 -208 0 -33 92 c-125 358 -367 586 -721 678 -107 27
-304 35 -404 16z m270 -402 c133 -23 222 -69 316 -163 121 -121 179 -262 179
-434 0 -171 -49 -286 -175 -412 -128 -129 -239 -175 -415 -175 -177 0 -308 54
-430 179 -120 121 -171 247 -171 421 0 291 213 540 505 589 76 13 93 12 191
-5z m2915 -589 l0 -605 -605 0 -605 0 0 605 0 605 605 0 605 0 0 -605z m1983
575 c188 -59 350 -231 401 -427 20 -77 20 -222 1 -297 -43 -165 -163 -311
-315 -385 -100 -48 -161 -61 -279 -61 -167 0 -281 49 -406 175 -127 127 -175
239 -175 410 0 163 55 306 159 417 70 75 130 117 221 154 116 47 269 52 393
14z m-3676 -777 l83 -6 2 -401 3 -401 404 -3 404 -2 -7 -38 c-3 -20 -6 -112
-6 -204 l0 -166 -82 -28 c-169 -55 -300 -135 -419 -253 -118 -119 -198 -250
-253 -418 l-28 -83 -209 0 -209 0 0 400 0 400 -399 0 -398 0 -7 92 c-3 50 -6
143 -6 208 l0 116 72 23 c178 58 316 141 441 268 123 124 199 250 253 416 l28
87 126 0 c69 0 162 -3 207 -7z m2537 -80 c109 -335 353 -576 694 -684 l72 -23
0 -110 c0 -61 -3 -155 -7 -208 l-6 -98 -399 0 -398 0 0 -400 0 -400 -209 0
-209 0 -22 68 c-112 340 -345 577 -677 686 l-83 28 0 166 c0 92 -3 184 -6 205
l-7 37 394 0 c217 0 400 4 408 9 11 7 13 55 11 252 -2 134 -2 312 -1 396 1
149 1 152 24 156 12 2 105 5 207 6 l186 1 28 -87z m1566 -2128 l0 -595 -605 0
-605 0 0 598 0 597 605 -3 605 -2 0 -595z m-4820 0 l0 -595 -605 0 -605 0 0
595 0 595 605 0 605 0 0 -595z m1997 566 c106 -37 167 -76 246 -161 107 -113
157 -241 157 -405 0 -175 -49 -294 -174 -420 -125 -126 -243 -175 -421 -175
-179 0 -297 49 -420 173 -125 127 -175 247 -175 422 0 167 48 291 158 406 127
134 254 188 442 188 90 1 116 -3 187 -28z m1213 -1172 l0 -399 398 0 399 0 6
-107 c4 -58 7 -152 7 -207 l0 -102 -87 -28 c-333 -108 -571 -346 -679 -678
l-28 -88 -126 0 c-69 0 -162 3 -207 7 l-83 6 -2 401 -3 401 -404 3 -404 2 7
38 c3 20 6 112 6 204 l0 166 68 23 c214 70 385 185 511 344 78 98 124 183 166
306 l34 104 203 5 c112 3 206 4 211 2 4 -2 7 -183 7 -403z m-2360 309 c114
-328 327 -544 643 -653 l107 -37 0 -167 c0 -91 3 -183 6 -203 l7 -38 -404 -2
-404 -3 -3 -401 -2 -401 -83 -6 c-45 -4 -138 -7 -208 -7 l-125 0 -23 72 c-56
176 -140 314 -269 441 -128 127 -242 197 -414 253 l-88 28 0 117 c0 64 3 157
6 207 l7 92 398 0 399 0 0 400 0 400 209 0 208 0 33 -92z m-1272 -1543 c185
-58 347 -228 397 -415 19 -72 19 -220 0 -295 -53 -210 -207 -369 -419 -434
-76 -23 -226 -28 -306 -10 -128 29 -283 142 -362 263 -92 142 -118 343 -64
501 74 218 266 382 485 415 78 11 183 2 269 -25z m2832 -570 l0 -605 -605 0
-605 0 0 605 0 605 605 0 605 0 0 -605z m1984 574 c173 -53 313 -191 384 -377
24 -60 26 -81 27 -202 0 -126 -2 -139 -29 -205 -77 -185 -227 -323 -406 -370
-73 -20 -226 -19 -304 1 -162 42 -313 165 -384 315 -50 105 -65 171 -65 279 2
218 132 419 336 520 143 71 296 84 441 39z"/>
</g>
</svg>
