<?xml version="1.0" standalone="no"?>
<!DOCTYPE svg PUBLIC "-//W3C//DTD SVG 20010904//EN"
 "http://www.w3.org/TR/2001/REC-SVG-20010904/DTD/svg10.dtd">
<svg version="1.0" xmlns="http://www.w3.org/2000/svg"
 width="225.000000pt" height="225.000000pt" viewBox="0 0 225.000000 225.000000"
 preserveAspectRatio="xMidYMid meet">

<g transform="translate(0.000000,225.000000) scale(0.100000,-0.100000)"
fill="#000000" stroke="none">
<path d="M8 2065 c-14 -32 2 -53 45 -57 l32 -3 3 -644 c1 -456 5 -648 13 -658
9 -10 102 -13 495 -13 l484 0 0 -100 0 -100 -260 -130 c-253 -126 -260 -131
-260 -160 0 -58 28 -51 279 74 127 64 233 116 236 116 3 0 5 -43 5 -96 0 -107
9 -134 45 -134 36 0 45 27 45 134 0 53 2 96 5 96 3 0 109 -52 236 -116 251
-125 279 -132 279 -74 0 29 -7 34 -260 160 l-260 130 0 100 0 100 484 0 c393
0 486 3 495 13 8 10 12 202 13 658 l3 644 32 3 c43 4 59 25 45 57 l-12 25
-1105 0 -1105 0 -12 -25z m2067 -675 l0 -615 -950 0 -950 0 -3 605 c-1 333 0
611 3 618 3 10 199 12 952 10 l948 -3 0 -615z"/>
<path d="M617 1820 c-88 -22 -163 -83 -208 -170 -20 -37 -24 -60 -24 -130 0
-73 4 -92 27 -136 56 -106 156 -167 273 -167 95 0 160 29 224 99 57 62 81 123
81 204 0 81 -24 142 -81 204 -75 82 -192 120 -292 96z m36 -327 c6 -9 43 -13
128 -13 133 0 133 0 96 -65 -67 -118 -223 -149 -327 -66 -131 104 -101 311 55
377 l30 12 5 -116 c3 -64 9 -123 13 -129z"/>
<path d="M1186 1814 c-22 -21 -20 -51 3 -64 29 -15 653 -14 669 2 18 18 14 56
-7 68 -13 6 -137 10 -335 10 -273 0 -317 -2 -330 -16z"/>
<path d="M1182 1548 c-16 -16 -15 -43 2 -57 9 -8 108 -11 341 -9 300 3 329 5
339 21 8 12 8 22 0 35 -10 15 -39 17 -340 20 -248 2 -333 -1 -342 -10z"/>
<path d="M1182 1288 c-17 -17 -15 -44 4 -62 13 -14 58 -16 334 -16 276 0 321
2 334 16 19 18 21 45 4 62 -17 17 -659 17 -676 0z"/>
<path d="M398 1029 c-21 -12 -24 -49 -6 -67 17 -17 1449 -17 1466 0 18 18 14
56 -7 68 -27 14 -1429 13 -1453 -1z"/>
</g>
</svg>
