<?xml version="1.0" standalone="no"?>
<!DOCTYPE svg PUBLIC "-//W3C//DTD SVG 20010904//EN"
 "http://www.w3.org/TR/2001/REC-SVG-20010904/DTD/svg10.dtd">
<svg version="1.0" xmlns="http://www.w3.org/2000/svg"
 width="200.000000pt" height="200.000000pt" viewBox="0 0 200.000000 200.000000"
 preserveAspectRatio="xMidYMid meet">

<g transform="translate(0.000000,200.000000) scale(0.100000,-0.100000)"
fill="#000000" stroke="none">
<path d="M898 1900 c-171 -21 -348 -104 -475 -223 -24 -22 -37 -28 -56 -23
-58 14 -117 -36 -117 -99 0 -38 50 -85 90 -85 17 0 40 5 51 10 26 15 52 68 45
95 -5 18 4 31 37 62 270 248 683 273 981 59 34 -24 81 -65 106 -90 l44 -46
-32 0 c-36 0 -52 -21 -33 -44 7 -8 44 -22 83 -31 69 -17 72 -17 85 0 18 26 18
149 -1 164 -20 17 -46 2 -46 -26 0 -23 -6 -19 -71 42 -158 149 -333 225 -544
238 -44 3 -110 1 -147 -3z m-528 -335 c0 -31 -26 -43 -46 -23 -20 20 -7 48 22
48 19 0 24 -5 24 -25z"/>
<path d="M915 1683 c-238 -31 -461 -230 -518 -462 -12 -48 -18 -55 -48 -65
l-34 -11 3 -88 c5 -142 46 -271 122 -382 15 -22 60 -78 100 -125 102 -119 112
-147 119 -305 6 -125 7 -130 31 -142 19 -10 93 -13 308 -11 335 3 312 -6 312
129 l0 88 145 3 c143 3 145 3 172 31 27 27 28 32 33 159 l5 132 55 14 c65 16
90 36 90 70 0 13 -27 75 -60 137 -59 110 -60 114 -60 191 0 89 -5 102 -45 112
-24 7 -30 16 -42 62 -43 168 -168 322 -323 399 -118 58 -245 80 -365 64z m236
-79 c128 -38 252 -129 320 -235 32 -50 79 -166 79 -194 0 -13 -25 -15 -145
-15 l-144 0 35 74 c21 43 36 91 37 117 l2 44 -49 -2 c-36 -1 -74 -14 -135 -44
-74 -37 -93 -42 -143 -40 -91 4 -186 -48 -224 -121 l-15 -28 -160 0 -161 0 7
38 c14 78 75 184 149 258 73 73 139 114 236 145 73 24 236 25 311 3z m101
-316 c-35 -87 -36 -88 -77 -48 l-36 35 58 27 c32 16 61 28 65 28 4 0 0 -19
-10 -42z m-177 -57 c22 -10 51 -30 64 -45 l24 -26 -163 0 -163 0 24 26 c31 35
95 64 139 64 19 0 53 -9 75 -19z m545 -201 c0 -54 6 -72 65 -185 l65 -124 -70
-21 c-38 -11 -73 -26 -77 -33 -4 -7 -10 -73 -13 -147 l-5 -135 -218 -3 c-195
-2 -223 0 -261 16 -59 27 -113 77 -148 139 -20 35 -36 53 -49 53 -33 0 -34
-30 -4 -87 54 -104 162 -174 290 -189 l55 -7 0 -73 0 -74 -264 0 -264 0 -3
118 c-5 146 -21 183 -144 327 -46 55 -101 130 -120 167 -41 77 -75 200 -75
270 l0 48 620 0 620 0 0 -60z"/>
<path d="M1732 1398 c-7 -7 -12 -22 -12 -34 0 -17 -7 -23 -27 -26 -22 -2 -28
-8 -28 -28 0 -20 6 -26 27 -28 21 -3 27 -9 30 -30 2 -21 8 -27 28 -27 20 0 26
6 28 27 3 21 9 27 30 30 21 2 27 8 27 28 0 20 -6 26 -27 28 -21 3 -28 9 -28
26 0 21 -16 46 -30 46 -3 0 -11 -5 -18 -12z"/>
<path d="M164 1325 c-15 -38 2 -46 88 -43 81 3 83 4 83 28 0 24 -2 25 -83 28
-67 2 -83 0 -88 -13z"/>
</g>
</svg>
