<?xml version="1.0" standalone="no"?>
<!DOCTYPE svg PUBLIC "-//W3C//DTD SVG 20010904//EN"
 "http://www.w3.org/TR/2001/REC-SVG-20010904/DTD/svg10.dtd">
<svg version="1.0" xmlns="http://www.w3.org/2000/svg"
 width="231.000000pt" height="218.000000pt" viewBox="0 0 231.000000 218.000000"
 preserveAspectRatio="xMidYMid meet">

<g transform="translate(0.000000,218.000000) scale(0.100000,-0.100000)"
fill="#000000" stroke="none">
<path d="M436 2159 l-26 -20 0 -165 c0 -198 3 -204 100 -204 97 0 100 6 100
204 l0 165 -26 20 c-19 15 -41 21 -74 21 -33 0 -55 -6 -74 -21z"/>
<path d="M1195 2169 c-11 -7 -23 -17 -27 -23 -4 -6 -8 -84 -8 -173 0 -197 3
-203 99 -203 52 0 62 3 80 26 19 24 21 40 21 179 0 185 -5 196 -91 202 -31 2
-63 -2 -74 -8z"/>
<path d="M34 2032 c-33 -22 -34 -46 -34 -951 0 -888 0 -901 20 -921 19 -19 33
-20 472 -19 l453 0 59 65 58 64 -440 0 c-418 0 -441 1 -463 19 l-24 19 -3 754
c-2 502 0 765 7 789 14 46 43 59 131 59 l70 0 0 65 0 65 -147 0 c-82 0 -153
-4 -159 -8z"/>
<path d="M680 1975 l0 -65 205 0 205 0 0 65 0 65 -205 0 -205 0 0 -65z"/>
<path d="M1430 1975 l0 -65 74 0 c59 0 78 -4 100 -21 l26 -20 2 -483 3 -483
68 75 67 74 0 468 c0 458 0 468 -21 494 l-20 26 -150 0 -149 0 0 -65z"/>
<path d="M347 1623 c-4 -3 -7 -25 -7 -49 0 -81 -50 -74 539 -74 397 0 530 3
539 12 7 7 12 30 12 53 0 23 -5 46 -12 53 -9 9 -142 12 -538 12 -290 0 -530
-3 -533 -7z"/>
<path d="M351 1346 c-7 -8 -11 -36 -9 -63 l3 -48 534 -3 c421 -2 536 0 543 10
12 20 9 93 -4 106 -9 9 -141 12 -534 12 -439 0 -523 -2 -533 -14z"/>
<path d="M352 1078 c-7 -7 -12 -33 -12 -60 0 -37 4 -50 19 -58 13 -6 197 -10
530 -10 566 0 541 -3 541 66 0 20 -5 44 -10 55 -10 18 -27 19 -533 19 -394 0
-526 -3 -535 -12z"/>
<path d="M2085 1076 c-16 -8 -45 -29 -62 -48 l-33 -34 116 -114 115 -115 39
42 c49 52 57 82 36 137 -38 98 -141 162 -211 132z"/>
<path d="M1603 613 c-157 -159 -293 -304 -303 -323 -25 -49 -70 -207 -70 -246
0 -18 6 -34 14 -37 18 -7 81 7 196 45 l95 30 294 294 293 293 -108 115 c-60
64 -113 116 -118 116 -5 0 -137 -129 -293 -287z"/>
<path d="M358 809 c-21 -12 -25 -98 -6 -117 17 -17 1049 -17 1066 0 18 18 15
94 -4 112 -14 14 -75 16 -527 16 -329 0 -518 -4 -529 -11z"/>
<path d="M347 533 c-12 -11 -8 -98 5 -111 9 -9 117 -12 423 -12 l411 0 35 38
c19 20 45 49 58 65 l24 27 -475 0 c-261 0 -478 -3 -481 -7z"/>
</g>
</svg>
