<?xml version="1.0" standalone="no"?>
<!DOCTYPE svg PUBLIC "-//W3C//DTD SVG 20010904//EN"
 "http://www.w3.org/TR/2001/REC-SVG-20010904/DTD/svg10.dtd">
<svg version="1.0" xmlns="http://www.w3.org/2000/svg"
 width="293.000000pt" height="307.000000pt" viewBox="0 0 293.000000 307.000000"
 preserveAspectRatio="xMidYMid meet">
<metadata>
Created by potrace 1.16, written by Peter Selinger 2001-2019
</metadata>
<g transform="translate(0.000000,307.000000) scale(0.100000,-0.100000)"
fill="#000000" stroke="none">
<path d="M360 2863 c0 -58 -5 -85 -18 -104 -54 -81 -62 -97 -62 -126 0 -23
-11 -45 -40 -78 -27 -31 -42 -60 -46 -87 -4 -22 -19 -55 -34 -72 -63 -73 -66
-112 -10 -186 26 -35 40 -64 40 -84 0 -65 65 -126 135 -126 19 0 25 -5 25 -22
1 -13 5 -142 10 -288 7 -210 12 -274 25 -308 16 -39 16 -46 0 -118 -24 -109
-31 -114 -165 -114 l-110 0 0 -49 0 -49 101 0 c56 -1 103 -2 104 -4 1 -2 -4
-25 -13 -53 -10 -35 -16 -109 -19 -247 l-4 -198 -85 0 -84 0 0 -40 0 -40 53 0
c68 0 119 -15 143 -41 26 -29 74 -52 105 -51 17 0 42 -12 67 -34 43 -36 80
-54 116 -54 12 0 33 -12 47 -26 61 -65 118 -70 180 -16 28 25 58 41 83 45 71
11 120 63 132 140 l7 37 276 0 c253 0 282 2 335 20 64 23 107 20 166 -11 71
-38 70 -35 70 -163 l0 -116 40 0 40 0 0 68 c0 98 4 100 90 62 61 -27 89 -33
169 -37 80 -4 102 -1 131 14 36 19 84 79 74 94 -9 15 -66 10 -86 -8 -14 -13
-37 -16 -104 -15 -76 1 -95 5 -159 35 -40 19 -109 60 -153 91 -99 70 -138 86
-202 86 l-50 0 0 204 c0 151 3 206 13 213 6 6 39 17 72 25 33 9 132 37 220 64
l160 48 180 0 c198 1 230 -4 241 -36 10 -34 -19 -48 -102 -48 -96 0 -104 -4
-104 -50 l0 -38 137 -1 c75 -1 140 -4 145 -7 14 -9 9 -51 -8 -65 -11 -9 -57
-15 -145 -17 l-129 -4 0 -39 0 -39 171 0 c98 0 178 -4 190 -10 11 -6 19 -21
19 -35 0 -20 -5 -25 -25 -26 -14 -1 -29 -3 -35 -4 -5 -1 -80 -3 -165 -4 l-155
-1 0 -45 0 -45 145 0 c158 0 154 1 139 -58 -6 -21 -10 -22 -128 -22 -66 0
-158 -3 -203 -7 -78 -6 -83 -7 -83 -29 0 -33 22 -41 143 -49 59 -4 107 -10
108 -13 4 -24 7 -79 8 -159 l1 -93 40 0 40 0 0 135 0 135 36 0 c63 0 124 54
124 110 0 28 15 56 57 104 49 59 44 105 -19 172 -20 22 -31 46 -35 75 -4 29
-15 55 -33 74 -34 37 -45 60 -54 108 -4 20 -21 54 -39 74 l-32 36 -6 246 c-5
205 -9 253 -24 289 -18 41 -18 46 0 120 27 116 17 109 155 117 l120 7 0 38 0
38 -100 4 c-54 2 -101 6 -104 9 -3 3 2 29 10 59 11 38 18 117 21 248 l5 192
85 0 84 0 -3 38 -3 37 -76 5 c-65 5 -81 10 -115 36 -52 42 -78 54 -109 54 -17
0 -44 15 -72 40 -25 22 -56 40 -69 40 -36 0 -75 18 -95 44 -23 29 -81 50 -114
42 -12 -3 -42 -21 -64 -41 -23 -19 -59 -37 -79 -41 -57 -10 -98 -40 -116 -84
-9 -22 -16 -47 -16 -55 0 -7 -6 -17 -12 -22 -7 -4 -142 -10 -300 -13 -211 -4
-290 -8 -300 -17 -17 -18 -56 -16 -153 8 l-85 21 0 129 0 129 -40 0 -40 0 0
-88 c0 -60 -5 -94 -14 -107 -14 -19 -16 -19 -98 -2 -59 12 -130 17 -245 17
l-163 0 0 90 0 90 -40 0 -40 0 0 -77z m1860 -208 l0 -185 50 0 50 0 0 109 c0
126 6 167 27 176 30 11 43 -15 43 -84 0 -36 3 -97 7 -134 l6 -68 36 3 36 3 8
83 c8 89 19 122 42 122 28 0 36 -42 42 -227 l6 -188 -63 -223 c-35 -122 -69
-230 -76 -240 -10 -14 -39 -17 -212 -20 l-200 -4 -6 53 c-12 98 -18 111 -81
204 -99 145 -126 205 -132 296 -5 71 -3 81 21 123 47 80 30 115 -35 71 -55
-36 -69 -74 -69 -187 0 -86 3 -99 35 -167 19 -40 35 -77 35 -82 0 -5 -97 -9
-230 -9 l-230 0 0 255 0 255 280 0 280 0 0 -130 0 -130 40 0 40 0 1 93 c0 122
8 286 15 315 3 17 11 22 27 20 36 -5 47 -43 47 -170 l0 -118 45 0 45 0 0 185
0 185 35 0 35 0 0 -185z m-1205 -44 c121 -35 223 -65 227 -68 5 -2 8 -98 8
-212 l0 -209 -73 -3 c-69 -4 -75 -6 -152 -60 -169 -119 -240 -149 -355 -149
-52 0 -73 5 -93 20 -29 23 -60 26 -75 7 -9 -10 -5 -22 13 -49 35 -52 67 -61
192 -56 91 4 117 9 163 31 30 15 60 27 66 27 17 0 24 -84 24 -277 l0 -173
-261 0 -262 0 5 271 c5 213 9 273 19 280 8 5 62 9 122 9 l107 0 0 40 0 40
-162 1 c-202 1 -251 7 -256 33 -8 37 24 46 165 46 l133 0 0 45 0 45 -72 2
c-40 1 -82 3 -93 4 -11 1 -64 2 -117 3 l-98 1 0 35 0 35 118 1 c64 1 126 0
136 -1 11 -1 44 1 73 5 l53 6 0 39 0 39 -125 0 c-136 0 -165 8 -165 47 0 36
32 44 171 44 l119 0 0 39 0 38 -96 5 c-100 6 -117 13 -112 53 4 30 38 34 243
31 l190 -3 220 -62z m258 -585 c31 -20 99 -25 357 -26 l225 -1 34 -45 c44 -58
53 -137 25 -199 -15 -34 -18 -79 -22 -310 -2 -148 -8 -277 -12 -286 -5 -9 -46
-25 -100 -38 -87 -21 -94 -22 -132 -6 -56 22 -202 34 -414 35 l-180 0 -23 40
c-32 57 -38 136 -16 196 15 41 19 93 22 314 5 294 3 283 77 319 48 24 126 28
159 7z m1217 -560 l0 -233 -187 -6 c-141 -4 -200 -9 -235 -22 -58 -21 -80 -17
-89 15 -4 14 -7 125 -8 247 l-1 223 258 3 c141 1 258 3 260 5 1 1 2 -103 2
-232z m-1580 -173 c0 -67 0 -67 74 -178 113 -167 130 -210 131 -326 0 -78 -3
-100 -17 -116 -20 -21 -25 -83 -7 -83 23 0 71 37 92 70 19 30 22 50 22 135 0
101 -2 108 -61 242 -8 17 11 18 243 15 l213 -3 0 -249 0 -250 -280 0 -280 0 0
125 0 125 -39 0 -38 0 -5 -187 c-5 -203 -12 -233 -53 -233 -31 0 -34 13 -38
165 l-2 120 -40 0 -40 0 -5 -180 -5 -180 -35 0 c-35 0 -35 0 -42 55 -3 30 -6
113 -7 183 l-1 128 -37 -3 -38 -3 -5 -130 c-4 -72 -9 -136 -14 -143 -4 -6 -18
-12 -30 -12 -21 0 -24 6 -30 61 -3 34 -6 100 -6 145 l0 84 -45 0 -45 0 0 -86
c0 -93 -10 -124 -41 -124 -35 0 -41 42 -36 255 5 218 -3 174 100 544 17 60 29
87 43 92 10 4 106 8 212 8 l192 1 0 -67z"/>
<path d="M1437 2504 c-4 -4 -7 -22 -7 -41 0 -31 2 -33 36 -33 35 0 35 1 32 38
-3 31 -7 37 -28 40 -14 2 -29 0 -33 -4z"/>
<path d="M552 1609 c-16 -6 -22 -17 -22 -37 0 -35 20 -55 52 -50 19 2 24 10
26 44 3 46 -13 59 -56 43z"/>
<path d="M2342 1612 c-20 -3 -23 -8 -20 -45 3 -35 7 -43 26 -45 31 -5 52 15
52 49 0 32 -22 47 -58 41z"/>
<path d="M1428 953 c-7 -29 2 -52 21 -58 38 -12 63 15 53 58 -3 12 -14 17 -37
17 -23 0 -34 -5 -37 -17z"/>
</g>
</svg>
