<?xml version="1.0" standalone="no"?>
<!DOCTYPE svg PUBLIC "-//W3C//DTD SVG 20010904//EN"
 "http://www.w3.org/TR/2001/REC-SVG-20010904/DTD/svg10.dtd">
<svg version="1.0" xmlns="http://www.w3.org/2000/svg"
 width="225.000000pt" height="225.000000pt" viewBox="0 0 225.000000 225.000000"
 preserveAspectRatio="xMidYMid meet">

<g transform="translate(0.000000,225.000000) scale(0.100000,-0.100000)"
fill="#000000" stroke="none">
<path d="M185 2188 c-50 -17 -92 -55 -114 -102 -19 -38 -21 -58 -19 -147 l3
-104 160 -5 160 -5 3 -187 2 -188 -52 0 c-48 -1 -64 -8 -178 -78 -89 -55 -126
-84 -128 -99 -3 -18 18 -34 124 -97 116 -69 131 -76 180 -76 l53 0 3 -463 3
-463 24 -36 c13 -19 40 -46 59 -59 l36 -24 766 -3 766 -2 45 29 c72 45 90 93
87 227 l-3 109 -117 3 -118 3 0 339 0 340 96 0 c160 0 204 36 204 168 0 80
-14 118 -56 151 -23 18 -40 21 -135 21 l-107 0 -4 303 c-4 336 -6 346 -71 404
-20 18 -53 37 -74 42 -52 15 -1556 13 -1598 -1z m148 -97 c30 -29 32 -36 36
-116 l3 -85 -131 0 -131 0 0 65 c0 36 6 81 14 100 34 80 146 99 209 36z m1457
23 c15 -9 36 -31 46 -48 17 -29 19 -55 19 -326 l0 -295 -107 -3 -107 -3 -16
30 c-20 40 -19 50 10 93 14 20 25 45 25 55 0 17 -137 163 -153 163 -5 0 -29
-14 -53 -31 l-45 -31 -55 23 c-42 18 -56 29 -60 48 -3 15 -8 40 -12 56 l-8 30
-114 3 c-127 3 -125 4 -135 -68 -6 -44 -8 -46 -63 -68 l-57 -22 -41 30 c-23
16 -48 30 -54 30 -19 0 -160 -141 -160 -160 0 -9 13 -35 30 -58 l29 -41 -17
-40 -17 -41 -117 0 -117 0 -3 313 c-3 278 -5 316 -20 340 -10 14 -18 29 -18
32 0 3 306 5 681 5 612 0 684 -2 709 -16z m-564 -339 c7 -50 25 -75 53 -75 10
0 40 -11 67 -25 61 -31 69 -31 117 2 l38 27 44 -45 45 -44 -31 -47 -30 -46 19
-39 c11 -21 25 -56 32 -78 16 -53 23 -58 78 -70 l47 -10 0 -60 0 -59 -54 -10
-54 -11 -29 -70 c-42 -101 -42 -99 -12 -145 l27 -41 -44 -45 -44 -44 -39 26
c-42 29 -46 29 -153 -12 -69 -25 -73 -28 -79 -63 -12 -74 -10 -72 -77 -69
l-61 3 -9 45 c-11 57 -17 64 -69 79 -24 7 -59 22 -79 33 l-37 21 -43 -31 -44
-30 -47 45 -47 46 31 44 c31 43 31 43 15 78 -9 20 -17 38 -17 40 0 3 19 5 43
5 39 0 45 -4 77 -47 37 -50 119 -106 180 -123 61 -17 174 -12 234 11 72 27
144 93 187 171 32 59 34 69 34 158 0 87 -3 101 -33 162 -38 77 -92 130 -171
167 -48 22 -69 26 -151 26 -85 -1 -101 -4 -153 -30 -54 -27 -157 -123 -157
-146 0 -5 -20 -9 -45 -9 -49 0 -51 3 -30 40 21 36 18 62 -10 100 -14 19 -25
37 -25 40 0 3 20 23 46 44 l45 38 42 -27 c37 -25 44 -27 71 -15 17 7 56 21 86
32 63 23 66 26 75 85 l6 43 64 0 64 0 7 -45z m59 -240 c50 -24 114 -80 103
-90 -3 -3 -110 -4 -239 -3 l-234 3 37 36 c90 89 219 110 333 54z m155 -181
c13 -33 13 -125 0 -158 l-10 -26 -555 0 -555 0 0 105 0 105 555 0 555 0 10
-26z m540 -79 l0 -105 -105 0 -105 0 0 105 0 105 105 0 105 0 0 -105z m166 84
c15 -16 19 -36 19 -86 0 -56 -3 -67 -24 -84 -13 -10 -38 -19 -57 -19 l-34 0 0
105 0 105 38 0 c27 0 45 -7 58 -21z m-1896 -84 c0 -41 -4 -75 -8 -75 -4 0 -34
16 -65 36 l-58 36 63 39 c35 21 64 38 66 39 1 0 2 -34 2 -75z m439 -203 l19
-38 -34 -44 c-18 -25 -34 -49 -34 -54 0 -12 129 -149 151 -160 12 -6 30 0 64
24 l46 32 54 -23 c52 -21 54 -23 67 -78 l13 -56 112 -3 c126 -3 125 -3 137 74
7 38 11 42 61 63 l54 23 45 -31 c24 -17 48 -31 52 -31 14 0 153 131 159 151 4
13 -3 33 -23 60 -30 40 -30 40 -13 80 l16 39 113 0 112 0 -2 -337 -3 -338
-569 -3 c-441 -2 -572 -5 -578 -15 -4 -6 -8 -56 -8 -110 0 -96 0 -98 -33 -133
-60 -66 -159 -56 -206 19 -21 34 -21 45 -21 481 l0 446 115 0 115 0 19 -38z
m676 -2 c-108 -113 -312 -113 -420 0 l-29 30 239 0 239 0 -29 -30z m737 -777
c6 -82 -9 -124 -57 -153 -32 -20 -48 -20 -674 -20 -352 0 -641 2 -641 5 0 3 8
17 17 32 12 17 18 54 21 114 l4 89 663 0 663 0 4 -67z"/>
</g>
</svg>
