<?xml version="1.0" standalone="no"?>
<!DOCTYPE svg PUBLIC "-//W3C//DTD SVG 20010904//EN"
 "http://www.w3.org/TR/2001/REC-SVG-20010904/DTD/svg10.dtd">
<svg version="1.0" xmlns="http://www.w3.org/2000/svg"
 width="860.000000pt" height="822.000000pt" viewBox="0 0 860.000000 822.000000"
 preserveAspectRatio="xMidYMid meet">

<g transform="translate(0.000000,822.000000) scale(0.100000,-0.100000)"
fill="#000000" stroke="none">
<path d="M4036 7808 c-33 -4 -79 -15 -103 -24 -25 -10 -55 -14 -72 -11 -22 5
-45 -2 -85 -23 -31 -17 -67 -30 -81 -30 -14 0 -25 -4 -25 -9 0 -5 -12 -23 -27
-39 -16 -16 -36 -41 -46 -56 -10 -14 -27 -26 -37 -26 -21 0 -90 -83 -90 -109
0 -9 -7 -26 -15 -38 -8 -11 -17 -40 -20 -64 -12 -101 -33 -235 -40 -251 -4
-10 1 -50 10 -91 17 -70 17 -75 0 -111 -18 -37 -18 -37 8 -64 14 -15 30 -39
36 -54 7 -20 15 -26 26 -21 19 7 125 -92 125 -117 0 -8 7 -24 15 -34 10 -13
15 -44 15 -93 0 -48 5 -82 15 -96 12 -19 13 -35 4 -92 -13 -85 -25 -103 -48
-77 -23 26 -62 22 -100 -10 -18 -16 -37 -28 -42 -28 -6 0 -30 -20 -53 -45 -32
-33 -46 -41 -54 -33 -16 16 -16 12 8 -129 28 -163 70 -294 141 -431 81 -159
145 -237 233 -282 67 -34 73 -35 180 -35 103 0 116 3 177 32 109 51 185 141
249 295 13 32 25 56 28 54 7 -8 -68 -170 -103 -223 -43 -65 -132 -137 -205
-164 -30 -12 -89 -23 -130 -26 -139 -10 -235 37 -338 166 -59 73 -160 269
-191 371 -21 67 -70 305 -92 445 -7 44 -15 83 -19 88 -9 10 7 -137 31 -277 10
-66 18 -120 16 -122 -5 -5 -48 177 -63 266 l-14 85 6 -95 c5 -101 62 -344 111
-475 67 -181 171 -340 276 -424 21 -16 39 -33 40 -38 1 -4 6 -7 10 -5 12 4 67
-30 67 -41 0 -5 6 -7 14 -4 8 3 16 1 19 -6 2 -6 21 -11 43 -10 21 1 47 -3 57
-9 13 -7 23 -6 30 1 14 14 30 14 22 1 -3 -5 -1 -10 4 -10 6 0 11 8 12 18 0 10
3 12 6 5 2 -7 14 -13 24 -13 12 0 17 4 13 11 -4 8 3 9 26 4 23 -5 30 -4 26 4
-4 7 -1 9 7 5 8 -3 24 5 35 17 12 12 27 19 36 16 9 -4 16 -1 16 6 0 7 12 18
28 25 15 6 52 35 82 63 30 29 49 49 42 45 -7 -4 2 17 19 46 17 29 35 63 40 76
6 17 14 22 26 18 12 -5 13 -3 6 6 -6 9 -2 31 13 68 13 30 24 48 24 41 0 -25
17 1 24 37 4 22 2 31 -5 26 -8 -4 -8 0 0 14 6 11 11 31 11 44 0 19 2 20 10 8
7 -11 8 -6 4 16 -7 39 23 144 42 144 8 0 14 4 14 8 0 4 8 8 19 8 11 0 17 -5
14 -13 -3 -7 -1 -13 5 -13 5 0 12 -9 15 -20 4 -14 0 -20 -11 -21 -11 0 -12 -2
-4 -6 6 -2 10 -10 6 -16 -3 -7 4 -1 16 12 11 13 19 30 16 38 -3 7 1 13 9 13 8
0 15 5 15 10 0 6 5 10 10 10 6 0 10 -7 10 -15 0 -9 9 -15 24 -15 23 0 24 -1
30 -137 21 -421 113 -715 281 -890 59 -61 64 -65 96 -59 l34 7 -30 -27 c-16
-15 -29 -31 -27 -36 1 -4 -3 -8 -9 -8 -6 0 -8 -7 -5 -16 3 -8 2 -13 -3 -10 -4
3 -17 -12 -27 -33 -10 -22 -22 -37 -26 -35 -5 3 -8 -4 -8 -15 0 -11 -7 -21
-16 -23 -13 -3 -13 -5 1 -23 14 -17 16 -17 11 -2 -3 11 0 17 9 17 8 0 15 5 15
10 0 6 9 10 21 10 11 0 17 5 14 10 -3 6 0 10 8 10 8 0 22 16 31 35 9 19 24 39
34 44 9 6 14 11 10 11 -4 0 4 21 17 46 14 26 25 50 25 53 0 4 -15 5 -34 3 -42
-5 -89 34 -148 122 -132 194 -220 521 -222 826 -1 149 10 266 25 276 5 3 9 31
9 63 0 31 4 82 9 112 5 30 12 74 14 99 4 37 3 41 -6 23 -5 -13 -13 -23 -17
-23 -9 0 -6 114 4 161 8 39 -1 67 -35 104 -27 30 -33 69 -15 88 16 16 12 47
-6 47 -5 0 -6 6 -2 13 6 10 4 10 -7 0 -25 -24 -39 -15 -39 26 0 29 -5 41 -18
45 -13 5 -42 49 -48 76 0 3 -4 13 -9 23 -4 10 -3 23 2 28 6 6 20 -5 39 -33 16
-24 31 -45 34 -48 3 -3 11 -17 19 -32 16 -31 48 -50 35 -21 -7 18 -16 107 -17
176 -1 28 -5 37 -18 37 -11 0 -16 6 -14 18 2 9 4 19 4 22 1 3 6 -2 11 -10 11
-18 4 48 -11 94 -5 16 -9 41 -9 57 l0 27 -42 -21 c-24 -12 -45 -24 -48 -27 -9
-9 -40 -8 -40 1 0 17 68 84 77 75 4 -5 2 -11 -4 -13 -7 -3 -13 -14 -12 -26 0
-15 2 -17 6 -7 3 8 12 23 21 33 12 14 13 22 4 42 -6 14 -17 25 -24 25 -45 0
-233 -72 -338 -129 -19 -11 -92 -49 -162 -85 -71 -36 -146 -77 -168 -91 -39
-24 -90 -34 -90 -16 0 5 -9 11 -20 14 -12 3 -20 14 -20 26 0 12 -4 21 -10 21
-5 0 -10 -4 -10 -9 0 -10 -40 -3 -41 8 -10 96 -10 99 13 121 13 12 57 48 98
79 41 31 79 62 83 68 4 7 14 13 21 13 8 0 19 7 26 15 6 8 15 14 18 13 4 -1 21
4 37 11 17 7 35 14 40 15 6 2 17 6 25 9 8 4 28 8 45 9 16 2 37 11 47 21 10 9
24 17 31 17 6 0 4 -5 -5 -11 -10 -5 -18 -14 -18 -19 0 -13 53 16 80 45 24 26
54 33 65 14 5 -7 15 -5 31 6 13 8 24 12 24 8 0 -3 11 4 25 17 21 20 29 22 44
13 15 -10 23 -8 41 12 26 28 23 69 -10 122 -23 38 -124 108 -140 98 -17 -10
-111 14 -150 40 -41 26 -123 35 -214 23z m528 -605 c7 -16 -8 -25 -28 -17 -9
3 -13 11 -9 18 4 6 -1 5 -10 -3 -15 -12 -17 -11 -17 2 0 20 57 19 64 0z m-124
-33 c-24 -15 -36 -11 -14 4 10 8 21 12 24 10 2 -3 -2 -9 -10 -14z m53 -105
c-3 -9 -8 -14 -10 -11 -3 3 -2 9 2 15 9 16 15 13 8 -4z m157 -9 c0 -3 -4 -8
-10 -11 -5 -3 -10 -1 -10 4 0 6 5 11 10 11 6 0 10 -2 10 -4z m-880 -20 c0 -11
-19 -15 -25 -6 -3 5 1 10 9 10 9 0 16 -2 16 -4z m-46 -31 c-4 -8 -11 -15 -16
-15 -6 0 -5 6 2 15 7 8 14 15 16 15 2 0 1 -7 -2 -15z m966 -37 c0 6 5 12 10
12 6 0 10 -9 10 -20 0 -11 -6 -20 -14 -20 -17 0 -38 24 -29 34 4 3 10 1 15 -6
6 -10 8 -10 8 0z m-290 -13 c-7 -8 -20 -15 -29 -15 -11 1 -8 5 9 15 32 18 35
18 20 0z m10 -55 c0 -23 -22 -26 -39 -6 -10 11 -8 15 6 19 31 8 33 7 33 -13z
m-830 -52 c0 -7 3 -24 6 -38 5 -17 4 -22 -4 -15 -16 15 -26 65 -13 65 6 0 11
-6 11 -12z m1050 -148 c0 -5 -4 -10 -10 -10 -5 0 -10 5 -10 10 0 6 5 10 10 10
6 0 10 -4 10 -10z m110 -75 c0 -8 -2 -15 -4 -15 -2 0 -6 7 -10 15 -3 8 -1 15
4 15 6 0 10 -7 10 -15z m-209 -32 c-9 -16 -10 -14 -11 12 0 21 3 26 11 18 8
-8 8 -16 0 -30z m266 -305 c-3 -8 -6 -5 -6 6 -1 11 2 17 5 13 3 -3 4 -12 1
-19z m-1450 -410 c-3 -7 -5 -2 -5 12 0 14 2 19 5 13 2 -7 2 -19 0 -25z m128
-318 c9 -16 13 -30 11 -30 -3 0 -12 14 -21 30 -9 17 -13 30 -11 30 3 0 12 -13
21 -30z m49 -80 c14 -22 26 -43 26 -47 0 -4 -6 1 -13 12 -33 48 -49 75 -44 75
2 0 16 -18 31 -40z m81 -110 c10 -11 16 -20 13 -20 -3 0 -13 9 -23 20 -10 11
-16 20 -13 20 3 0 13 -9 23 -20z m1359 -426 c3 -8 2 -12 -4 -9 -6 3 -10 10
-10 16 0 14 7 11 14 -7z m36 -49 c13 -14 21 -25 18 -25 -2 0 -15 11 -28 25
-13 14 -21 25 -18 25 2 0 15 -11 28 -25z m61 -62 l24 -28 -30 25 c-16 14 -32
26 -34 28 -2 1 0 2 6 2 5 0 20 -12 34 -27z"/>
<path d="M3036 6050 c2 -80 6 -172 9 -205 4 -57 4 -56 -11 20 -8 44 -21 118
-29 165 -24 154 -17 14 10 -193 16 -119 25 -234 24 -303 -1 -114 -14 -338 -24
-409 -12 -92 -24 -214 -27 -280 -3 -62 -1 -70 16 -73 24 -5 36 14 36 58 0 19
11 117 25 218 16 119 27 257 31 395 6 198 4 223 -21 382 -15 94 -31 215 -35
270 -8 91 -8 87 -4 -45z m31 -407 c-3 -10 -5 -4 -5 12 0 17 2 24 5 18 2 -7 2
-21 0 -30z m0 -135 c-3 -7 -5 -2 -5 12 0 14 2 19 5 13 2 -7 2 -19 0 -25z"/>
<path d="M4816 6082 c-35 -186 -41 -264 -28 -394 32 -335 127 -628 254 -782
55 -67 133 -81 157 -29 14 31 7 39 101 -122 80 -138 152 -236 250 -345 78 -86
130 -164 130 -193 0 -11 -37 -34 -107 -69 -60 -29 -110 -55 -113 -59 -11 -14
-228 -129 -244 -129 -2 0 -6 11 -8 25 -3 14 -1 25 5 25 6 0 7 3 4 7 -4 3 -2
12 4 20 6 7 8 13 3 13 -5 0 2 7 14 16 18 13 21 19 11 30 -7 8 -7 14 -1 14 6 0
5 22 -3 61 -13 63 -25 87 -25 51 0 -12 -4 -22 -10 -22 -5 0 -10 -9 -10 -19 0
-22 -20 -40 -21 -19 0 7 -5 3 -11 -9 -6 -13 -16 -23 -23 -23 -9 0 -10 14 -4
53 18 113 19 155 4 161 -13 4 -13 2 -5 -14 18 -33 2 -22 -24 17 -14 20 -23 40
-20 45 3 4 2 8 -3 8 -10 0 -10 106 0 116 4 4 7 22 7 40 0 18 4 35 10 39 5 3 7
11 4 19 -3 7 0 24 5 38 5 14 7 29 3 32 -3 4 -14 -13 -23 -36 -10 -24 -22 -42
-27 -41 -6 2 -23 -4 -39 -12 -19 -10 -22 -15 -10 -15 15 0 15 -2 -4 -21 -19
-19 -22 -19 -45 -4 -23 15 -25 15 -34 -11 -6 -15 -8 -29 -6 -32 5 -4 9 3 18
35 2 8 9 7 23 -4 14 -11 16 -17 8 -20 -7 -3 -13 -13 -13 -24 0 -12 5 -16 15
-13 8 4 15 1 15 -5 0 -15 -23 -14 -38 1 -9 9 -12 8 -12 -4 0 -9 6 -19 13 -21
9 -4 9 -6 -1 -6 -7 -1 -10 -5 -7 -11 3 -5 1 -10 -5 -10 -8 0 -10 -9 -5 -27 6
-27 6 -27 -10 -8 -16 19 -16 19 -10 -7 3 -16 1 -28 -5 -28 -5 0 -10 -7 -10
-16 0 -11 -6 -14 -22 -9 -23 7 -23 7 -3 -8 16 -13 18 -18 7 -29 -11 -11 -12
-10 -7 5 4 10 2 17 -4 17 -6 0 -11 -7 -11 -15 0 -8 -6 -15 -14 -15 -9 0 -12
-7 -9 -20 4 -13 0 -20 -9 -20 -8 0 -15 -7 -15 -16 0 -11 7 -14 21 -10 12 3 24
6 28 6 4 0 4 8 1 17 -6 15 -5 16 9 3 14 -13 14 -16 -4 -28 -11 -8 -32 -12 -48
-10 -16 2 -27 1 -24 -3 2 -4 -1 -11 -8 -16 -18 -11 -19 -43 -2 -36 8 3 14 12
14 20 0 8 4 12 10 8 11 -7 -8 -55 -22 -55 -4 0 -8 -6 -8 -14 0 -22 -19 -29
-37 -14 -9 7 -14 8 -10 2 4 -7 0 -14 -8 -18 -22 -8 -18 -25 5 -19 12 3 20 0
20 -6 0 -7 -5 -9 -11 -6 -6 4 -13 -2 -16 -14 -3 -12 -11 -21 -18 -21 -9 0 -12
-12 -9 -40 3 -31 1 -38 -11 -34 -9 4 -15 0 -15 -9 0 -9 -4 -18 -9 -21 -4 -3
-6 6 -3 19 2 14 8 25 13 25 5 0 9 10 9 23 -1 21 -1 22 -15 3 -14 -19 -15 -19
-15 -1 0 10 -3 15 -7 12 -3 -4 -6 -24 -5 -44 l0 -38 -14 38 c-10 29 -11 44 -3
59 9 17 8 19 -10 13 -24 -7 -27 2 -7 30 8 13 14 54 15 115 l1 95 -66 35 c-37
19 -88 48 -113 65 -81 52 -92 55 -190 61 -159 8 -285 24 -293 37 -4 7 -8 -8
-9 -33 -1 -25 -4 -35 -6 -24 -2 12 -16 27 -31 34 -26 11 -26 12 -7 26 10 8 16
14 12 14 -4 0 -2 11 3 25 6 16 6 25 0 25 -6 0 -10 -7 -10 -15 0 -8 -5 -15 -11
-15 -6 0 -9 9 -6 20 3 11 1 20 -4 20 -5 0 -9 -6 -9 -14 0 -8 -5 -18 -11 -22
-8 -5 -10 2 -7 23 2 16 -1 35 -8 41 -9 8 -11 1 -8 -31 2 -25 0 -37 -5 -29 -4
8 -12 13 -17 12 -5 0 -10 10 -11 22 -1 15 0 17 3 6 3 -10 10 -18 16 -18 5 0 7
7 4 16 -3 9 -6 18 -6 20 0 2 -16 4 -35 4 -26 0 -35 4 -36 18 0 10 -3 12 -6 5
-2 -7 -11 -13 -19 -13 -8 0 -14 -5 -14 -11 0 -6 8 -8 18 -5 14 5 17 0 19 -26
1 -27 -1 -29 -10 -12 -15 27 -25 32 -67 30 -33 -2 -37 0 -32 18 3 12 8 26 13
31 8 11 -47 13 -58 2 -3 -4 -17 -7 -29 -7 -13 0 -26 -4 -29 -10 -3 -5 -11 -10
-17 -10 -7 0 -6 6 2 15 10 12 10 15 -4 15 -9 0 -16 -8 -16 -17 -1 -17 -1 -17
-14 0 -19 25 -40 23 -26 -3 14 -26 6 -26 -20 0 -24 24 -40 26 -40 5 0 -17 -21
-20 -37 -4 -8 8 -13 8 -18 -1 -5 -8 -12 -6 -26 6 -27 24 -24 31 14 32 17 0 71
0 119 1 l87 1 6 48 c3 26 8 64 11 85 7 49 -9 48 -33 -3 -10 -22 -21 -40 -25
-40 -16 0 -17 39 -2 68 13 28 21 32 53 32 35 0 39 -3 45 -31 9 -45 8 -49 -9
-49 -15 0 -21 -25 -7 -34 4 -2 39 -6 77 -8 58 -2 69 -1 66 12 -13 48 -11 68 7
90 l19 23 26 -43 c22 -38 24 -45 11 -58 -10 -9 -12 -18 -6 -24 14 -14 174 -11
282 6 52 8 98 12 102 10 16 -10 20 27 6 44 -18 21 -13 102 7 102 7 0 36 -29
65 -64 89 -113 184 -141 250 -75 29 29 71 110 83 161 10 40 -10 44 -23 4 -24
-74 -96 -146 -145 -146 -23 0 -75 38 -75 54 0 8 17 15 46 19 55 6 94 38 94 79
0 23 -10 35 -47 61 -80 55 -105 80 -98 100 9 21 53 33 68 18 19 -19 27 -12 27
23 0 34 -13 55 -24 37 -3 -4 -20 -11 -37 -15 -49 -10 -89 -43 -89 -75 0 -35
31 -76 73 -97 44 -23 77 -54 77 -75 0 -25 -46 -30 -74 -8 -33 26 -36 24 -36
-15 l0 -34 -35 35 c-34 34 -34 34 -15 53 37 37 22 85 -34 114 -25 13 -34 12
-82 -4 -75 -26 -196 -42 -344 -45 -81 -2 -125 -6 -128 -14 -2 -6 3 -11 12 -11
20 0 20 1 -4 -85 -11 -38 -20 -74 -20 -80 -2 -13 -24 73 -40 148 -11 55 -12
57 -44 57 -33 0 -34 -2 -87 -116 -29 -64 -62 -120 -73 -126 -17 -9 -18 -8 -12
13 4 13 22 88 40 166 19 78 37 146 40 151 3 5 17 10 31 10 32 0 39 6 31 28 -5
13 -14 15 -44 10 -20 -4 -65 -9 -100 -12 -57 -6 -63 -8 -60 -28 2 -15 9 -20
26 -18 13 2 22 -2 22 -10 -1 -22 -88 -344 -97 -357 -2 -2 -15 2 -30 9 l-28 13
25 8 25 8 -25 -2 c-17 -1 -25 -8 -24 -20 1 -9 -4 -17 -12 -17 -17 0 -19 -20
-1 -20 6 -1 1 -10 -13 -22 -17 -15 -19 -19 -7 -15 15 6 17 3 11 -16 -8 -24 -8
-102 2 -158 4 -30 9 -36 24 -32 17 5 18 12 13 64 -4 46 -2 59 8 59 10 1 9 5
-4 14 -16 13 -16 14 9 20 30 8 45 -1 25 -13 -7 -5 -14 -20 -14 -34 -1 -14 -5
-23 -9 -20 -5 2 -8 0 -8 -6 0 -5 4 -12 9 -15 9 -6 6 -60 -5 -77 -3 -5 -9 -7
-14 -4 -12 8 -33 -23 -26 -40 4 -11 2 -14 -6 -9 -8 5 -9 0 -5 -17 4 -13 7 -29
7 -35 0 -7 9 -14 20 -17 26 -7 26 -43 -1 -57 -17 -10 -18 -14 -8 -27 14 -16
50 -33 83 -40 11 -2 25 -8 31 -13 7 -5 15 -7 18 -3 4 3 7 1 7 -6 0 -7 -10 -22
-22 -33 -15 -12 -17 -18 -7 -15 9 3 16 0 16 -6 0 -7 -13 -12 -29 -12 -15 0
-28 5 -28 12 0 7 -6 16 -12 20 -7 4 -13 14 -14 21 -1 6 -2 18 -2 26 -1 7 -13
16 -27 18 -23 5 -25 2 -25 -31 0 -48 -8 -56 -58 -58 -24 -1 -68 -11 -99 -23
-32 -12 -85 -28 -118 -35 -90 -21 -158 -53 -151 -71 3 -8 2 -13 -3 -9 -5 3
-20 0 -33 -5 -23 -10 -23 -10 0 -6 12 2 22 0 22 -5 0 -8 -23 -13 -43 -10 -5 1
-6 -3 -2 -9 3 -5 1 -10 -4 -10 -6 0 -11 -5 -11 -11 0 -6 6 -9 13 -6 9 3 13 -2
11 -16 -1 -13 12 -37 33 -58 25 -27 33 -42 29 -57 -4 -13 -1 -22 9 -26 9 -3
15 0 15 9 0 8 5 15 11 15 5 0 7 5 3 12 -5 8 -2 9 9 5 10 -3 17 -3 17 2 0 9 71
42 100 48 8 1 54 6 102 10 89 9 130 23 65 23 -20 0 -38 4 -41 8 -7 12 -117 2
-148 -14 -21 -11 -26 -11 -22 -2 8 21 84 69 96 62 6 -4 8 -3 5 3 -9 14 54 43
108 50 133 15 135 15 135 -2 0 -9 4 -14 9 -10 6 3 25 -4 43 -15 30 -18 31 -20
9 -20 -19 0 -21 -3 -12 -14 13 -15 64 -9 54 7 -4 7 0 8 11 4 10 -4 29 -7 42
-7 17 0 24 -6 24 -20 0 -13 5 -18 15 -14 11 5 15 -1 15 -20 0 -14 4 -26 10
-26 5 0 7 7 4 15 -4 8 -2 15 4 15 6 0 8 -13 6 -29 -4 -24 0 -31 25 -44 22 -11
31 -12 35 -3 2 6 5 3 5 -6 1 -22 17 -32 27 -17 5 8 3 9 -6 4 -9 -6 -11 -4 -5
5 6 10 11 9 22 -5 17 -25 17 -36 -2 -29 -8 4 -15 1 -15 -5 0 -6 8 -11 17 -11
9 0 13 -3 10 -6 -6 -6 -34 5 -130 52 -108 53 -277 99 -277 75 0 -8 8 -10 19
-6 12 3 21 0 25 -11 3 -9 13 -14 21 -10 8 3 17 1 20 -4 4 -6 14 -10 24 -10 10
0 31 -7 47 -15 22 -11 30 -12 36 -2 6 9 8 9 8 -1 0 -7 5 -10 10 -7 6 3 10 2
10 -4 0 -6 12 -18 26 -27 22 -15 27 -15 36 -3 8 11 9 11 4 -3 -4 -13 3 -22 24
-33 17 -9 30 -22 30 -30 0 -12 -4 -12 -27 1 -29 14 -57 20 -37 6 6 -4 16 -23
23 -42 l11 -34 -21 22 c-23 26 -55 25 -53 -1 1 -9 -2 -17 -7 -17 -5 0 -9 5 -9
11 0 6 -7 3 -16 -6 -12 -11 -19 -13 -24 -5 -4 6 -15 8 -24 4 -11 -4 -22 -1
-27 7 -8 12 -12 11 -24 -5 -14 -19 -15 -18 -16 10 0 16 -3 23 -6 17 -2 -7 -9
-13 -14 -13 -6 0 -7 4 -4 10 3 6 -1 7 -9 4 -9 -3 -16 -1 -16 5 0 6 -11 11 -25
11 -14 0 -25 6 -25 13 0 8 -4 7 -10 -3 -6 -9 -10 -10 -10 -3 0 7 -12 10 -30 8
-22 -3 -29 -1 -24 8 5 9 3 9 -7 0 -7 -7 -22 -13 -33 -14 -18 -1 -17 -2 4 -9
20 -6 16 -8 -23 -9 -30 -1 -46 3 -42 9 3 6 -1 10 -11 10 -11 0 -15 6 -11 20 3
13 0 20 -10 20 -8 0 -12 -4 -8 -9 3 -5 -2 -17 -11 -26 -14 -13 -19 -14 -25 -3
-5 7 -9 18 -9 23 0 6 5 3 10 -5 5 -8 10 -10 10 -5 -1 13 -25 45 -34 45 -4 0
-5 -4 -2 -9 3 -5 -1 -12 -10 -15 -28 -11 -44 -6 -44 12 -1 13 -4 12 -14 -7 -7
-13 -11 -32 -8 -43 2 -10 -1 -18 -7 -18 -7 0 -9 13 -5 35 4 28 2 34 -10 29 -8
-3 -14 -11 -12 -17 1 -7 -2 -3 -7 8 -20 44 -157 83 -157 45 0 -5 10 -6 23 -3
18 4 19 3 7 -6 -13 -10 -13 -12 0 -21 8 -5 11 -10 6 -10 -6 0 -1 -7 10 -15 19
-15 19 -15 -1 -8 -20 6 -20 6 -1 -15 10 -12 16 -28 13 -37 -4 -8 -2 -15 3 -15
6 0 10 5 10 10 0 15 28 -2 70 -42 19 -18 57 -50 83 -71 34 -28 47 -45 47 -64
0 -18 -4 -24 -15 -19 -8 3 -15 0 -15 -7 0 -9 -2 -9 -8 0 -4 6 -20 10 -34 9
-22 -3 -26 0 -19 13 13 29 7 44 -24 54 -16 5 -46 25 -65 43 -20 19 -40 34 -46
34 -5 0 -9 15 -9 33 0 25 -5 33 -21 35 -12 2 -30 13 -40 24 -11 12 -14 18 -7
14 7 -4 17 2 23 15 10 17 9 24 -3 36 -26 26 -73 -28 -110 -127 -28 -75 -31
-95 -29 -175 1 -60 9 -107 22 -142 24 -65 24 -67 4 -59 -12 4 -15 2 -10 -9 3
-8 1 -15 -4 -15 -6 0 -10 5 -10 11 0 5 -5 7 -10 4 -6 -4 -7 -11 -4 -17 4 -7 2
-8 -4 -4 -7 4 -12 3 -12 -3 0 -7 -9 -7 -25 1 -19 8 -22 14 -13 20 14 8 14 8
-19 12 -12 1 -20 -1 -17 -5 2 -4 0 -10 -6 -14 -5 -3 -10 -1 -10 6 0 7 -12 10
-34 7 -27 -3 -33 -1 -28 12 5 12 3 13 -9 4 -8 -6 -27 -15 -44 -19 -27 -6 -28
-8 -10 -15 11 -4 30 -17 41 -28 12 -12 25 -18 28 -15 3 4 6 -6 6 -21 0 -15 -4
-25 -9 -21 -5 3 -12 1 -16 -5 -3 -5 -19 -10 -36 -10 -16 0 -29 -5 -29 -11 0
-8 -5 -8 -15 1 -12 10 -15 10 -15 -4 0 -11 -9 -16 -27 -16 -29 0 -55 -12 -54
-24 3 -18 0 -20 -9 -6 -6 10 -10 11 -10 3 0 -7 -7 -13 -15 -13 -8 0 -15 -4
-15 -9 0 -5 -18 -11 -40 -15 -22 -3 -40 -11 -40 -16 0 -5 -6 -7 -14 -4 -7 3
-20 -2 -29 -10 -8 -9 -26 -18 -39 -20 -13 -3 -25 -5 -28 -6 -3 -2 -8 -2 -12
-1 -5 0 -8 -4 -8 -9 0 -6 -7 -10 -16 -10 -9 0 -28 -12 -43 -27 -14 -16 -31
-29 -36 -30 -6 -1 -21 -7 -35 -13 -22 -9 -23 -10 -2 -6 12 2 22 0 22 -5 0 -5
10 -9 23 -9 20 -1 21 -2 5 -14 -18 -13 -26 -32 -9 -22 5 3 11 -4 14 -16 7 -24
-3 -41 -10 -20 -3 6 -14 12 -26 12 -22 0 -22 -1 2 -19 14 -11 21 -23 16 -30
-5 -9 -11 -7 -21 6 -13 17 -14 17 -7 -2 3 -11 11 -23 16 -26 5 -3 2 -9 -7 -12
-9 -4 -16 -1 -17 6 0 7 -4 3 -9 -8 -8 -18 -9 -19 -9 -1 -1 12 -6 16 -17 12 -9
-3 -18 -6 -20 -6 -2 0 -4 -7 -4 -15 0 -7 -7 -18 -16 -23 -9 -5 -14 -15 -10
-21 4 -6 12 -8 18 -5 7 4 8 2 4 -4 -10 -17 -34 -3 -39 21 l-4 22 -2 -22 c-1
-16 -6 -21 -16 -16 -10 3 -15 0 -13 -8 2 -8 -3 -13 -11 -11 -18 4 -71 -17 -94
-37 -17 -14 -19 -14 -28 1 -12 21 -35 13 -42 -14 -4 -12 -10 -17 -17 -13 -7 4
-16 2 -20 -4 -5 -9 -11 -8 -24 4 -14 15 -16 15 -16 1 0 -9 5 -16 12 -16 6 0 3
-6 -8 -14 -14 -11 -21 -11 -26 -3 -5 8 -8 7 -8 -4 0 -11 -9 -16 -31 -16 -17 0
-35 -6 -41 -14 -8 -11 -9 -10 -4 4 3 9 2 17 -3 17 -12 0 -32 -26 -26 -32 3 -3
-6 -4 -20 -3 -14 2 -27 -1 -31 -6 -3 -5 -16 -9 -29 -9 -13 0 -27 -5 -30 -10
-4 -6 -14 -10 -23 -9 -10 1 -24 1 -32 0 -13 -1 -13 -2 0 -11 13 -8 12 -10 -3
-10 -10 0 -16 -4 -13 -9 3 -4 -6 -6 -19 -3 -19 3 -25 0 -25 -14 0 -9 -3 -14
-7 -10 -10 9 -10 13 -12 72 -1 27 -5 43 -11 39 -7 -4 -10 -243 -10 -683 l0
-677 31 -65 c22 -45 31 -78 30 -108 -1 -27 3 -41 9 -37 6 4 34 8 63 10 38 2
46 1 29 -6 -12 -4 -38 -9 -58 -11 -19 -1 -38 -6 -40 -10 -8 -13 50 -128 64
-128 7 0 11 -4 8 -9 -10 -16 6 -42 22 -36 12 4 13 3 2 -10 -7 -8 -8 -15 -2
-15 5 0 17 -18 26 -40 9 -22 20 -40 26 -40 5 0 9 -3 9 -7 -3 -13 22 -73 30
-73 4 0 13 -16 20 -35 7 -19 17 -33 22 -30 5 4 9 -5 9 -19 0 -14 4 -26 9 -26
5 0 12 -11 15 -25 l6 -25 410 0 410 0 -19 48 c-10 26 -33 83 -51 127 -54 135
-101 275 -130 391 -16 61 -42 145 -58 187 -34 87 -171 334 -215 387 -30 36
-108 209 -111 244 -1 15 23 29 114 68 169 73 238 94 436 132 198 38 230 43
389 52 61 3 113 8 118 11 4 2 35 6 70 9 34 3 98 9 142 14 44 5 105 12 135 15
67 7 162 25 175 33 5 3 16 7 25 8 51 7 153 38 335 100 l160 55 42 -21 c23 -12
58 -24 78 -27 34 -5 35 -5 35 26 0 62 -102 261 -134 261 -7 0 -20 6 -31 13
-17 13 -17 14 1 14 50 -1 75 4 69 13 -3 6 1 7 9 4 9 -3 16 -1 16 4 0 6 14 10
32 10 22 -1 39 -10 56 -30 13 -15 32 -28 42 -28 10 0 23 -7 30 -15 14 -17 40
-20 40 -5 0 12 -50 59 -63 60 -9 0 -37 25 -37 33 0 3 9 7 20 10 11 3 20 2 20
-2 0 -8 80 -45 93 -42 4 0 7 -4 7 -11 0 -6 3 -8 6 -5 4 3 16 1 28 -5 11 -7 42
-13 68 -14 39 -2 45 0 35 11 -6 7 -15 11 -19 8 -5 -2 -8 0 -8 5 0 5 -13 15
-30 22 -16 7 -30 16 -30 20 0 4 -13 13 -30 20 -16 7 -30 16 -30 21 0 5 -9 9
-20 9 -11 0 -20 5 -20 10 0 13 15 13 62 0 21 -6 41 -10 44 -10 4 1 10 -4 14
-10 4 -7 25 -14 46 -16 24 -3 34 -2 26 4 -7 5 -10 17 -6 28 4 14 3 16 -4 5 -8
-11 -11 -9 -17 8 -3 12 -11 19 -16 16 -5 -4 -9 2 -9 11 0 10 3 15 6 11 3 -3
21 8 39 25 18 16 37 29 41 28 4 -1 10 4 14 11 6 9 16 8 45 -5 20 -10 41 -16
48 -13 6 2 -3 10 -21 18 -18 7 -32 19 -32 25 0 13 -48 16 -56 3 -3 -5 -11 -9
-19 -9 -12 0 -11 8 2 44 15 41 15 46 -1 70 -18 29 -16 35 30 103 15 23 22 44
18 57 -8 31 -51 66 -80 66 -28 0 -28 0 -12 37 20 47 68 113 121 167 27 28 60
65 73 82 26 34 63 132 65 173 2 23 2 23 6 4 2 -12 11 -27 19 -33 17 -15 19 1
2 18 -10 10 -10 15 -1 20 8 5 8 11 -1 24 -7 10 -16 15 -20 11 -4 -4 -4 0 -1 9
7 18 62 30 69 14 2 -6 5 -3 5 7 1 13 10 17 43 17 39 0 40 -1 22 -15 -10 -8
-13 -15 -7 -15 7 0 18 9 25 20 12 19 13 19 35 -2 30 -28 73 -164 73 -231 0
-95 -34 -167 -77 -167 -17 0 -22 -9 -27 -52 -7 -48 -21 -92 -47 -140 -7 -15
-5 -18 12 -18 11 0 17 -4 14 -10 -4 -6 1 -7 11 -3 16 6 15 7 -1 19 -17 12 -17
14 -2 20 10 3 17 13 17 21 0 8 4 12 8 9 14 -8 1 -66 -18 -79 -9 -6 -25 -27
-34 -45 -9 -18 -24 -36 -31 -39 -8 -3 -12 -9 -9 -14 3 -5 -1 -12 -9 -15 -9 -3
-18 -16 -21 -30 -4 -13 -11 -24 -16 -24 -6 0 -10 -7 -10 -16 0 -9 -10 -25 -22
-36 -13 -11 -17 -17 -11 -13 8 4 11 1 7 -9 -3 -9 -21 -21 -40 -28 -36 -13 -45
-28 -16 -28 14 -1 13 -4 -7 -20 -13 -11 -20 -20 -16 -20 5 0 -3 -9 -16 -21
-15 -13 -32 -19 -49 -16 -21 5 -22 4 -8 -7 17 -13 15 -56 -3 -56 -5 0 -6 -7
-2 -16 5 -14 8 -12 19 7 7 13 13 18 14 12 0 -15 40 -18 40 -3 0 5 11 12 25 16
13 3 23 11 22 18 -1 6 4 10 11 9 6 -2 12 4 12 12 0 8 5 15 10 15 6 0 10 5 10
10 0 13 29 43 55 58 12 7 15 12 6 12 -10 0 -7 6 7 19 12 10 20 20 17 23 -2 2
9 19 25 36 16 18 24 32 17 32 -6 0 -1 7 11 16 12 8 22 22 22 30 0 8 4 14 8 14
12 0 147 132 144 142 -1 4 2 8 8 8 5 0 10 8 10 18 0 13 2 14 9 3 7 -11 10 -9
16 8 4 15 12 20 22 17 10 -4 13 -2 10 7 -3 8 2 21 11 29 10 8 26 26 38 39 27
31 84 81 84 73 0 -12 -34 -64 -42 -64 -4 0 -8 -7 -8 -16 0 -8 -4 -12 -10 -9
-5 3 -10 1 -10 -6 0 -7 -27 -42 -60 -79 -32 -37 -56 -70 -53 -74 4 -3 1 -6 -5
-6 -7 0 -12 -7 -12 -15 0 -8 -4 -15 -10 -15 -5 0 -10 -5 -10 -11 0 -5 4 -8 9
-5 11 7 2 -34 -11 -51 -5 -6 -20 -10 -33 -8 -16 1 -25 -3 -25 -12 0 -8 -4 -12
-9 -9 -4 3 -19 -9 -32 -26 -13 -18 -35 -46 -49 -62 -45 -54 -80 -104 -80 -114
0 -6 -7 -12 -15 -16 -8 -3 -15 -10 -15 -15 0 -6 -11 -22 -25 -37 -13 -14 -22
-31 -19 -36 4 -6 -2 -7 -15 -3 -17 5 -21 2 -20 -17 1 -15 3 -17 6 -7 2 10 11
15 21 13 11 -3 27 10 47 39 17 26 35 43 43 40 7 -3 12 -2 11 3 -3 19 2 31 23
54 26 28 68 88 68 97 0 7 76 83 83 83 2 0 3 -17 1 -37 -2 -21 -3 -42 -4 -48 0
-5 -5 -3 -10 5 -8 13 -10 12 -10 -2 0 -21 11 -23 28 -6 18 18 24 -11 12 -57
l-10 -40 5 38 c2 20 0 37 -5 37 -12 0 -21 -62 -23 -167 -1 -74 -4 -90 -14 -81
-8 7 -13 7 -13 0 0 -5 7 -15 15 -22 8 -7 15 -18 15 -26 0 -7 12 -26 26 -41
l26 -28 -7 25 c-4 14 -10 48 -15 75 -5 28 -11 69 -15 93 -5 29 -4 42 4 42 6 0
11 -12 11 -27 0 -15 12 -75 26 -133 29 -121 52 -150 138 -175 83 -25 218 -14
275 22 21 13 28 13 67 -2 26 -10 41 -21 38 -27 -4 -7 -2 -8 4 -4 6 3 19 -2 29
-13 15 -16 47 -34 83 -46 3 -1 12 -4 20 -7 48 -19 80 -26 75 -18 -4 6 1 10 9
10 9 0 16 -5 16 -10 0 -6 11 -8 25 -6 14 3 25 0 25 -5 0 -6 4 -7 10 -4 6 3 10
2 10 -2 0 -5 18 -14 40 -20 34 -9 42 -8 50 6 8 14 9 14 10 -1 0 -12 5 -15 17
-11 11 4 14 3 9 -5 -4 -7 -3 -12 3 -12 5 0 13 5 16 10 4 7 14 6 28 -2 12 -7
24 -13 27 -14 3 0 12 -3 20 -6 8 -4 24 -9 35 -14 11 -4 23 -6 27 -6 17 4 167
-83 248 -143 75 -56 124 -104 176 -173 9 -12 13 -12 28 4 15 15 21 15 38 5 11
-7 18 -8 14 -3 -11 18 18 69 53 93 19 13 39 23 44 21 5 -1 6 2 3 7 -10 15 97
104 186 154 46 26 104 66 130 90 48 42 48 42 32 72 -20 39 -34 53 -34 35 0
-13 -2 -13 -10 0 -8 13 -10 12 -10 -2 0 -10 5 -18 11 -18 5 0 7 -5 4 -11 -5
-6 -12 -4 -21 8 -10 13 -13 14 -14 4 0 -21 -9 -8 -20 28 -5 20 -5 29 1 25 20
-12 -3 51 -26 72 -13 12 -21 24 -18 27 9 9 -181 249 -238 301 -30 27 -71 65
-92 84 -21 19 -46 51 -57 72 -10 20 -26 37 -34 37 -26 0 -18 -26 15 -54 28
-24 29 -28 15 -38 -9 -7 -16 -16 -16 -20 0 -5 9 0 19 9 12 11 21 14 26 7 3 -6
1 -11 -6 -11 -7 0 -3 -8 9 -18 54 -45 63 -52 71 -52 4 0 16 -8 25 -19 16 -17
16 -19 -1 -26 -10 -4 -29 -7 -42 -6 -20 2 -23 -1 -18 -18 3 -12 1 -19 -4 -15
-5 3 -9 13 -9 22 0 10 -3 13 -8 7 -4 -6 -19 -16 -34 -22 -21 -9 -25 -17 -20
-35 l6 -23 7 25 7 25 1 -27 c1 -25 4 -26 41 -24 24 2 40 -1 40 -8 -1 -14 -30
-53 -30 -39 0 13 -48 24 -55 13 -7 -11 -75 -8 -75 3 0 4 -4 5 -10 2 -5 -3 -10
-1 -10 4 0 6 5 11 10 11 7 0 7 7 0 21 -11 20 -12 20 -38 3 -18 -12 -27 -13
-30 -5 -2 6 -8 8 -14 5 -7 -5 -9 4 -6 25 3 18 1 34 -4 37 -4 3 -8 12 -8 20 0
22 -33 49 -58 48 -16 -1 -21 3 -18 12 3 8 2 14 -3 14 -11 0 -32 -25 -26 -31 2
-3 -5 -5 -15 -6 -11 -1 -20 3 -20 9 0 6 -7 5 -17 -3 -13 -11 -17 -11 -21 -1
-3 9 -8 10 -17 2 -9 -7 -16 -6 -25 5 -10 12 -9 15 5 15 12 0 15 5 11 16 -3 9
-6 18 -6 20 0 2 -7 4 -15 4 -8 0 -15 9 -15 20 0 11 -7 20 -16 20 -8 0 -12 -4
-9 -10 4 -6 -1 -7 -11 -3 -14 5 -13 8 6 18 15 8 19 15 11 19 -6 4 -11 2 -11
-3 0 -6 -4 -11 -10 -11 -19 0 -10 19 12 26 21 6 21 7 3 20 -22 17 -16 18 22 4
l28 -11 -29 26 c-34 30 -25 34 11 5 14 -11 31 -20 38 -20 7 0 15 -9 18 -20 3
-11 13 -20 23 -20 14 0 15 3 6 12 -15 15 -16 31 0 22 7 -4 8 -3 4 4 -4 7 -2
12 3 12 7 0 9 -14 6 -35 -2 -22 0 -35 7 -35 7 0 6 -5 -3 -12 -8 -7 -12 -12
-10 -11 2 2 10 -5 17 -15 8 -10 13 -12 14 -4 0 6 7 12 16 12 10 0 14 6 11 14
-4 10 0 12 14 9 13 -4 19 0 19 11 0 9 -6 16 -12 16 -9 0 -8 4 2 10 8 5 13 10
10 11 -3 0 -13 2 -23 4 -12 2 -17 -1 -13 -10 5 -13 -22 -30 -32 -20 -3 3 0 5
8 5 10 0 10 3 1 14 -10 12 -8 17 9 26 12 6 28 9 35 6 9 -3 13 2 12 15 -1 10
-5 19 -9 19 -4 0 -8 7 -8 15 0 8 -5 15 -10 15 -6 0 -9 -3 -8 -7 7 -36 -39 -56
-62 -28 -10 12 -9 15 7 15 11 0 30 9 43 20 13 11 19 20 14 20 -6 0 -16 -6 -23
-12 -7 -7 -12 -8 -11 -3 2 6 2 17 1 25 -1 11 -3 12 -9 3 -5 -7 -20 -14 -35
-15 -15 -1 -27 -8 -27 -15 0 -7 -5 -13 -10 -13 -6 0 -8 12 -5 28 5 25 5 25 -4
5 -11 -25 -24 -32 -15 -8 3 8 -1 22 -10 30 -9 9 -16 14 -16 10 0 -4 -6 0 -13
7 -14 15 -19 71 -5 62 5 -3 19 3 31 13 28 26 58 42 40 22 -18 -19 -16 -32 3
-25 21 8 72 -14 78 -34 2 -8 4 -4 5 10 1 37 -13 53 -38 45 -20 -6 -20 -5 4 19
32 32 35 32 27 4 -4 -17 -2 -20 12 -15 10 4 20 7 22 7 2 0 4 15 4 33 0 20 -3
27 -9 19 -6 -10 -13 -11 -35 -1 -19 9 -23 15 -14 21 10 6 8 8 -4 8 -10 0 -18
-8 -19 -17 0 -13 -2 -14 -6 -4 -3 8 2 20 12 27 18 13 13 35 -8 30 -7 -1 -9 -1
-4 1 4 3 7 12 7 21 0 15 2 15 10 2 5 -8 10 -10 10 -3 0 6 -43 56 -95 111 -52
55 -95 106 -95 114 0 7 -9 19 -20 26 l-21 13 21 28 c11 16 20 33 20 39 0 10
119 72 139 72 6 0 10 6 9 13 -2 6 5 11 15 11 9 -1 17 5 18 15 0 14 1 14 7 -1
6 -16 10 -16 34 -4 15 8 29 12 32 8 3 -3 6 -1 6 5 0 5 6 10 14 10 7 0 35 10
61 22 26 12 54 20 62 17 8 -3 12 -2 9 3 -4 5 15 16 41 25 25 9 53 22 62 30 9
8 27 16 41 18 30 4 86 60 106 106 7 18 20 65 28 105 14 64 13 80 0 146 -8 40
-31 119 -51 175 -19 55 -40 116 -46 134 -6 17 -14 32 -19 32 -5 0 -7 4 -4 9 3
5 -27 80 -68 168 -41 87 -79 178 -86 202 -6 23 -21 62 -33 84 -22 44 -97 168
-107 177 -3 3 -10 14 -17 25 -55 91 -72 130 -87 195 -26 111 -89 270 -115 290
-4 3 -14 17 -24 33 -10 15 -25 27 -33 27 -11 0 -14 6 -10 16 3 8 2 12 -4 9
-13 -8 -49 16 -43 31 2 6 -7 14 -20 18 -13 3 -44 24 -68 46 -38 34 -45 37 -51
22 -5 -13 -7 -14 -8 -2 -2 8 -2 17 -2 20 0 3 -17 6 -39 7 -40 2 -52 -10 -22
-21 14 -6 15 -9 4 -15 -7 -5 -12 -11 -12 -15 3 -20 -1 -24 -20 -19 -16 5 -19
11 -15 32 l5 26 -12 -27 c-9 -20 -16 -25 -27 -18 -26 17 -70 12 -71 -7 0 -10
-3 -13 -5 -7 -3 7 -14 9 -26 6 -16 -4 -19 -2 -13 9 7 12 6 12 -7 1 -17 -14
-39 -13 -50 3 -5 6 -8 6 -8 -2 0 -8 -17 -5 -52 8 -29 10 -61 19 -70 19 -10 0
-18 5 -18 10 0 6 -12 10 -26 10 -14 0 -23 4 -19 10 3 6 -1 10 -9 10 -9 0 -16
4 -16 10 0 5 -16 12 -35 16 -19 3 -32 10 -29 15 3 5 -1 9 -9 9 -17 0 -15 49 3
60 6 4 8 14 4 23 -3 9 1 23 10 32 8 9 12 23 9 32 -5 12 -3 14 7 8 8 -5 11 -3
8 6 -2 7 -18 19 -35 26 l-31 12 -16 -87z m-592 -1098 c23 -9 21 -61 -3 -74
-33 -17 -41 -12 -41 28 0 50 9 60 44 46z m-113 -196 c-7 -25 -9 -28 -10 -10
-1 24 -16 29 -28 9 -12 -20 -69 -57 -87 -57 -12 0 -16 10 -16 40 0 33 3 40 20
40 11 0 20 -4 20 -10 0 -25 18 -7 23 23 7 49 -2 62 -25 38 -26 -28 -28 -27
-28 17 0 42 18 77 27 53 4 -9 7 -10 12 -2 10 15 71 -6 71 -25 0 -32 20 -11 22
24 1 20 4 5 5 -35 2 -40 0 -87 -6 -105z m-515 105 l7 -43 -33 0 c-27 0 -31 3
-25 18 5 9 13 31 19 49 13 39 23 32 32 -24z m209 7 c-24 -27 -35 -25 -35 4 0
15 7 26 18 29 28 6 37 -11 17 -33z m101 -12 c-3 -29 -6 -79 -6 -111 l0 -59
-36 47 c-20 26 -38 62 -41 79 -4 28 0 37 31 64 52 45 60 42 52 -20z m-456
-184 c55 -4 55 -4 40 -14 -8 -5 -30 -10 -47 -10 -27 0 -33 4 -33 21 0 14 4 18
13 12 6 -4 19 -8 27 -9z m-155 -74 c19 0 19 -14 0 -30 -19 -16 -23 -12 -31 31
-4 27 -3 31 6 17 6 -10 18 -18 25 -18z m150 -40 c3 -5 1 -10 -4 -10 -6 0 -11
5 -11 10 0 6 2 10 4 10 3 0 8 -4 11 -10z m200 1 c3 -5 1 -12 -5 -16 -5 -3 -10
1 -10 9 0 18 6 21 15 7z m-48 -23 c-3 -8 -6 -5 -6 6 -1 11 2 17 5 13 3 -3 4
-12 1 -19z m1477 6 c7 -18 -18 -64 -34 -64 -5 0 -12 5 -15 10 -3 6 1 10 9 10
8 0 18 4 21 10 4 6 -1 7 -12 4 -16 -5 -16 -4 -2 8 9 7 14 19 12 26 -7 18 14
15 21 -4z m-1699 -4 c-3 -5 -12 -10 -18 -10 -7 0 -6 4 3 10 19 12 23 12 15 0z
m205 6 c0 -3 -4 -8 -10 -11 -5 -3 -10 -1 -10 4 0 6 5 11 10 11 6 0 10 -2 10
-4z m-33 -20 c0 -8 -6 -12 -15 -9 -11 5 -11 7 0 14 7 5 13 9 14 9 0 0 1 -6 1
-14z m77 -7 c-29 -12 -36 -10 -22 5 7 7 19 11 27 8 11 -4 10 -7 -5 -13z m179
4 c-7 -2 -19 -2 -25 0 -7 3 -2 5 12 5 14 0 19 -2 13 -5z m-203 -35 c0 -6 -6
-5 -15 2 -8 7 -15 14 -15 16 0 2 7 1 15 -2 8 -4 15 -11 15 -16z m57 0 c-3 -8
-6 -5 -6 6 -1 11 2 17 5 13 3 -3 4 -12 1 -19z m43 12 c8 -5 11 -10 5 -10 -5 0
-17 5 -25 10 -8 5 -10 10 -5 10 6 0 17 -5 25 -10z m110 2 c0 -5 -6 -17 -14
-27 -12 -17 -13 -17 -18 8 -4 21 -1 27 13 27 11 0 19 -4 19 -8z m1211 -85 c-8
-8 -11 -4 -11 14 0 33 14 47 18 19 2 -12 -1 -27 -7 -33z m-1131 19 c0 -9 -40
-13 -46 -5 -3 5 6 9 20 9 14 0 26 -2 26 -4z m258 -70 c1 -2 -1 -17 -4 -35 -6
-29 -8 -30 -20 -14 -13 17 -13 17 -14 0 0 -14 -5 -17 -20 -12 -13 4 -20 2 -20
-7 0 -7 -6 -2 -13 12 -7 14 -22 29 -35 35 -12 5 -22 15 -22 22 0 9 19 11 73 7
39 -3 73 -7 75 -8z m847 -4 c-3 -3 -11 0 -18 7 -9 10 -8 11 6 5 10 -3 15 -9
12 -12z m-707 -7 c63 -7 74 -11 116 -49 25 -22 58 -49 72 -60 25 -18 26 -21
19 -88 -7 -70 -15 -84 -70 -128 -17 -14 -18 -13 -12 2 3 10 3 19 -1 22 -4 3
-9 -9 -10 -25 -1 -18 3 -29 10 -29 16 -1 74 -47 67 -54 -11 -11 -47 6 -42 20
3 8 0 14 -6 14 -6 0 -14 0 -18 0 -5 0 -8 -4 -8 -9 0 -5 -3 -13 -7 -17 -5 -4
-8 -2 -8 4 0 7 -4 12 -10 12 -5 0 -10 -7 -10 -15 0 -8 -8 -15 -17 -15 -15 0
-16 2 -3 10 9 6 11 10 3 10 -7 0 -10 7 -6 18 5 14 3 14 -11 -3 -16 -18 -17
-18 -12 -2 3 10 6 25 6 33 0 8 3 13 8 12 12 -5 48 38 44 52 -3 9 1 11 11 7 8
-3 18 0 20 7 4 10 -1 12 -15 8 -11 -2 -22 -12 -26 -21 -7 -20 -34 -41 -44 -35
-5 3 -8 14 -8 25 0 10 -6 19 -12 19 -7 1 -3 9 10 19 16 14 22 30 22 61 0 23
-4 39 -9 36 -4 -3 -19 6 -31 19 -13 14 -32 25 -42 25 -10 0 -18 6 -19 13 0 8
-2 8 -5 1 -6 -14 -50 -6 -64 11 -8 9 -8 20 -2 32 5 10 7 23 5 30 -6 16 19 43
33 38 7 -2 43 -7 82 -10z m672 -41 c0 -8 -4 -12 -10 -9 -5 3 -10 10 -10 16 0
5 5 9 10 9 6 0 10 -7 10 -16z m-796 -9 c-4 -8 -8 -15 -10 -15 -2 0 -4 7 -4 15
0 8 4 15 10 15 5 0 7 -7 4 -15z m780 -13 c5 -9 -19 -44 -26 -36 -8 7 3 44 13
44 4 0 10 -3 13 -8z m-799 -13 c12 -19 -5 -23 -22 -6 -16 16 -16 17 -1 17 9 0
20 -5 23 -11z m-832 -48 c-4 -3 -11 -10 -15 -15 -5 -5 -8 0 -8 12 0 15 4 20
16 15 9 -3 12 -9 7 -12z m862 9 c3 -5 1 -10 -4 -10 -6 0 -11 5 -11 10 0 6 2
10 4 10 3 0 8 -4 11 -10z m735 -10 c0 -5 -4 -10 -10 -10 -5 0 -10 5 -10 10 0
6 5 10 10 10 6 0 10 -4 10 -10z m-670 -60 c0 -5 -7 -10 -16 -10 -8 0 -12 5 -9
10 3 6 10 10 16 10 5 0 9 -4 9 -10z m58 -18 c2 -7 -1 -12 -8 -12 -6 0 -8 -4
-5 -10 3 -5 2 -10 -4 -10 -5 0 -12 4 -16 10 -3 6 -15 6 -30 0 -20 -7 -23 -6
-18 6 3 8 12 13 19 10 9 -3 14 2 14 14 0 16 4 18 22 11 12 -4 24 -13 26 -19z
m-231 12 c-3 -3 -12 -4 -19 -1 -8 3 -5 6 6 6 11 1 17 -2 13 -5z m800 0 c-3 -3
-12 -4 -19 -1 -8 3 -5 6 6 6 11 1 17 -2 13 -5z m-607 -54 c0 -5 -8 -10 -17
-10 -15 0 -16 2 -3 10 19 12 20 12 20 0z m942 -165 c6 -30 -21 -50 -54 -39
-13 4 -18 2 -14 -4 3 -5 0 -12 -8 -15 -11 -5 -12 0 -5 25 10 35 25 49 46 41 7
-3 13 2 13 12 0 24 17 9 22 -20z m-462 5 c0 -5 -5 -10 -11 -10 -5 0 -7 5 -4
10 3 6 8 10 11 10 2 0 4 -4 4 -10z m-1860 -50 c0 -5 -4 -10 -9 -10 -6 0 -13 5
-16 10 -3 6 1 10 9 10 9 0 16 -4 16 -10z m-25 -30 c0 -8 -7 -16 -15 -18 -10
-2 -16 5 -16 18 0 13 6 20 16 18 8 -2 15 -10 15 -18z m3255 -35 c0 -8 -4 -15
-8 -15 -5 0 -9 7 -9 15 0 8 4 15 9 15 4 0 8 -7 8 -15z m-26 -24 c3 -5 -1 -12
-10 -15 -20 -8 -29 -1 -19 13 8 13 22 14 29 2z m-44 -23 c0 -14 -54 -48 -76
-48 -23 0 -16 17 11 24 14 4 25 11 25 17 0 6 4 8 9 4 5 -3 12 -1 16 5 8 14 15
13 15 -2z m-2430 -14 c0 -2 -13 -4 -30 -4 -16 0 -30 4 -30 8 0 5 14 7 30 4 17
-2 30 -6 30 -8z m350 -21 c22 -10 40 -21 40 -25 0 -4 -6 -5 -14 -2 -8 3 -24 1
-35 -5 -13 -8 -22 -8 -26 -1 -4 6 -11 7 -17 4 -15 -10 -29 18 -16 33 14 17 20
16 68 -4z m1966 -38 c-8 -8 -17 -15 -20 -15 -3 0 -3 7 0 15 4 8 13 15 21 15
12 0 12 -2 -1 -15z m-1169 -60 c-7 -19 -34 -16 -40 4 -7 29 14 46 31 24 7 -9
11 -22 9 -28z m-60 -7 c-6 -3 -16 -4 -24 -1 -11 4 -11 9 4 25 16 18 18 18 24
1 3 -10 2 -21 -4 -25z m-997 12 c0 -5 -5 -10 -11 -10 -5 0 -7 5 -4 10 3 6 8
10 11 10 2 0 4 -4 4 -10z m-785 -10 c8 -13 -5 -13 -25 0 -13 8 -13 10 2 10 9
0 20 -4 23 -10z m1730 -17 c8 4 17 2 20 -2 3 -5 14 -7 25 -4 11 3 28 -1 37 -8
11 -10 17 -11 20 -3 6 18 43 4 43 -17 0 -10 4 -20 9 -24 5 -3 8 -17 5 -31 -3
-18 -1 -23 7 -18 9 5 10 1 7 -14 -4 -12 -3 -22 1 -22 12 0 28 -85 23 -119 -2
-17 -9 -31 -16 -31 -6 0 -23 -6 -38 -14 -15 -8 -39 -17 -55 -20 -16 -4 -42
-18 -57 -31 -16 -14 -37 -25 -47 -25 -16 0 -16 2 -2 32 22 43 23 318 2 318 -3
0 -11 12 -18 27 -11 23 -10 25 3 14 9 -7 22 -11 31 -8z m-1620 -13 c-3 -5 -10
-10 -16 -10 -5 0 -9 5 -9 10 0 6 7 10 16 10 8 0 12 -4 9 -10z m579 -30 c10
-13 9 -13 -6 -1 -10 7 -18 21 -17 30 0 13 1 14 6 1 3 -8 11 -22 17 -30z m-104
10 c0 -5 -5 -10 -11 -10 -5 0 -7 5 -4 10 3 6 8 10 11 10 2 0 4 -4 4 -10z
m-805 -10 c3 -5 1 -10 -4 -10 -6 0 -11 5 -11 10 0 6 2 10 4 10 3 0 8 -4 11
-10z m-64 -163 c-5 -5 -2 -21 5 -37 14 -27 10 -60 -6 -60 -12 0 -20 28 -14 48
5 14 4 15 -5 2 -8 -12 -11 -12 -11 -1 0 7 -6 11 -15 7 -8 -3 -15 -1 -15 4 0 6
9 10 21 10 12 0 17 4 14 11 -4 6 -13 8 -21 5 -17 -6 -18 6 -3 21 6 6 18 9 25
6 8 -3 14 1 14 8 0 11 2 11 10 -1 5 -8 5 -19 1 -23z m254 -66 c-6 -5 -25 10
-25 20 0 5 6 4 14 -3 8 -7 12 -15 11 -17z m-226 -73 c11 -18 26 -40 34 -48 7
-8 22 -29 32 -46 11 -20 36 -39 66 -52 46 -21 79 -53 79 -79 0 -19 -16 -16
-37 6 -10 10 -37 30 -60 45 -24 14 -43 33 -43 41 0 9 -6 12 -15 9 -8 -4 -15
-1 -15 5 0 7 -11 24 -25 39 -15 16 -23 34 -19 44 3 10 -3 21 -16 28 -11 6 -20
17 -20 25 0 25 19 17 39 -17z m2226 -46 c-3 -3 -11 0 -18 7 -9 10 -8 11 6 5
10 -3 15 -9 12 -12z m-254 -75 c-16 -16 -26 0 -10 19 9 11 15 12 17 4 2 -6 -1
-17 -7 -23z m1184 4 c3 -5 2 -12 -3 -15 -5 -3 -9 1 -9 9 0 17 3 19 12 6z
m-1220 -31 c-11 -5 -15 -9 -10 -10 6 -1 -1 -6 -14 -11 -13 -5 -21 -15 -18 -22
3 -9 -2 -13 -14 -12 -24 2 -38 15 -15 15 9 0 15 4 11 9 -7 13 35 41 60 40 20
0 20 0 0 -9z m1258 -25 c-3 -9 -8 -14 -10 -11 -3 3 -2 9 2 15 9 16 15 13 8 -4z
m-1083 -75 c0 -5 -5 -10 -11 -10 -5 0 -7 5 -4 10 3 6 8 10 11 10 2 0 4 -4 4
-10z m-1880 -42 c0 -13 -20 -19 -41 -13 -16 5 -18 9 -8 15 15 10 49 9 49 -2z
m3040 -118 c0 -5 -5 -10 -11 -10 -5 0 -7 5 -4 10 3 6 8 10 11 10 2 0 4 -4 4
-10z m-82 -11 c-2 -6 -7 -10 -11 -10 -4 1 -14 1 -23 1 -8 0 -12 5 -9 10 8 13
48 13 43 -1z m-2085 -91 c9 13 47 17 47 4 0 -14 -62 -32 -79 -22 -10 6 -11 10
-3 10 6 0 13 12 13 28 l1 27 7 -30 c4 -20 9 -26 14 -17z m-1913 10 c17 -11 22
-10 30 2 6 9 10 10 10 3 0 -20 -35 -34 -50 -20 -12 10 -12 9 -1 -6 8 -9 11
-20 7 -24 -8 -9 -13 -2 -21 30 -8 30 -4 33 25 15z m990 1 c0 -6 7 -9 15 -6 16
7 30 -8 16 -17 -5 -3 -20 3 -32 14 -13 11 -18 19 -11 20 6 0 12 -5 12 -11z
m2917 -44 c9 -25 -4 -29 -17 -6 -7 15 -7 21 0 21 6 0 13 -7 17 -15z m-1670
-40 c2 -6 -6 -11 -17 -11 -11 0 -20 6 -20 14 0 15 32 13 37 -3z m533 -86 c0
-6 -4 -7 -10 -4 -5 3 -10 11 -10 16 0 6 5 7 10 4 6 -3 10 -11 10 -16z m-1120
-55 c-36 -7 -74 -10 -85 -6 -16 5 -13 7 15 13 19 3 58 6 85 6 l50 1 -65 -14z
m1505 -219 c17 -8 23 -14 14 -14 -19 -1 -89 26 -89 35 0 6 32 -3 75 -21z
m1522 -45 c-7 -25 16 -55 36 -47 12 4 14 2 10 -11 -12 -34 -24 -42 -42 -30
-13 8 -17 21 -15 47 2 20 3 42 3 49 1 6 4 12 7 12 4 0 4 -9 1 -20z m-4957
-816 c0 -1 -18 -13 -40 -25 -22 -13 -40 -26 -40 -31 0 -4 -6 -8 -14 -8 -13 0
-13 4 -2 26 19 35 44 52 72 46 13 -2 24 -6 24 -8z m-110 -30 c0 -6 -108 -57
-128 -60 -24 -4 -1 15 26 21 15 3 41 14 57 25 30 20 45 25 45 14z m-10 -42 c0
-5 -12 -15 -27 -23 -16 -8 -34 -20 -41 -26 -16 -16 -42 -17 -42 -2 0 5 5 7 10
4 6 -3 10 -1 10 4 0 6 6 11 13 11 6 0 23 9 37 20 27 21 40 25 40 12z m-169
-95 c-10 -9 -11 -8 -5 6 3 10 9 15 12 12 3 -3 0 -11 -7 -18z m-44 -23 c-3 -3
-12 -4 -19 -1 -8 3 -5 6 6 6 11 1 17 -2 13 -5z m-227 -58 c0 -3 -4 -8 -10 -11
-5 -3 -10 -1 -10 4 0 6 5 11 10 11 6 0 10 -2 10 -4z m760 -5 c0 -5 -11 -18
-25 -29 -14 -11 -25 -25 -25 -31 0 -6 -7 -11 -15 -11 -9 0 -18 -6 -21 -14 -3
-8 -19 -19 -35 -25 -16 -5 -29 -15 -29 -22 0 -6 -7 -9 -14 -6 -10 4 -13 1 -10
-8 4 -10 -5 -16 -30 -21 -20 -3 -36 -10 -36 -15 0 -5 -3 -8 -7 -7 -13 2 -67
-23 -75 -35 -5 -8 -8 -7 -8 4 0 9 23 28 53 44 101 54 189 117 230 163 21 22
47 30 47 13z m-345 -221 c-3 -5 -10 -10 -16 -10 -5 0 -9 5 -9 10 0 6 7 10 16
10 8 0 12 -4 9 -10z m-35 -12 c0 -7 -12 -14 -27 -15 l-28 -1 25 14 c31 17 30
17 30 2z"/>
<path d="M4209 4961 c8 -5 10 -14 6 -22 -6 -11 -5 -11 5 -2 14 12 6 33 -13 33
-8 0 -7 -3 2 -9z"/>
<path d="M4051 4814 c0 -11 3 -14 6 -6 3 7 2 16 -1 19 -3 4 -6 -2 -5 -13z"/>
<path d="M4055 4380 c-3 -5 -1 -10 4 -10 6 0 11 5 11 10 0 6 -2 10 -4 10 -3 0
-8 -4 -11 -10z"/>
<path d="M4400 4236 c7 -7 13 -7 20 0 6 6 3 10 -10 10 -13 0 -16 -4 -10 -10z"/>
<path d="M4365 4160 c-3 -5 -2 -10 4 -10 5 0 13 5 16 10 3 6 2 10 -4 10 -5 0
-13 -4 -16 -10z"/>
<path d="M4260 4180 c0 -5 5 -10 10 -10 6 0 10 5 10 10 0 6 -4 10 -10 10 -5 0
-10 -4 -10 -10z"/>
<path d="M4760 3630 c0 -5 5 -10 10 -10 6 0 10 5 10 10 0 6 -4 10 -10 10 -5 0
-10 -4 -10 -10z"/>
<path d="M4696 3616 c7 -18 32 -28 39 -16 4 6 -1 10 -9 10 -9 0 -16 5 -16 10
0 6 -4 10 -10 10 -5 0 -7 -6 -4 -14z"/>
<path d="M4725 3570 c-3 -5 -1 -10 4 -10 6 0 11 5 11 10 0 6 -2 10 -4 10 -3 0
-8 -4 -11 -10z"/>
<path d="M4960 6040 c0 -5 5 -10 10 -10 6 0 10 5 10 10 0 6 -4 10 -10 10 -5 0
-10 -4 -10 -10z"/>
<path d="M2964 5908 c3 -24 0 -41 -9 -48 -8 -6 -11 -18 -8 -26 3 -8 -1 -14
-11 -14 -9 0 -16 -4 -16 -9 0 -6 -8 -10 -17 -10 -84 -2 -114 -5 -119 -13 -3
-4 -10 -6 -15 -2 -5 3 -16 0 -24 -6 -8 -7 -15 -8 -15 -3 0 4 -17 8 -39 8 -30
0 -38 3 -33 15 3 8 2 12 -3 8 -4 -4 -13 -1 -20 8 -10 15 -13 15 -28 -1 -13
-12 -17 -13 -18 -3 -1 7 -5 2 -9 -12 -5 -17 -8 -19 -9 -7 -1 22 -31 23 -31 1
0 -13 -3 -14 -13 -5 -8 6 -17 8 -20 4 -4 -3 -7 0 -7 8 0 11 -2 11 -10 -1 -8
-12 -10 -12 -10 5 -1 18 -2 18 -13 4 -16 -21 -28 -24 -38 -7 -7 10 -9 8 -9 -6
0 -14 -6 -17 -26 -13 -20 3 -28 0 -31 -14 -5 -19 -6 -19 -20 -2 -13 17 -14 16
-7 -6 4 -15 2 -21 -4 -17 -6 3 -14 1 -17 -5 -4 -5 -13 -8 -21 -5 -8 3 -14 -1
-14 -9 0 -18 -12 -19 -29 -2 -11 10 -12 8 -3 -9 10 -19 6 -23 -37 -45 -26 -14
-46 -30 -43 -37 2 -7 -3 -12 -12 -12 -9 0 -16 6 -16 13 0 8 -2 9 -8 1 -4 -7
-16 -13 -27 -15 -10 -2 -22 -15 -26 -29 -5 -19 -7 -20 -8 -6 -1 19 -1 19 -20
0 -12 -13 -15 -22 -7 -27 6 -5 0 -7 -16 -4 -15 2 -25 1 -23 -3 3 -5 -3 -11
-12 -14 -14 -6 -14 -8 3 -21 18 -14 16 -14 -16 -10 -26 4 -30 3 -15 -4 19 -8
18 -9 -8 -20 -17 -7 -25 -15 -21 -23 5 -7 3 -8 -5 -4 -7 5 -10 14 -7 22 3 8 0
11 -9 8 -8 -3 -11 -12 -9 -19 3 -7 1 -16 -5 -20 -6 -3 -14 1 -17 9 -8 21 -69
14 -97 -11 -12 -10 -34 -24 -49 -31 -16 -6 -28 -18 -28 -27 0 -8 -6 -15 -13
-15 -7 0 -19 -9 -27 -19 -7 -11 -17 -18 -22 -15 -13 8 -9 -11 7 -32 8 -10 15
-14 15 -7 0 7 10 2 23 -10 24 -24 30 -57 13 -69 -6 -4 -1 -8 11 -8 16 0 21 -4
16 -16 -5 -13 -7 -13 -14 -2 -7 10 -9 9 -9 -4 0 -12 -8 -18 -25 -18 -14 0 -25
-4 -25 -9 0 -12 -60 -20 -67 -8 -3 5 -9 4 -13 -3 -4 -7 -16 -9 -28 -6 -17 6
-19 11 -12 36 13 47 1 35 -26 -25 -39 -83 -46 -161 -24 -235 29 -97 215 -429
301 -541 24 -31 114 -129 200 -219 l157 -162 27 59 c36 81 115 158 175 172 25
6 60 11 78 11 39 0 40 9 7 40 -50 47 -121 184 -165 315 -24 72 -58 163 -77
204 -18 40 -33 75 -33 77 0 2 45 26 100 54 60 30 100 56 100 65 0 9 10 15 25
15 14 0 25 5 25 11 0 5 5 7 10 4 6 -3 10 -1 10 4 0 6 6 11 14 11 8 0 16 3 18
8 2 4 41 31 88 61 94 59 132 90 124 102 -6 11 45 -5 86 -26 19 -10 46 -30 60
-45 14 -14 57 -54 97 -88 l71 -61 1 47 c0 26 5 101 10 167 6 66 11 191 11 278
0 161 -24 420 -42 447 -6 11 -8 4 -4 -22z m-754 -268 c0 -5 -4 -10 -10 -10 -5
0 -10 5 -10 10 0 6 5 10 10 10 6 0 10 -4 10 -10z m-103 -45 c0 -8 -4 -12 -9
-9 -4 3 -8 9 -8 15 0 5 4 9 8 9 5 0 9 -7 9 -15z m479 -360 c18 -15 18 -15 -11
-13 -24 2 -29 -1 -27 -14 2 -10 -2 -18 -8 -18 -11 0 -14 43 -3 53 10 11 28 8
49 -8z m-386 -872 c0 -13 10 -27 22 -34 14 -8 18 -14 10 -17 -6 -2 -10 -8 -6
-13 3 -5 0 -9 -5 -9 -6 0 -11 5 -11 11 0 16 -36 59 -44 52 -3 -3 -6 3 -6 15 0
12 -5 22 -11 22 -5 0 -8 4 -5 9 11 17 56 -13 56 -36z"/>
<path d="M5333 5922 c-8 -5 -9 -13 -3 -22 8 -12 10 -11 11 5 0 11 3 14 6 8 2
-7 9 -13 14 -13 4 0 6 7 3 15 -7 17 -13 18 -31 7z"/>
<path d="M4521 5874 c0 -11 3 -14 6 -6 3 7 2 16 -1 19 -3 4 -6 -2 -5 -13z"/>
<path d="M4660 5820 c0 -5 5 -10 11 -10 5 0 7 5 4 10 -3 6 -8 10 -11 10 -2 0
-4 -4 -4 -10z"/>
<path d="M4590 5795 c0 -8 5 -15 10 -15 6 0 10 7 10 15 0 8 -4 15 -10 15 -5 0
-10 -7 -10 -15z"/>
<path d="M2201 5694 c0 -11 3 -14 6 -6 3 7 2 16 -1 19 -3 4 -6 -2 -5 -13z"/>
<path d="M4431 5584 c0 -11 3 -14 6 -6 3 7 2 16 -1 19 -3 4 -6 -2 -5 -13z"/>
<path d="M1925 5531 c-3 -5 -1 -12 5 -16 5 -3 10 1 10 9 0 18 -6 21 -15 7z"/>
<path d="M4337 5400 c-3 -11 -3 -20 -1 -20 2 0 8 9 14 20 6 11 7 20 2 20 -6 0
-12 -9 -15 -20z"/>
<path d="M4387 5390 c-3 -11 -1 -20 4 -20 5 0 9 9 9 20 0 11 -2 20 -4 20 -2 0
-6 -9 -9 -20z"/>
<path d="M4120 5209 c0 -5 5 -7 10 -4 6 3 10 8 10 11 0 2 -4 4 -10 4 -5 0 -10
-5 -10 -11z"/>
<path d="M4076 5145 c25 -19 40 -19 20 0 -8 8 -20 15 -27 15 -7 0 -4 -6 7 -15z"/>
<path d="M3990 5140 c0 -5 5 -10 11 -10 5 0 7 5 4 10 -3 6 -8 10 -11 10 -2 0
-4 -4 -4 -10z"/>
<path d="M3890 5125 c0 -8 2 -15 4 -15 2 0 6 7 10 15 3 8 1 15 -4 15 -6 0 -10
-7 -10 -15z"/>
<path d="M4170 5081 c0 -5 5 -13 10 -16 6 -3 10 -2 10 4 0 5 -4 13 -10 16 -5
3 -10 2 -10 -4z"/>
<path d="M3310 5029 c0 -5 5 -7 10 -4 6 3 10 8 10 11 0 2 -4 4 -10 4 -5 0 -10
-5 -10 -11z"/>
<path d="M3184 4948 c-10 -16 2 -18 21 -5 16 12 16 14 1 14 -9 0 -19 -4 -22
-9z"/>
<path d="M3106 4761 c4 -130 7 -151 20 -139 9 10 5 210 -5 222 -5 6 -11 20
-14 31 -3 11 -3 -40 -1 -114z"/>
<path d="M3170 4830 c0 -5 5 -10 10 -10 6 0 10 5 10 10 0 6 -4 10 -10 10 -5 0
-10 -4 -10 -10z"/>
<path d="M4193 4795 c0 -8 4 -15 9 -15 4 0 8 4 8 9 0 6 -4 12 -8 15 -5 3 -9
-1 -9 -9z"/>
<path d="M4400 4770 c0 -5 7 -10 16 -10 8 0 12 5 9 10 -3 6 -10 10 -16 10 -5
0 -9 -4 -9 -10z"/>
<path d="M3751 4758 c-1 -23 15 -31 36 -18 16 10 15 10 -4 5 -15 -4 -23 -1
-26 12 -4 16 -5 16 -6 1z"/>
<path d="M3173 4732 c4 -19 2 -32 -6 -35 -7 -2 -11 -29 -12 -74 0 -39 -4 -68
-9 -65 -10 6 -4 -23 16 -80 7 -21 19 -38 26 -38 7 0 12 -6 11 -12 -3 -16 11
-48 20 -48 14 0 10 54 -5 78 -10 15 -15 40 -12 67 1 24 0 41 -4 39 -10 -7 -5
79 5 87 4 3 3 17 -2 32 -7 18 -7 27 2 31 7 2 3 5 -8 6 -18 1 -18 2 -3 8 16 7
16 8 -3 21 -21 12 -22 12 -16 -17z"/>
<path d="M3151 4734 c0 -11 3 -14 6 -6 3 7 2 16 -1 19 -3 4 -6 -2 -5 -13z"/>
<path d="M3770 4655 c-7 -8 -16 -12 -21 -9 -5 3 -9 -2 -9 -12 0 -15 2 -15 25
0 29 19 39 20 29 4 -4 -7 -3 -9 1 -5 14 12 14 37 0 37 -7 0 -18 -7 -25 -15z"/>
<path d="M3583 4631 c0 -14 1 -18 4 -8 3 11 14 17 35 17 38 0 32 9 -8 13 -26
3 -30 1 -31 -22z"/>
<path d="M3860 4639 c0 -5 5 -7 10 -4 6 3 10 8 10 11 0 2 -4 4 -10 4 -5 0 -10
-5 -10 -11z"/>
<path d="M3715 4610 c-3 -5 -1 -10 4 -10 6 0 11 5 11 10 0 6 -2 10 -4 10 -3 0
-8 -4 -11 -10z"/>
<path d="M3680 4589 c-13 -8 -13 -10 0 -19 8 -5 20 -9 25 -9 6 0 4 3 -4 6 -10
4 -10 7 -1 13 7 4 8 10 3 13 -5 3 -15 1 -23 -4z"/>
<path d="M3818 4583 c7 -3 16 -2 19 1 4 3 -2 6 -13 5 -11 0 -14 -3 -6 -6z"/>
<path d="M3906 4573 c-6 -14 -5 -15 5 -6 7 7 10 15 7 18 -3 3 -9 -2 -12 -12z"/>
<path d="M4078 4583 c7 -3 16 -2 19 1 4 3 -2 6 -13 5 -11 0 -14 -3 -6 -6z"/>
<path d="M4270 4541 c0 -5 7 -11 15 -15 8 -3 15 -1 15 3 0 5 -7 11 -15 15 -8
3 -15 1 -15 -3z"/>
<path d="M4906 4524 c-4 -9 -4 -19 -1 -22 2 -3 7 3 11 12 4 9 4 19 1 22 -2 3
-7 -3 -11 -12z"/>
<path d="M4003 4503 c-4 -10 -11 -21 -17 -25 -6 -4 -7 -10 -3 -15 5 -4 12 -1
16 6 7 11 10 11 15 0 3 -8 3 -3 0 10 -4 14 -1 27 7 32 11 7 11 9 1 9 -7 0 -16
-8 -19 -17z"/>
<path d="M3928 4469 c-24 -25 -7 -24 22 1 14 12 18 20 9 19 -8 0 -22 -9 -31
-20z"/>
<path d="M5120 4450 c0 -5 4 -10 9 -10 6 0 13 5 16 10 3 6 -1 10 -9 10 -9 0
-16 -4 -16 -10z"/>
<path d="M4761 4198 c-1 -10 -6 -18 -12 -18 -5 0 -7 -5 -3 -12 5 -8 2 -9 -9
-5 -9 3 -20 0 -24 -7 -5 -7 -15 -15 -24 -18 -11 -4 -15 -16 -14 -32 2 -14 -2
-26 -8 -26 -5 0 -8 -2 -5 -5 11 -11 38 8 38 26 0 14 7 19 25 19 32 0 41 -3 38
-12 -2 -5 2 -8 7 -8 13 0 13 27 0 35 -8 5 -8 11 0 20 7 8 7 20 1 36 -7 18 -10
19 -10 7z"/>
<path d="M3350 4145 c7 -9 15 -13 17 -11 7 7 -7 26 -19 26 -6 0 -6 -6 2 -15z"/>
<path d="M4680 4031 c0 -5 -8 -12 -17 -14 -15 -4 -15 -5 -2 -6 9 0 22 6 29 14
9 10 9 15 1 15 -6 0 -11 -4 -11 -9z"/>
<path d="M3445 3850 c-3 -6 1 -7 9 -4 18 7 21 14 7 14 -6 0 -13 -4 -16 -10z"/>
<path d="M2950 3749 c0 -5 5 -7 10 -4 6 3 10 8 10 11 0 2 -4 4 -10 4 -5 0 -10
-5 -10 -11z"/>
<path d="M3050 3720 c0 -5 5 -10 11 -10 5 0 7 5 4 10 -3 6 -8 10 -11 10 -2 0
-4 -4 -4 -10z"/>
<path d="M3420 3676 c0 -10 28 -13 41 -5 10 6 7 9 -13 9 -16 0 -28 -2 -28 -4z"/>
<path d="M3408 3633 c7 -3 16 -2 19 1 4 3 -2 6 -13 5 -11 0 -14 -3 -6 -6z"/>
<path d="M4387 3586 c3 -11 7 -28 10 -36 4 -8 5 -24 4 -35 -4 -27 12 -11 16
17 2 12 -2 25 -9 29 -9 6 -9 11 0 22 10 12 9 16 -7 20 -15 3 -18 0 -14 -17z"/>
<path d="M4546 3567 c3 -10 9 -15 12 -12 3 3 0 11 -7 18 -10 9 -11 8 -5 -6z"/>
<path d="M4432 3529 c4 -9 3 -20 -2 -25 -11 -11 2 -75 15 -74 5 1 11 -4 14
-11 2 -7 -1 -9 -8 -5 -13 8 -4 -21 13 -43 6 -8 17 -26 24 -40 11 -23 12 -23 8
-3 -2 12 1 22 7 22 8 0 7 4 -2 9 -11 7 -10 10 4 18 12 7 14 13 6 17 -6 4 -11
4 -11 0 0 -4 -12 10 -26 31 -17 25 -24 47 -21 63 3 16 -1 32 -11 41 -14 15
-15 15 -10 0z m58 -149 c0 -5 -4 -10 -10 -10 -5 0 -10 5 -10 10 0 6 5 10 10
10 6 0 10 -4 10 -10z"/>
<path d="M4490 3436 c0 -8 5 -18 10 -21 6 -3 10 1 10 9 0 8 -4 18 -10 21 -5 3
-10 -1 -10 -9z"/>
<path d="M5885 3220 c21 -24 26 -25 19 -6 -3 8 -13 17 -22 21 -13 5 -13 2 3
-15z"/>
<path d="M5934 3181 c13 -15 14 -20 4 -24 -7 -3 -2 -6 11 -6 l24 -1 -23 25
c-27 29 -42 34 -16 6z"/>
<path d="M5948 3117 c-7 -8 -20 -12 -28 -10 -13 4 -13 3 0 -6 12 -9 13 -11 1
-11 -8 0 -11 -3 -8 -6 4 -4 13 -2 20 5 11 9 19 6 38 -13 l24 -24 1 34 c0 30
-2 33 -19 28 -13 -4 -17 -2 -13 5 10 15 0 14 -16 -2z"/>
<path d="M6005 3090 c-3 -5 -1 -18 4 -27 9 -15 10 -14 9 10 -3 30 -4 32 -13
17z"/>
<path d="M5760 3070 c0 -5 5 -10 11 -10 5 0 7 5 4 10 -3 6 -8 10 -11 10 -2 0
-4 -4 -4 -10z"/>
<path d="M5815 3070 c3 -5 8 -10 11 -10 2 0 4 5 4 10 0 6 -5 10 -11 10 -5 0
-7 -4 -4 -10z"/>
<path d="M6031 3053 c0 -16 3 -23 5 -16 3 7 13 9 22 6 15 -6 14 -3 -2 15 -24
28 -26 28 -25 -5z"/>
<path d="M5848 3053 c7 -3 16 -2 19 1 4 3 -2 6 -13 5 -11 0 -14 -3 -6 -6z"/>
<path d="M4440 3025 c0 -8 2 -15 4 -15 2 0 6 7 10 15 3 8 1 15 -4 15 -6 0 -10
-7 -10 -15z"/>
<path d="M6074 3014 c20 -20 20 -34 1 -34 -8 0 -15 -4 -15 -9 0 -4 11 -6 25
-3 14 2 25 6 25 9 0 10 -33 53 -42 53 -5 0 -2 -7 6 -16z"/>
<path d="M6045 3000 c3 -5 11 -10 16 -10 6 0 7 5 4 10 -3 6 -11 10 -16 10 -6
0 -7 -4 -4 -10z"/>
<path d="M6121 2950 c-1 -18 16 -46 23 -40 2 3 -2 16 -9 30 -8 15 -14 19 -14
10z"/>
<path d="M6000 2900 c0 -5 5 -10 11 -10 5 0 7 5 4 10 -3 6 -8 10 -11 10 -2 0
-4 -4 -4 -10z"/>
<path d="M5961 2864 c0 -11 3 -14 6 -6 3 7 2 16 -1 19 -3 4 -6 -2 -5 -13z"/>
<path d="M6044 2860 c0 -11 6 -20 12 -20 7 0 10 8 7 20 -3 11 -8 20 -12 20 -4
0 -7 -9 -7 -20z"/>
<path d="M5980 2855 c0 -8 2 -15 4 -15 2 0 6 7 10 15 3 8 1 15 -4 15 -6 0 -10
-7 -10 -15z"/>
<path d="M1755 2829 c-4 -6 -5 -12 -2 -15 2 -3 7 2 10 11 7 17 1 20 -8 4z"/>
<path d="M5799 2836 c-1 -3 -2 -9 -3 -13 -1 -5 -5 -14 -9 -20 -6 -9 0 -13 20
-14 17 -1 21 -3 11 -6 -22 -5 -24 -23 -4 -23 17 0 21 5 30 43 5 22 4 28 -6 24
-7 -2 -12 -10 -10 -16 1 -6 -3 -11 -9 -11 -6 0 -9 7 -6 15 4 8 2 17 -3 20 -6
4 -11 4 -11 1z"/>
<path d="M5960 2834 c0 -3 7 -12 15 -20 13 -13 15 -13 15 -1 0 8 -7 17 -15 21
-8 3 -15 3 -15 0z"/>
<path d="M6100 2812 c0 -5 7 -9 15 -9 8 0 15 4 15 9 0 4 -7 8 -15 8 -8 0 -15
-4 -15 -8z"/>
<path d="M6140 2810 c0 -5 7 -7 15 -4 8 4 15 8 15 10 0 2 -7 4 -15 4 -8 0 -15
-4 -15 -10z"/>
<path d="M4168 2733 c7 -3 16 -2 19 1 4 3 -2 6 -13 5 -11 0 -14 -3 -6 -6z"/>
<path d="M6075 2639 c-4 -6 -5 -12 -2 -15 2 -3 7 2 10 11 7 17 1 20 -8 4z"/>
<path d="M4158 2633 c6 -2 12 -12 12 -21 0 -15 2 -15 10 -2 9 15 -4 30 -25 29
-5 0 -4 -3 3 -6z"/>
<path d="M6027 2633 c-4 -3 -7 -11 -7 -17 0 -6 5 -5 12 2 6 6 9 14 7 17 -3 3
-9 2 -12 -2z"/>
<path d="M6146 2607 c3 -10 9 -15 12 -12 3 3 0 11 -7 18 -10 9 -11 8 -5 -6z"/>
<path d="M3698 2546 l-27 -11 55 -72 c30 -40 54 -76 54 -80 0 -4 10 -32 22
-60 23 -52 38 -67 38 -37 0 9 5 12 12 8 11 -7 7 53 -6 87 -5 10 0 19 14 25
l22 9 -21 19 c-19 17 -19 17 -14 -6 7 -27 2 -23 -50 43 -26 32 -35 52 -30 64
4 13 3 16 -6 11 -6 -4 -17 -3 -24 2 -8 6 -22 5 -39 -2z"/>
<path d="M3780 2514 c0 -11 29 -34 34 -26 2 4 -4 13 -15 20 -10 7 -19 10 -19
6z"/>
<path d="M1100 2470 c0 -5 5 -10 11 -10 5 0 7 5 4 10 -3 6 -8 10 -11 10 -2 0
-4 -4 -4 -10z"/>
<path d="M3820 2470 c0 -5 5 -10 11 -10 5 0 7 5 4 10 -3 6 -8 10 -11 10 -2 0
-4 -4 -4 -10z"/>
<path d="M6530 1905 c-8 -9 -8 -15 -2 -15 12 0 26 19 19 26 -2 2 -10 -2 -17
-11z"/>
<path d="M6581 1906 c-8 -9 -11 -19 -7 -23 9 -9 29 13 24 27 -2 8 -8 7 -17 -4z"/>
<path d="M6484 1892 c7 -20 5 -21 -26 -17 -30 5 -31 4 -10 -6 12 -7 22 -15 22
-18 0 -4 8 -7 18 -8 22 -2 24 35 4 57 -13 12 -14 11 -8 -8z"/>
<path d="M6361 1874 c0 -11 3 -14 6 -6 3 7 2 16 -1 19 -3 4 -6 -2 -5 -13z"/>
<path d="M6320 1853 c0 -7 7 -13 15 -13 8 0 15 6 15 13 0 8 -7 14 -15 14 -8 0
-15 -6 -15 -14z"/>
<path d="M6379 1843 c-13 -16 -12 -17 4 -4 9 7 17 15 17 17 0 8 -8 3 -21 -13z"/>
<path d="M6437 1843 c-4 -3 -7 -13 -7 -20 0 -20 23 -11 26 10 2 17 -7 22 -19
10z"/>
<path d="M6474 1831 c-11 -12 -2 -23 16 -18 13 3 20 0 20 -10 0 -8 -4 -11 -10
-8 -5 3 -10 0 -10 -9 0 -8 8 -13 18 -12 10 2 17 12 17 25 0 12 7 26 15 31 11
7 4 9 -23 7 -21 -1 -40 -4 -43 -6z"/>
<path d="M6564 1826 c-3 -7 -4 -19 -2 -27 2 -8 -3 -13 -9 -11 -7 1 -13 -3 -13
-9 0 -6 8 -9 18 -7 11 2 17 12 16 28 -1 14 4 28 10 32 8 5 7 8 -2 8 -7 0 -15
-6 -18 -14z"/>
<path d="M6745 1830 c3 -5 8 -10 11 -10 2 0 4 5 4 10 0 6 -5 10 -11 10 -5 0
-7 -4 -4 -10z"/>
<path d="M6600 1815 c0 -8 5 -15 10 -15 6 0 10 7 10 15 0 8 -4 15 -10 15 -5 0
-10 -7 -10 -15z"/>
<path d="M6400 1801 c0 -12 5 -21 10 -21 6 0 10 6 10 14 0 8 -4 18 -10 21 -5
3 -10 -3 -10 -14z"/>
<path d="M6330 1799 c0 -5 5 -7 10 -4 6 3 10 8 10 11 0 2 -4 4 -10 4 -5 0 -10
-5 -10 -11z"/>
<path d="M6627 1793 c-24 -6 -17 -26 10 -28 15 -1 19 3 15 17 -2 10 -5 17 -6
17 0 -1 -9 -3 -19 -6z"/>
<path d="M6435 1780 c-3 -5 -1 -10 4 -10 6 0 11 5 11 10 0 6 -2 10 -4 10 -3 0
-8 -4 -11 -10z"/>
<path d="M6781 1770 c0 -14 3 -32 7 -40 9 -20 32 -24 32 -5 0 8 -7 15 -16 15
-9 0 -14 6 -11 13 3 8 1 20 -4 28 -6 10 -9 7 -8 -11z"/>
<path d="M6715 1760 c-11 -5 -14 -9 -6 -9 8 -1 20 -9 27 -18 13 -17 13 -17 14
0 0 9 -5 17 -11 17 -5 0 -7 5 -4 10 7 11 7 11 -20 0z"/>
<path d="M6850 1760 c0 -5 7 -7 15 -4 8 4 15 8 15 10 0 2 -7 4 -15 4 -8 0 -15
-4 -15 -10z"/>
<path d="M6461 1750 c0 -8 4 -22 9 -30 12 -18 12 -2 0 25 -6 13 -9 15 -9 5z"/>
<path d="M6506 1741 c-8 -9 -16 -25 -18 -36 -2 -12 -11 -19 -22 -18 -13 1 -15
-2 -7 -10 7 -7 18 -7 37 2 23 10 24 14 13 28 -12 15 -12 16 4 10 10 -4 25 -7
32 -7 8 0 13 -9 12 -20 -1 -14 -6 -18 -19 -14 -10 3 -18 0 -18 -6 0 -6 5 -8
10 -5 6 3 10 -1 10 -10 0 -9 -4 -13 -10 -10 -6 3 -10 -4 -10 -17 l1 -23 21 25
c11 14 25 24 30 22 5 -1 7 2 3 8 -4 6 8 13 26 17 28 5 30 7 14 14 -11 3 -24 3
-29 -2 -15 -14 -26 -11 -20 6 4 10 -3 18 -20 25 -14 5 -26 14 -26 20 0 12 27
13 34 1 6 -10 56 -2 56 8 0 15 -90 8 -104 -8z"/>
<path d="M6630 1740 c0 -5 5 -10 11 -10 15 0 1 -42 -22 -62 -10 -9 -19 -22
-19 -28 0 -7 -8 -10 -20 -7 -11 3 -20 1 -20 -4 0 -5 7 -9 16 -9 8 0 13 -4 10
-9 -3 -5 -14 -8 -24 -6 -9 1 -11 0 -4 -2 11 -4 16 -17 13 -35 0 -5 6 -8 14 -8
8 0 15 -4 15 -10 0 -5 -12 -10 -26 -10 -14 0 -32 -7 -40 -15 -9 -8 -11 -15 -5
-15 5 0 13 5 16 10 11 17 35 11 46 -12 l10 -23 -5 23 c-3 14 1 22 9 22 8 0 16
8 18 18 4 14 5 14 6 -3 0 -11 -6 -33 -14 -49 -15 -29 -11 -52 4 -27 13 20 31
3 30 -27 -2 -24 -2 -24 -6 -4 -2 12 -9 20 -14 16 -5 -3 -7 -9 -5 -13 3 -4 0
-8 -7 -8 -7 0 -32 -10 -57 -23 -41 -20 -31 -23 14 -4 13 5 17 4 12 -4 -3 -6
-1 -14 5 -17 5 -4 8 -13 5 -21 -3 -8 1 -14 10 -14 9 0 18 9 21 20 8 29 21 25
15 -5 -3 -19 -11 -25 -31 -26 -25 0 -25 -1 -4 -9 18 -7 22 -16 20 -49 -1 -23
-5 -41 -9 -41 -4 0 -8 5 -8 10 0 6 -5 10 -11 10 -6 0 -8 -8 -4 -20 5 -15 0
-21 -19 -26 -14 -3 -31 -4 -38 -1 -7 3 -3 6 10 6 12 1 22 6 22 12 0 6 -7 9
-15 5 -9 -3 -15 0 -15 10 0 8 -4 12 -10 9 -14 -8 -13 -62 1 -71 6 -3 14 -2 18
3 9 15 51 23 48 9 -1 -6 6 -10 17 -8 24 4 12 -14 -15 -21 -15 -4 -19 -2 -15 9
7 18 -8 18 -23 0 -8 -10 -9 -16 -1 -21 6 -4 9 -12 8 -18 -3 -16 32 -87 43 -87
5 0 9 -6 9 -13 0 -20 156 -246 220 -318 30 -34 63 -72 74 -83 10 -12 32 -49
49 -84 38 -77 76 -113 117 -108 16 2 27 0 25 -4 -3 -5 -2 -15 1 -24 5 -14 38
-16 265 -16 l259 0 0 150 c0 118 -3 158 -16 182 -9 16 -15 49 -13 72 3 64 1
74 -11 56 -8 -12 -10 -11 -10 8 0 12 -4 22 -10 22 -5 0 -10 3 -9 8 2 15 -14
52 -23 52 -6 0 -8 -6 -5 -13 3 -8 -4 -14 -17 -15 -27 -2 -44 47 -41 121 1 28
1 39 -2 24 -4 -23 -7 -26 -19 -16 -11 9 -14 8 -14 -2 0 -11 -2 -11 -9 0 -8 13
-12 13 -27 0 -16 -12 -17 -12 -11 4 4 11 1 17 -9 17 -8 0 -12 4 -9 10 3 5 1
18 -4 27 -10 17 -10 17 -11 1 0 -10 -4 -18 -9 -18 -5 0 -7 9 -4 21 3 12 11 18
19 15 18 -7 19 31 1 48 -10 11 -15 10 -27 -2 -12 -14 -16 -11 -31 24 -10 21
-18 35 -18 30 -1 -5 -13 3 -27 17 -14 14 -23 31 -19 37 3 5 -1 10 -9 10 -9 0
-16 7 -16 15 0 8 -4 15 -8 15 -10 0 -32 -22 -32 -32 0 -15 19 -8 23 10 4 13 5
14 6 1 0 -8 -5 -24 -13 -34 -13 -18 -14 -17 -21 14 -5 24 -3 36 6 42 12 8 11
11 -1 19 -8 5 -19 10 -25 10 -5 0 -3 -4 5 -10 17 -11 13 -15 -20 -24 -14 -3
-19 -3 -12 0 6 3 12 17 12 31 l0 25 -19 -23 c-19 -23 -20 -23 -27 -4 -8 18 -9
17 -15 -10 -7 -30 -7 -30 -8 -3 -1 25 -4 27 -36 23 -30 -4 -34 -3 -23 9 7 8
15 10 16 5 6 -15 19 -10 25 10 4 15 0 19 -14 16 -11 -2 -19 0 -19 6 0 5 7 9
16 9 9 0 14 6 11 13 -2 6 -10 11 -16 9 -6 -1 -11 3 -11 9 0 5 -5 7 -11 4 -6
-4 -8 -13 -5 -21 3 -8 0 -14 -6 -14 -6 0 -8 11 -4 30 3 17 1 30 -3 30 -5 0
-16 3 -25 6 -11 4 -16 1 -16 -10 0 -9 -4 -16 -10 -16 -5 0 -10 7 -10 15 0 8
-4 15 -10 15 -5 0 -10 -5 -10 -12 0 -6 -3 -8 -6 -5 -10 10 16 36 30 31 8 -3
16 2 19 10 4 9 11 16 16 16 6 0 7 -8 4 -17 -5 -13 -2 -15 11 -10 10 4 20 7 22
7 2 0 4 5 4 10 0 6 -6 10 -14 10 -8 0 -16 7 -20 15 -6 17 -42 20 -51 4 -11
-17 5 -25 16 -9 9 13 10 13 6 0 -6 -22 -37 -25 -37 -3 0 15 -2 16 -10 3 -7
-12 -9 -10 -7 8 1 12 6 21 12 19 5 -2 19 -1 30 4 16 6 16 8 3 8 -9 1 -19 7
-21 14 -4 10 -6 10 -6 0 -1 -7 -6 -13 -12 -13 -6 0 -9 6 -6 13 2 6 1 21 -4 32
-6 17 -8 17 -8 3 -1 -22 -41 -25 -41 -3 0 8 -6 16 -12 16 -7 1 -26 3 -42 5
-25 3 -28 0 -23 -22 3 -18 0 -24 -14 -24 -10 0 -21 5 -24 10 -4 6 -1 9 5 8 7
-2 14 9 15 25 4 29 -12 37 -21 12 -4 -8 -14 -15 -24 -15 -11 0 -22 -4 -25 -10
-3 -5 -10 -10 -16 -10 -14 0 -11 20 4 24 47 15 48 15 37 35 -8 16 -6 22 7 31
15 8 13 9 -8 4 -15 -3 -30 -1 -33 5 -4 6 0 11 8 11 10 0 13 6 10 15 -4 8 -10
15 -16 15 -5 0 -6 -4 -3 -10 3 -5 1 -10 -4 -10 -6 0 -11 5 -11 10 0 6 -4 10
-10 10 -5 0 -10 -4 -10 -10z m50 -60 c8 -5 11 -12 8 -16 -4 -3 -14 1 -23 10
-18 17 -9 21 15 6z m-43 -56 c-3 -4 -2 -15 4 -25 13 -25 -9 -26 -27 -1 -19 24
-17 32 8 32 12 0 18 -3 15 -6z m163 -14 c0 -5 8 -7 18 -3 9 3 14 3 10 -2 -4
-4 -1 -14 7 -22 18 -17 19 -33 4 -33 -5 0 -8 4 -5 9 3 5 0 13 -7 19 -12 10
-18 12 -37 12 -5 0 -10 7 -10 15 0 8 5 15 10 15 6 0 10 -4 10 -10z m-100 -15
c0 -8 -4 -15 -8 -15 -5 0 -9 7 -9 15 0 8 4 15 9 15 4 0 8 -7 8 -15z m-90 -16
c0 -5 -4 -9 -10 -9 -5 0 -10 7 -10 16 0 8 5 12 10 9 6 -3 10 -10 10 -16z m273
1 c-5 -19 -23 -29 -23 -12 0 7 20 32 26 32 1 0 0 -9 -3 -20z m-198 -44 c0 -13
-3 -22 -7 -19 -5 2 -8 13 -8 24 0 10 3 19 8 19 4 0 7 -11 7 -24z m195 4 c0 -5
-4 -10 -10 -10 -5 0 -10 5 -10 10 0 6 5 10 10 10 6 0 10 -4 10 -10z m-226 -32
c-3 -5 2 -11 10 -14 9 -3 13 -10 10 -16 -10 -16 -31 10 -31 38 0 18 2 22 8 13
4 -7 5 -17 3 -21z m96 12 c0 -5 -2 -10 -4 -10 -3 0 -8 5 -11 10 -3 6 -1 10 4
10 6 0 11 -4 11 -10z m100 -6 c0 -8 -5 -12 -10 -9 -6 4 -8 11 -5 16 9 14 15
11 15 -7z m-117 -59 c-3 -9 -8 -14 -10 -11 -3 3 -2 9 2 15 9 16 15 13 8 -4z
m240 -20 c-3 -9 -8 -14 -10 -11 -3 3 -2 9 2 15 9 16 15 13 8 -4z m-293 -92 c0
-7 -4 -13 -9 -13 -10 0 -21 36 -13 45 7 7 22 -15 22 -32z m77 11 c-3 -3 -12
-4 -19 -1 -8 3 -5 6 6 6 11 1 17 -2 13 -5z m13 -24 c0 -5 -5 -10 -11 -10 -5 0
-7 5 -4 10 3 6 8 10 11 10 2 0 4 -4 4 -10z m-100 -20 c0 -5 -7 -10 -15 -10 -8
0 -15 5 -15 10 0 6 7 10 15 10 8 0 15 -4 15 -10z m478 -30 c-7 -10 -14 -18
-15 -16 -6 6 9 36 18 36 5 0 4 -9 -3 -20z m-478 -7 c0 -7 -4 -13 -9 -13 -5 0
-11 6 -14 13 -3 8 1 14 9 14 8 0 14 -6 14 -14z m38 -8 c-3 -3 -9 2 -12 12 -6
14 -5 15 5 6 7 -7 10 -15 7 -18z m522 5 c0 -5 -4 -10 -10 -10 -5 0 -10 5 -10
10 0 6 5 10 10 10 6 0 10 -4 10 -10z m-567 -50 c-4 -15 -1 -18 16 -15 12 2 19
0 16 -5 -9 -15 -38 -4 -46 18 -6 16 -5 22 5 22 9 0 12 -7 9 -20z m79 -11 c-18
-7 -22 -14 -18 -31 3 -13 3 -17 0 -10 -3 6 -10 10 -15 6 -15 -9 -10 8 8 28 9
10 23 18 32 17 10 0 7 -4 -7 -10z m553 -39 c3 -5 1 -10 -4 -10 -6 0 -11 5 -11
10 0 6 2 10 4 10 3 0 8 -4 11 -10z m-625 -21 c0 -6 -4 -7 -10 -4 -5 3 -10 11
-10 16 0 6 5 7 10 4 6 -3 10 -11 10 -16z m-38 -4 c0 -5 -5 -11 -11 -13 -6 -2
-11 4 -11 13 0 9 5 15 11 13 6 -2 11 -8 11 -13z m738 5 c0 -5 -5 -10 -11 -10
-5 0 -7 5 -4 10 3 6 8 10 11 10 2 0 4 -4 4 -10z m-633 -42 c-3 -7 -5 -2 -5 12
0 14 2 19 5 13 2 -7 2 -19 0 -25z m-83 7 c-4 -8 -11 -15 -16 -15 -6 0 -5 6 2
15 7 8 14 15 16 15 2 0 1 -7 -2 -15z m0 -105 c-6 -6 -10 -3 -10 10 0 13 4 16
10 10 7 -7 7 -13 0 -20z m43 -7 c-3 -10 -5 -4 -5 12 0 17 2 24 5 18 2 -7 2
-21 0 -30z m763 13 c0 -3 -4 -8 -10 -11 -5 -3 -10 -1 -10 4 0 6 5 11 10 11 6
0 10 -2 10 -4z m30 -110 c0 -3 -4 -8 -10 -11 -5 -3 -10 -1 -10 4 0 6 5 11 10
11 6 0 10 -2 10 -4z"/>
<path d="M6590 1716 c0 -2 9 -6 20 -9 11 -3 20 -1 20 4 0 5 -9 9 -20 9 -11 0
-20 -2 -20 -4z"/>
<path d="M6847 1712 c6 -4 15 -20 19 -36 5 -20 9 -24 15 -15 4 8 4 16 0 19 -4
3 -10 13 -14 23 -3 9 -12 17 -19 17 -10 0 -10 -2 -1 -8z"/>
<path d="M6966 1703 c-6 -14 -5 -15 5 -6 7 7 10 15 7 18 -3 3 -9 -2 -12 -12z"/>
<path d="M6726 1694 c-10 -26 -6 -30 9 -10 13 17 15 18 15 3 0 -9 5 -17 12
-17 6 0 8 3 5 7 -4 3 -2 12 4 20 9 10 6 13 -14 13 -14 0 -28 -7 -31 -16z"/>
<path d="M6787 1686 c-8 -20 12 -34 47 -34 25 0 27 2 15 12 -9 6 -18 18 -22
26 -4 11 -6 12 -6 1 -1 -10 -4 -11 -15 -2 -10 9 -15 8 -19 -3z"/>
<path d="M6917 1679 c7 -7 15 -10 18 -7 3 3 -2 9 -12 12 -14 6 -15 5 -6 -5z"/>
<path d="M6391 1664 c0 -11 3 -14 6 -6 3 7 2 16 -1 19 -3 4 -6 -2 -5 -13z"/>
<path d="M6490 1650 c0 -5 5 -10 10 -10 6 0 10 5 10 10 0 6 -4 10 -10 10 -5 0
-10 -4 -10 -10z"/>
<path d="M6925 1630 c-3 -5 -1 -10 4 -10 6 0 11 5 11 10 0 6 -2 10 -4 10 -3 0
-8 -4 -11 -10z"/>
<path d="M6482 1593 c-2 -26 -1 -26 13 -7 18 24 19 34 2 34 -7 0 -14 -12 -15
-27z"/>
<path d="M6420 1559 c0 -5 5 -7 10 -4 6 3 10 8 10 11 0 2 -4 4 -10 4 -5 0 -10
-5 -10 -11z"/>
<path d="M6530 1566 c0 -2 7 -6 15 -10 8 -3 15 -1 15 4 0 6 -7 10 -15 10 -8 0
-15 -2 -15 -4z"/>
<path d="M6497 1529 c-5 -17 -3 -18 11 -7 9 7 18 13 20 14 2 1 -4 4 -12 7 -8
3 -16 -2 -19 -14z"/>
<path d="M7030 1500 c0 -5 7 -7 15 -4 8 4 15 8 15 10 0 2 -7 4 -15 4 -8 0 -15
-4 -15 -10z"/>
<path d="M7056 1463 c-4 -9 -3 -20 2 -25 4 -4 9 4 10 17 2 29 -3 32 -12 8z"/>
<path d="M6576 1456 c3 -8 -2 -16 -10 -19 -13 -4 -13 -5 1 -3 19 1 32 36 14
36 -6 0 -8 -6 -5 -14z"/>
<path d="M7074 1391 c3 -5 0 -12 -6 -15 -7 -3 -3 -3 10 0 17 4 22 1 22 -13 1
-17 2 -17 15 1 17 23 18 21 -18 30 -17 4 -26 3 -23 -3z"/>
<path d="M6564 1372 c-7 -5 -7 -14 2 -30 11 -23 12 -23 16 7 5 32 1 36 -18 23z"/>
<path d="M6470 1316 c0 -13 7 -27 16 -30 8 -3 13 -10 9 -15 -3 -5 -1 -12 5
-16 6 -3 13 1 16 9 3 9 11 13 17 9 6 -3 7 -1 3 5 -4 7 -15 12 -26 12 -19 0
-34 25 -24 41 3 5 0 9 -5 9 -6 0 -11 -11 -11 -24z"/>
<path d="M6584 1304 c-18 -15 -18 -15 0 -10 14 5 17 2 12 -10 -4 -9 -1 -14 6
-12 13 5 20 36 9 43 -5 2 -17 -3 -27 -11z"/>
<path d="M6563 1273 c-18 -7 -16 -20 2 -20 8 0 15 6 15 14 0 7 -1 13 -2 12 -2
0 -9 -3 -15 -6z"/>
<path d="M7280 1269 c0 -5 5 -7 10 -4 6 3 10 8 10 11 0 2 -4 4 -10 4 -5 0 -10
-5 -10 -11z"/>
<path d="M7320 1270 c0 -6 -10 -14 -22 -19 l-23 -8 23 -7 c12 -4 22 -15 22
-26 0 -10 5 -22 11 -26 8 -4 9 1 3 17 -4 13 -7 36 -6 52 1 15 0 27 -3 27 -3 0
-5 -5 -5 -10z"/>
<path d="M7360 1245 c-7 -9 -8 -15 -2 -15 5 0 12 7 16 15 3 8 4 15 2 15 -2 0
-9 -7 -16 -15z"/>
<path d="M7393 1165 c0 -22 2 -30 4 -17 2 12 2 30 0 40 -3 9 -5 -1 -4 -23z"/>
<path d="M7427 1143 c-10 -9 -9 -23 2 -23 5 0 11 7 15 15 5 15 -5 20 -17 8z"/>
<path d="M7380 1110 c0 -5 5 -10 10 -10 6 0 10 5 10 10 0 6 -4 10 -10 10 -5 0
-10 -4 -10 -10z"/>
<path d="M7403 1095 c-15 -16 -6 -25 24 -25 16 0 23 6 22 18 0 10 -3 12 -6 5
-6 -17 -21 -16 -25 1 -2 11 -5 12 -15 1z"/>
<path d="M7491 980 c0 -8 4 -22 9 -30 12 -18 12 -2 0 25 -6 13 -9 15 -9 5z"/>
</g>
</svg>
